 <svg width="25" height="24" viewBox="0 0 25 24" fill="none" xmlns="http://www.w3.org/2000/svg">
<path d="M16.2777 10H18.2913" stroke="black" stroke-width="2" stroke-linecap="round" stroke-linejoin="round"/>
<path d="M16.2777 14H18.2913" stroke="black" stroke-width="2" stroke-linecap="round" stroke-linejoin="round"/>
<path d="M6.3811 14.9996C6.58864 14.4136 6.97419 13.906 7.48454 13.547C7.9949 13.1879 8.60487 12.9951 9.23027 12.9951C9.85567 12.9951 10.4656 13.1879 10.976 13.547C11.4863 13.906 11.8719 14.4136 12.0794 14.9996" stroke="black" stroke-width="2" stroke-linecap="round" stroke-linejoin="round"/>
<path d="M9.23022 13C10.3423 13 11.2438 12.1046 11.2438 11C11.2438 9.89543 10.3423 9 9.23022 9C8.11817 9 7.21667 9.89543 7.21667 11C7.21667 12.1046 8.11817 13 9.23022 13Z" stroke="black" stroke-width="2" stroke-linecap="round" stroke-linejoin="round"/>
<path d="M20.3048 5H4.19641C3.08436 5 2.18286 5.89543 2.18286 7V17C2.18286 18.1046 3.08436 19 4.19641 19H20.3048C21.4168 19 22.3183 18.1046 22.3183 17V7C22.3183 5.89543 21.4168 5 20.3048 5Z" stroke="black" stroke-width="2" stroke-linecap="round" stroke-linejoin="round"/>
</svg>
