<?xml version="1.0" encoding="UTF-8"?>
<svg version="1.1" xmlns="http://www.w3.org/2000/svg" width="740" height="740">
<path d="M0 0 C244.2 0 488.4 0 740 0 C740 244.2 740 488.4 740 740 C495.8 740 251.6 740 0 740 C0 495.8 0 251.6 0 0 Z " fill="#1977F2" transform="translate(0,0)"/>
<path d="M0 0 C244.2 0 488.4 0 740 0 C740 244.2 740 488.4 740 740 C495.8 740 251.6 740 0 740 C0 495.8 0 251.6 0 0 Z M320 12 C319.04834961 12.11214844 318.09669922 12.22429688 317.11621094 12.33984375 C297.79042836 14.67015769 278.40924281 19.01763195 259.98876953 25.32275391 C257.82016602 26.06123981 255.64286714 26.77027348 253.46484375 27.48046875 C209.66001038 42.01862669 170.83931472 65.74251741 135.4375 94.9921875 C133.71719395 96.40923447 131.9633979 97.78608993 130.1875 99.1328125 C129.465625 99.74898438 128.74375 100.36515625 128 101 C128 101.66 128 102.32 128 103 C127.44223877 103.23251465 126.88447754 103.4650293 126.30981445 103.70458984 C123.40046504 105.33623639 121.39651509 107.36172126 119.04296875 109.7265625 C118.57691727 110.1930722 118.11086578 110.65958191 117.63069153 111.14022827 C116.64586655 112.1280674 115.66346619 113.11832895 114.68334961 114.11083984 C113.20791957 115.60433047 111.7248426 117.0898575 110.24023438 118.57421875 C104.9559228 123.87775308 99.82221827 129.26834494 95 135 C94.48542236 135.60779297 93.97084473 136.21558594 93.44067383 136.84179688 C85.0506301 146.83618972 77.32029243 157.20120015 70 168 C69.53883789 168.67611328 69.07767578 169.35222656 68.60253906 170.04882812 C35.47753519 218.9017437 16.52970159 275.59569279 10 334 C9.89469971 334.85730713 9.78939941 335.71461426 9.6809082 336.59790039 C8.6230005 346.2112252 8.79944113 355.90401488 8.8125 365.5625 C8.81376892 366.52251923 8.81503784 367.48253845 8.81634521 368.47164917 C9.02640389 451.87796521 36.26020173 530.41039448 88 596 C89.13501953 597.45792969 89.13501953 597.45792969 90.29296875 598.9453125 C103.40172307 615.42348397 118.72127347 631.61400885 135 645 C135.52045898 645.43957031 136.04091797 645.87914062 136.57714844 646.33203125 C147.22442928 655.32384289 158.36941106 663.33215935 170 671 C170.64743164 671.42796875 171.29486328 671.8559375 171.96191406 672.296875 C175.94197082 674.91762856 179.9582265 677.47505836 184 680 C184.59200195 680.3707666 185.18400391 680.7415332 185.79394531 681.12353516 C199.33913995 689.56500404 213.29955659 696.47734334 228.109375 702.41015625 C231.3198319 703.70252738 234.44237938 705.1256606 237.5625 706.625 C243.09966147 709.18125349 248.83054634 710.94323004 254.66015625 712.68359375 C257.58528628 713.55709307 260.48149492 714.48807596 263.37109375 715.47265625 C275.68378816 719.61944618 288.11431 722.21931021 300.89306641 724.52270508 C303 725 303 725 304 726 C306.97 726 309.94 726 313 726 C313 643.17 313 560.34 313 475 C282.97 475 252.94 475 222 475 C222 440.35 222 405.7 222 370 C252.36 370 282.72 370 314 370 C314.02578125 362.9153125 314.0515625 355.830625 314.078125 348.53125 C314.1033473 343.99215339 314.12972158 339.45311991 314.16015625 334.9140625 C314.20815686 327.73925704 314.25232485 320.56459803 314.27099609 313.38964844 C314.28635145 307.59278409 314.32112176 301.79630795 314.36830902 295.99961853 C314.38293108 293.80894889 314.39102971 291.61822377 314.39188385 289.42750549 C314.40800556 268.77485207 316.2940265 248.33950768 324 229 C324.31710937 228.20335937 324.63421875 227.40671875 324.9609375 226.5859375 C325.91018248 224.35480614 326.94325399 222.1822529 328 220 C328.47953125 218.94425781 328.9590625 217.88851562 329.453125 216.80078125 C333.15092585 208.94727431 337.47414184 202.36419424 342.9609375 195.64453125 C345.14582259 193.11061654 345.14582259 193.11061654 346 190 C346.66 190 347.32 190 348 190 C349.348098 188.34525309 350.67882915 186.6763243 352 185 C367.06658707 171.00594963 385.3330349 161.12806744 405.0625 155.625 C405.91134766 155.38628174 406.76019531 155.14756348 407.63476562 154.90161133 C422.68400838 150.97603055 437.80095447 150.62987042 453.25 150.6875 C454.21532654 150.68865814 455.18065308 150.68981628 456.17523193 150.69100952 C472.37385311 150.72929188 487.90636321 151.89063984 504 154 C516.87 155.485 516.87 155.485 530 157 C530.33 186.37 530.66 215.74 531 246 C503.5 245.75 503.5 245.75 494.92382812 245.63964844 C474.43448622 245.48628164 455.92264947 246.71570758 440.328125 261.4765625 C426.50986457 276.45407296 425.669681 294.83519454 425.8046875 314.23828125 C425.80763755 315.67459965 425.80967204 317.11092022 425.81079102 318.54724121 C425.82116693 323.80236082 425.84908869 329.05743403 425.875 334.3125 C425.936875 351.9778125 425.936875 351.9778125 426 370 C459 370 492 370 526 370 C525.34 373.96 524.68 377.92 524 382 C523.58349304 385.56344846 523.20734687 389.12162915 522.87695312 392.69335938 C522.36809772 397.69481207 521.55852153 402.61806735 520.66015625 407.5625 C518.62798641 418.77118059 517.02117618 430.04192353 515.375 441.3125 C514.90746455 444.50981588 514.43918161 447.70701265 513.96841431 450.90385437 C513.67822166 452.8746109 513.38986476 454.84563887 513.10360718 456.81697083 C512.97322052 457.70277328 512.84283386 458.58857574 512.70849609 459.5012207 C512.53886856 460.66340874 512.53886856 460.66340874 512.36581421 461.84907532 C512 464 512 464 511.45571899 465.84367371 C510.75876464 468.7741277 510.75876464 468.7741277 511 475 C483.28 475 455.56 475 427 475 C427 557.83 427 640.66 427 726 C435.85041451 725.25153983 435.85041451 725.25153983 444.41796875 723.765625 C446.06962036 723.40295532 446.06962036 723.40295532 447.75463867 723.03295898 C448.88748291 722.77458252 450.02032715 722.51620605 451.1875 722.25 C452.37641846 721.98195557 453.56533691 721.71391113 454.7902832 721.43774414 C463.70924612 719.38643734 472.32533804 716.90088158 481 714 C482.3761237 713.57975656 483.75378954 713.16453582 485.1328125 712.75390625 C491.89499066 710.73486354 498.41958087 708.56334639 504.79296875 705.49609375 C507.40361349 704.27821685 510.01727462 703.14133464 512.67578125 702.03515625 C540.78392129 690.32781108 567.08668349 674.90230324 591 656 C591.60618164 655.52240234 592.21236328 655.04480469 592.83691406 654.55273438 C605.38723426 644.62865056 617.03260998 634.02562387 628.375 622.75 C629.35629883 621.7758313 629.35629883 621.7758313 630.35742188 620.78198242 C638.51204386 613.27325041 638.51204386 613.27325041 644 604 C644.66 604 645.32 604 646 604 C647.56209651 602.31580723 647.56209651 602.31580723 649.16015625 600.109375 C649.78293457 599.28501953 650.40571289 598.46066406 651.04736328 597.61132812 C651.6917334 596.74958984 652.33610352 595.88785156 653 595 C654.22697518 593.40035908 655.45483365 591.80139525 656.68359375 590.203125 C662.95135324 581.95940825 669.05903807 573.77827444 674.3203125 564.84765625 C675.92484815 562.12740861 677.63092037 559.50719391 679.375 556.875 C690.89606632 538.79659208 700.56873472 518.62761759 707.74609375 498.4453125 C708.58070911 496.15207028 709.49171216 493.88519226 710.4765625 491.65234375 C712.28377435 487.31966919 713.62435398 482.9397765 714.9375 478.4375 C715.19909912 477.54619385 715.46069824 476.6548877 715.73022461 475.73657227 C716.25220852 473.95630027 716.772835 472.17562962 717.29199219 470.39453125 C717.87194706 468.43308386 718.48247999 466.4807013 719.1015625 464.53125 C724.08965509 448.47202508 726.52312599 431.50771924 728.75 414.875 C728.86545166 414.02558838 728.98090332 413.17617676 729.09985352 412.30102539 C730.85785804 398.33162018 731.20882918 384.25172478 731.1875 370.1875 C731.18689575 369.43809143 731.1862915 368.68868286 731.18566895 367.91656494 C731.08303661 320.45411465 722.91830766 272.39202322 703 229 C702.35115324 227.50781713 701.70538689 226.01429153 701.0625 224.51953125 C680.96707295 178.38661246 648.2983646 127.27159723 607 97 C606.01 96.67 605.02 96.34 604 96 C604 95.34 604 94.68 604 94 C602.08041175 92.30570104 600.15544445 90.74043427 598.125 89.1875 C597.50657227 88.70901611 596.88814453 88.23053223 596.25097656 87.73754883 C579.35966684 72.58909504 579.35966684 72.58909504 560 64 C560 63.34 560 62.68 560 62 C552.49952396 57.62842077 544.98938278 53.38044264 537.1875 49.5625 C534.8434929 48.41347691 532.51275199 47.24828588 530.1875 46.0625 C510.92630661 36.25888458 490.96442952 28.82159557 470.25683594 22.671875 C468.5323188 22.15847483 466.81241508 21.62955334 465.09472656 21.09375 C455.01970519 18.05334157 444.86252759 16.14064621 434.5 14.375 C433.61006348 14.22247772 432.72012695 14.06995544 431.80322266 13.91281128 C394.55873852 7.56435764 357.48543775 7.38167091 320 12 Z " fill="#FEFEFE" transform="translate(0,0)"/>
<path d="M0 0 C1.99954746 -0.04254356 4.00041636 -0.04080783 6 0 C7.82238662 1.82238662 7.11997696 4.34756083 7.12442017 6.7724762 C7.11902725 8.01540688 7.11902725 8.01540688 7.11352539 9.28344727 C7.11367142 10.15166107 7.11381744 11.01987488 7.1139679 11.91439819 C7.11326846 14.79842586 7.10547463 17.6823898 7.09765625 20.56640625 C7.09579218 22.56037867 7.09436823 24.55435155 7.09336853 26.54832458 C7.08954248 31.80745702 7.07971145 37.06656203 7.06866455 42.32568359 C7.05665815 48.6298745 7.05204861 54.93407456 7.04621124 61.23827362 C7.03649974 70.82553485 7.01734379 80.41273584 7 90 C-10.16 90 -27.32 90 -45 90 C-45 89.67 -45 89.34 -45 89 C-28.83 89 -12.66 89 4 89 C4 60.29 4 31.58 4 2 C2.68 1.34 1.36 0.68 0 0 Z " fill="#E8F3F6" transform="translate(524,156)"/>
<path d="M0 0 C0.33 0 0.66 0 1 0 C1.04629419 7.3973076 1.08185426 14.79458407 1.10362434 22.19200706 C1.1140717 25.62675459 1.12824805 29.06140317 1.15087891 32.49609375 C1.17672063 36.44269638 1.18646493 40.38925863 1.1953125 44.3359375 C1.20563507 45.57242035 1.21595764 46.8089032 1.22659302 48.08285522 C1.22674408 49.22388702 1.22689514 50.36491882 1.22705078 51.54052734 C1.231492 52.548685 1.23593323 53.55684265 1.24050903 54.59555054 C1 57 1 57 -1 59 C-1.80671477 52.61790045 -2.15976513 46.39041941 -2.16796875 39.9609375 C-2.17129715 39.03584381 -2.17462555 38.11075012 -2.17805481 37.15762329 C-2.18308374 35.21641533 -2.18546439 33.27519884 -2.18530273 31.33398438 C-2.18749914 28.37615778 -2.20572483 25.41869882 -2.22460938 22.4609375 C-2.22754224 20.56510543 -2.22952775 18.66927161 -2.23046875 16.7734375 C-2.23765427 15.89722748 -2.24483978 15.02101746 -2.25224304 14.11825562 C-2.23338712 9.02333102 -1.64713622 4.82838991 0 0 Z " fill="#297AEE" transform="translate(11,338)"/>
<path d="M0 0 C0.33 1.32 0.66 2.64 1 4 C-0.32 4 -1.64 4 -3 4 C-3 4.66 -3 5.32 -3 6 C-3.66 6 -4.32 6 -5 6 C-5 6.66 -5 7.32 -5 8 C-6.98 8.66 -8.96 9.32 -11 10 C-11 10.66 -11 11.32 -11 12 C-11.66 12 -12.32 12 -13 12 C-13.33 11.01 -13.66 10.02 -14 9 C-9.38 6.03 -4.76 3.06 0 0 Z " fill="#2A7CEA" transform="translate(187,58)"/>
<path d="M0 0 C0.99 0.33 1.98 0.66 3 1 C1.02 5.95 -0.96 10.9 -3 16 C-3.66 15.67 -4.32 15.34 -5 15 C-5 14.01 -5 13.02 -5 12 C-4.34 12 -3.68 12 -3 12 C-3 10.02 -3 8.04 -3 6 C-2.34 6 -1.68 6 -1 6 C-1.020625 5.195625 -1.04125 4.39125 -1.0625 3.5625 C-1 1 -1 1 0 0 Z " fill="#E8F5F6" transform="translate(35,228)"/>
<path d="M0 0 C1.93137318 3.51922149 2.26919991 5.9620014 2 10 C1.67 10.33 1.34 10.66 1 11 C0.63239269 13.32817964 0.29758419 15.6618385 0 18 C-0.66 17.34 -1.32 16.68 -2 16 C-1.81864449 13.23286597 -1.5356614 10.6080224 -1.125 7.875 C-1.02058594 7.12089844 -0.91617188 6.36679687 -0.80859375 5.58984375 C-0.54895402 3.72515844 -0.27574971 1.86237113 0 0 Z " fill="#4189ED" transform="translate(526,370)"/>
<path d="M0 0 C0.66 0 1.32 0 2 0 C2 1.98 2 3.96 2 6 C-0.31 7.32 -2.62 8.64 -5 10 C-3.66749209 6.4124787 -2.169283 3.1635377 0 0 Z " fill="#2C80EA" transform="translate(60,184)"/>
<path d="M0 0 C0.99 0 1.98 0 3 0 C3.99 3.3 4.98 6.6 6 10 C4.68 9.01 3.36 8.02 2 7 C1.34 6.67 0.68 6.34 0 6 C0 4.02 0 2.04 0 0 Z " fill="#3683ED" transform="translate(704,238)"/>
<path d="M0 0 C-0.99 1.485 -0.99 1.485 -2 3 C-4.1640625 3.29296875 -4.1640625 3.29296875 -6.625 3.1875 C-7.44226563 3.16042969 -8.25953125 3.13335937 -9.1015625 3.10546875 C-10.04128906 3.05326172 -10.04128906 3.05326172 -11 3 C-6.7849044 -0.23157329 -5.27490657 -1.24931998 0 0 Z " fill="#2A7CEF" transform="translate(222,43)"/>
<path d="M0 0 C1.32 0 2.64 0 4 0 C4 0.66 4 1.32 4 2 C4.66 2 5.32 2 6 2 C6 2.66 6 3.32 6 4 C6.66 4 7.32 4 8 4 C8 4.66 8 5.32 8 6 C8.66 6 9.32 6 10 6 C9.67 6.99 9.34 7.98 9 9 C7.49704815 7.69088122 5.99770689 6.37761608 4.5 5.0625 C3.6646875 4.33160156 2.829375 3.60070312 1.96875 2.84765625 C1.3190625 2.23792969 0.669375 1.62820312 0 1 C0 0.67 0 0.34 0 0 Z " fill="#DCEAEC" transform="translate(610,100)"/>
<path d="M0 0 C2.31 0 4.62 0 7 0 C4.51047079 2.66735273 2.36591866 4.55746343 -1 6 C-1.33 5.34 -1.66 4.68 -2 4 C-1.34 4 -0.68 4 0 4 C0 2.68 0 1.36 0 0 Z " fill="#E8F5F0" transform="translate(170,64)"/>
<path d="M0 0 C0.33 0 0.66 0 1 0 C1 2.64 1 5.28 1 8 C-0.98 8.99 -0.98 8.99 -3 10 C-2.69201674 8.51988629 -2.378482 7.04092675 -2.0625 5.5625 C-1.88847656 4.73878906 -1.71445312 3.91507812 -1.53515625 3.06640625 C-1 1 -1 1 0 0 Z " fill="#DDECEF" transform="translate(709,494)"/>
<path d="M0 0 C2.64752004 2.57784846 4.94432065 4.91648098 7 8 C6.67 8.66 6.34 9.32 6 10 C5.34 10 4.68 10 4 10 C4 8.68 4 7.36 4 6 C3.34 6 2.68 6 2 6 C2 5.01 2 4.02 2 3 C1.01 2.67 0.02 2.34 -1 2 C-0.67 1.34 -0.34 0.68 0 0 Z " fill="#2A79EA" transform="translate(634,124)"/>
<path d="M0 0 C2.64 0 5.28 0 8 0 C8 0.99 8 1.98 8 3 C5.36 3 2.72 3 0 3 C0 2.01 0 1.02 0 0 Z " fill="#2C86F9" transform="translate(304,723)"/>
<path d="M0 0 C0.66 0 1.32 0 2 0 C2 1.98 2 3.96 2 6 C0.02 6.99 0.02 6.99 -2 8 C-1.125 2.25 -1.125 2.25 0 0 Z " fill="#EBF3ED" transform="translate(722,452)"/>
<path d="M0 0 C3.79588866 0.54226981 5.47211993 2.20127563 8 5 C7.67 5.99 7.34 6.98 7 8 C5.83035398 6.8572081 4.66435444 5.71068285 3.5 4.5625 C2.8503125 3.92441406 2.200625 3.28632812 1.53125 2.62890625 C0 1 0 1 0 0 Z " fill="#2672F0" transform="translate(112,622)"/>
<path d="M0 0 C2.95183101 2.95183101 3.08663988 5.95511947 4 10 C2.68 9.67 1.36 9.34 0 9 C0 6.03 0 3.06 0 0 Z " fill="#DAE3F1" transform="translate(32,498)"/>
<path d="M0 0 C0.66 0 1.32 0 2 0 C2 0.66 2 1.32 2 2 C2.99 2 3.98 2 5 2 C5 3.98 5 5.96 5 8 C2.20127563 5.47211993 0.54226981 3.79588866 0 0 Z " fill="#2777ED" transform="translate(69,568)"/>
<path d="M0 0 C0.33 0 0.66 0 1 0 C1 2.64 1 5.28 1 8 C-0.32 8.33 -1.64 8.66 -3 9 C-2.01 6.03 -1.02 3.06 0 0 Z " fill="#DEEDF2" transform="translate(705,504)"/>
<path d="M0 0 C2.02054804 1.64169528 4.02043058 3.30911778 6 5 C6 5.33 6 5.66 6 6 C4.02 6 2.04 6 0 6 C0 4.02 0 2.04 0 0 Z " fill="#EBF2F5" transform="translate(130,640)"/>
<path d="M0 0 C0 0.66 0 1.32 0 2 C-0.66 2 -1.32 2 -2 2 C-2 2.66 -2 3.32 -2 4 C-4 5.625 -4 5.625 -6 7 C-6.66 6.67 -7.32 6.34 -8 6 C-3.375 0 -3.375 0 0 0 Z " fill="#E0EBEF" transform="translate(668,578)"/>
<path d="M0 0 C0.99 0 1.98 0 3 0 C3 2.31 3 4.62 3 7 C2.01 7.495 2.01 7.495 1 8 C0.67 5.36 0.34 2.72 0 0 Z " fill="#2679ED" transform="translate(19,283)"/>
<path d="M0 0 C1 3 1 3 1 5 C0.34 5 -0.32 5 -1 5 C-1.66 6.32 -2.32 7.64 -3 9 C-3.66 8.67 -4.32 8.34 -5 8 C-3.35 5.36 -1.7 2.72 0 0 Z " fill="#CFE5EE" transform="translate(677,559)"/>
<path d="M0 0 C0.66 0.66 1.32 1.32 2 2 C1.625 5.125 1.625 5.125 1 8 C0.01 8 -0.98 8 -2 8 C-1.34 5.36 -0.68 2.72 0 0 Z " fill="#EAEFEE" transform="translate(716,472)"/>
<path d="M0 0 C0.66 0.66 1.32 1.32 2 2 C1.625 5.125 1.625 5.125 1 8 C0.01 8 -0.98 8 -2 8 C-1.34 5.36 -0.68 2.72 0 0 Z " fill="#3280F0" transform="translate(30,246)"/>
<path d="M0 0 C-2.22050056 2.22050056 -2.9597814 2.57774742 -6 3 C-8.00946222 2.72949547 -10.01354224 2.40632091 -12 2 C-8.09971775 -0.60018816 -4.52565431 -0.15085514 0 0 Z " fill="#CCE2EE" transform="translate(424,152)"/>
<path d="M0 0 C0.6875 1.8125 0.6875 1.8125 1 4 C-0.4375 5.75 -0.4375 5.75 -2 7 C-2.99 6.67 -3.98 6.34 -5 6 C-3.35 4.02 -1.7 2.04 0 0 Z " fill="#2B78E8" transform="translate(109,120)"/>
<path d="M0 0 C0.66 0 1.32 0 2 0 C2 0.66 2 1.32 2 2 C2.99 2.33 3.98 2.66 5 3 C3.68 3.99 2.36 4.98 1 6 C0 5 0 5 -0.0625 2.4375 C-0.041875 1.633125 -0.02125 0.82875 0 0 Z " fill="#317FF0" transform="translate(352,178)"/>
<path d="M0 0 C2.64 0.33 5.28 0.66 8 1 C7.67 1.66 7.34 2.32 7 3 C4.69 2.67 2.38 2.34 0 2 C0 1.34 0 0.68 0 0 Z " fill="#2A76EB" transform="translate(402,152)"/>
<path d="M0 0 C0.66 0 1.32 0 2 0 C2 0.66 2 1.32 2 2 C2.99 2.33 3.98 2.66 5 3 C4.67 3.99 4.34 4.98 4 6 C2.02 4.68 0.04 3.36 -2 2 C-1.34 1.34 -0.68 0.68 0 0 Z " fill="#E3EDEE" transform="translate(566,64)"/>
</svg>
