 <svg width="44" height="44" viewBox="0 0 44 44" fill="none" xmlns="http://www.w3.org/2000/svg">
<path d="M22 32C27.5228 32 32 27.5228 32 22C32 16.4772 27.5228 12 22 12C16.4772 12 12 16.4772 12 22C12 27.5228 16.4772 32 22 32Z" stroke="white" stroke-width="2" stroke-linecap="round" stroke-linejoin="round"/>
<path d="M22 23C23.6569 23 25 21.6569 25 20C25 18.3431 23.6569 17 22 17C20.3431 17 19 18.3431 19 20C19 21.6569 20.3431 23 22 23Z" stroke="white" stroke-width="2" stroke-linecap="round" stroke-linejoin="round"/>
<path d="M17 30.662V29C17 28.4696 17.2107 27.9609 17.5858 27.5858C17.9609 27.2107 18.4696 27 19 27H25C25.5304 27 26.0391 27.2107 26.4142 27.5858C26.7893 27.9609 27 28.4696 27 29V30.662" stroke="white" stroke-width="2" stroke-linecap="round" stroke-linejoin="round"/>
</svg>
