<svg width="46" height="45" viewBox="0 0 46 45" fill="none" xmlns="http://www.w3.org/2000/svg">
<path d="M37.8886 15H7.88861C6.85308 15 6.01361 15.8395 6.01361 16.875V20.625C6.01361 21.6605 6.85308 22.5 7.88861 22.5H37.8886C38.9241 22.5 39.7636 21.6605 39.7636 20.625V16.875C39.7636 15.8395 38.9241 15 37.8886 15Z" stroke="white" stroke-width="2" stroke-linecap="round" stroke-linejoin="round"/>
<path d="M22.8886 15V39.375" stroke="white" stroke-width="2" stroke-linecap="round" stroke-linejoin="round"/>
<path d="M36.0136 22.5V35.625C36.0136 36.6196 35.6185 37.5734 34.9153 38.2766C34.212 38.9799 33.2582 39.375 32.2636 39.375H13.5136C12.519 39.375 11.5652 38.9799 10.862 38.2766C10.1587 37.5734 9.76361 36.6196 9.76361 35.625V22.5" stroke="white" stroke-width="2" stroke-linecap="round" stroke-linejoin="round"/>
<path d="M14.4511 15C13.2079 15 12.0156 14.5061 11.1365 13.6271C10.2575 12.748 9.76361 11.5557 9.76361 10.3125C9.76361 9.06929 10.2575 7.87701 11.1365 6.99793C12.0156 6.11886 13.2079 5.625 14.4511 5.625C16.2599 5.59348 18.0324 6.47111 19.5375 8.14342C21.0426 9.81574 22.2104 12.2051 22.8886 15C23.5668 12.2051 24.7346 9.81574 26.2397 8.14342C27.7448 6.47111 29.5173 5.59348 31.3261 5.625C32.5693 5.625 33.7616 6.11886 34.6407 6.99793C35.5198 7.87701 36.0136 9.06929 36.0136 10.3125C36.0136 11.5557 35.5198 12.748 34.6407 13.6271C33.7616 14.5061 32.5693 15 31.3261 15" stroke="white" stroke-width="2" stroke-linecap="round" stroke-linejoin="round"/>
</svg>
