<svg width="31" height="30" viewBox="0 0 31 30" fill="none" xmlns="http://www.w3.org/2000/svg">
<path d="M19.25 26.25V16.25C19.25 15.9185 19.1183 15.6005 18.8839 15.3661C18.6495 15.1317 18.3315 15 18 15H13C12.6685 15 12.3505 15.1317 12.1161 15.3661C11.8817 15.6005 11.75 15.9185 11.75 16.25V26.25" stroke="white" stroke-linecap="round" stroke-linejoin="round"/>
<path d="M4.25 12.5001C4.24991 12.1364 4.32917 11.7771 4.48223 11.4472C4.6353 11.1173 4.8585 10.8248 5.13625 10.5901L13.8862 3.09133C14.3375 2.70997 14.9092 2.50073 15.5 2.50073C16.0908 2.50073 16.6625 2.70997 17.1138 3.09133L25.8638 10.5901C26.1415 10.8248 26.3647 11.1173 26.5178 11.4472C26.6708 11.7771 26.7501 12.1364 26.75 12.5001V23.7501C26.75 24.4131 26.4866 25.049 26.0178 25.5178C25.5489 25.9867 24.913 26.2501 24.25 26.2501H6.75C6.08696 26.2501 5.45107 25.9867 4.98223 25.5178C4.51339 25.049 4.25 24.4131 4.25 23.7501V12.5001Z" stroke="white" stroke-linecap="round" stroke-linejoin="round"/>
</svg>
