<svg width="30" height="30" viewBox="0 0 30 30" fill="none" xmlns="http://www.w3.org/2000/svg">
<path d="M3.74 20.4275C3.92379 20.8911 3.96471 21.3992 3.8575 21.8863L2.52625 25.9987C2.48335 26.2073 2.49444 26.4234 2.55846 26.6264C2.62249 26.8295 2.73732 27.0129 2.89208 27.1591C3.04683 27.3053 3.23638 27.4096 3.44274 27.4621C3.64911 27.5145 3.86545 27.5134 4.07125 27.4587L8.3375 26.2112C8.79714 26.1201 9.27316 26.1599 9.71125 26.3263C12.3805 27.5728 15.4042 27.8365 18.2489 27.0709C21.0937 26.3053 23.5766 24.5596 25.2596 22.1417C26.9427 19.7239 27.7177 16.7893 27.4479 13.8557C27.1781 10.9221 25.8809 8.17808 23.7851 6.10774C21.6893 4.0374 18.9296 2.7738 15.993 2.53987C13.0563 2.30594 10.1314 3.11673 7.7343 4.82917C5.33718 6.54162 3.62191 9.04568 2.89111 11.8995C2.16031 14.7534 2.46096 17.7737 3.74 20.4275Z" stroke="white" stroke-width="1.33333" stroke-linecap="round" stroke-linejoin="round"/>
</svg>
