<svg width="32" height="30" viewBox="0 0 32 30" fill="none" xmlns="http://www.w3.org/2000/svg">
<g filter="url(#filter0_d_1494_1710)">
<path d="M29.8886 9.99184C29.8886 18.4448 21.4386 24.9693 17.6682 27.4599C16.5767 28.1808 15.2009 28.1799 14.1101 27.4579C10.3403 24.9625 1.88861 18.4274 1.88861 9.99184C1.88861 8.31449 2.40223 6.67966 3.35673 5.31893C4.31122 3.95819 5.65819 2.94054 7.20684 2.41012C8.75549 1.87969 10.4273 1.86339 11.9855 2.36352C13.5436 2.86365 14.9092 3.85486 15.8886 5.19674C16.8681 3.85486 18.2336 2.86365 19.7918 2.36352C21.3499 1.86339 23.0217 1.87969 24.5704 2.41012C26.119 2.94054 27.466 3.95819 28.4205 5.31893C29.375 6.67966 29.8886 8.31449 29.8886 9.99184Z" fill="white"/>
</g>
<defs>
<filter id="filter0_d_1494_1710" x="0.888611" y="0" width="32" height="32" filterUnits="userSpaceOnUse" color-interpolation-filters="sRGB">
<feFlood flood-opacity="0" result="BackgroundImageFix"/>
<feColorMatrix in="SourceAlpha" type="matrix" values="0 0 0 0 0 0 0 0 0 0 0 0 0 0 0 0 0 0 127 0" result="hardAlpha"/>
<feOffset dx="1" dy="1"/>
<feGaussianBlur stdDeviation="0.5"/>
<feComposite in2="hardAlpha" operator="out"/>
<feColorMatrix type="matrix" values="0 0 0 0 0 0 0 0 0 0 0 0 0 0 0 0 0 0 0.25 0"/>
<feBlend mode="normal" in2="BackgroundImageFix" result="effect1_dropShadow_1494_1710"/>
<feBlend mode="normal" in="SourceGraphic" in2="effect1_dropShadow_1494_1710" result="shape"/>
</filter>
</defs>
</svg>
