<svg width="31" height="30" viewBox="0 0 31 30" fill="none" xmlns="http://www.w3.org/2000/svg">
<path fill-rule="evenodd" clip-rule="evenodd" d="M15.5 0C6.76761 0 0 6.19022 0 14.5505C0 18.9238 1.85252 22.7025 4.86831 25.3132C5.12093 25.5335 5.27374 25.8384 5.28622 26.1673L5.37042 28.8354C5.39849 29.6865 6.30604 30.2388 7.11066 29.8978L10.1857 28.5849C10.4477 28.4732 10.7377 28.4521 11.0122 28.5245C12.4249 28.9018 13.9313 29.101 15.5 29.101C24.2324 29.101 31 22.9108 31 14.5505C31 6.19022 24.2324 0 15.5 0Z" fill="white"/>
<path fill-rule="evenodd" clip-rule="evenodd" d="M6.19266 18.9547L10.7464 11.9745C11.47 10.8653 13.0233 10.588 14.1087 11.3747L17.7298 13.9998C18.0635 14.2409 18.5189 14.2379 18.8495 13.9968L23.7401 10.4102C24.392 9.93101 25.2466 10.6875 24.8068 11.3566L20.2562 18.3338C19.5326 19.443 17.9793 19.7202 16.8939 18.9336L13.2728 16.3085C12.939 16.0674 12.4837 16.0704 12.1531 16.3115L7.25936 19.9011C6.60749 20.3803 5.75288 19.6238 6.19266 18.9547Z" fill="#2D67F6"/>
</svg>
