<svg xmlns="http://www.w3.org/2000/svg" fill="none" viewBox="0 0 50.39999999999999 51.519999999999996" style="max-height: 500px" width="50.39999999999999" height="51.519999999999996">
<circle fill="#EA4359" r="24.5" cy="24.5" cx="24.5"/>
<path fill="white" d="M11.2548 15.6668C10.6784 15.0226 11.1356 14 12 14H37C37.7712 14 38.2521 14.836 37.8645 15.5026L25.3645 37.0026C24.9318 37.7468 23.8235 37.6329 23.5513 36.8162L19.6168 25.0126L11.2548 15.6668ZM21.747 25.0786L24.7485 34.0831L35.2619 16H14.2366L20.7882 23.3224L28.2376 18.9643C28.7143 18.6854 29.3268 18.8458 29.6057 19.3225C29.8846 19.7992 29.7243 20.4117 29.2476 20.6906L21.747 25.0786Z" clip-rule="evenodd" fill-rule="evenodd"/>
<path fill="#4E4F57" d="M4.85303 59.1797L7.40967 65.5605L9.96631 59.1797H11.3037V67H10.2725V63.9546L10.3691 60.6675L7.80176 67H7.01221L4.4502 60.6836L4.55225 63.9546V67H3.521V59.1797H4.85303ZM15.3804 67.1074C14.5926 67.1074 13.9517 66.8496 13.4575 66.334C12.9634 65.8148 12.7163 65.1219 12.7163 64.2554V64.0728C12.7163 63.4963 12.8255 62.9824 13.0439 62.5312C13.266 62.0765 13.5739 61.722 13.9678 61.4678C14.3652 61.21 14.7949 61.0811 15.2568 61.0811C16.0124 61.0811 16.5996 61.3299 17.0186 61.8276C17.4375 62.3254 17.647 63.0379 17.647 63.9653V64.3789H13.71C13.7243 64.9518 13.8908 65.4155 14.2095 65.77C14.5317 66.1209 14.9399 66.2964 15.4341 66.2964C15.785 66.2964 16.0822 66.2248 16.3257 66.0815C16.5692 65.9383 16.7822 65.7485 16.9648 65.5122L17.5718 65.9849C17.0848 66.7332 16.3543 67.1074 15.3804 67.1074ZM15.2568 61.8975C14.8558 61.8975 14.5192 62.0443 14.2471 62.3379C13.9749 62.6279 13.8066 63.0361 13.7422 63.5625H16.6533V63.4873C16.6247 62.9824 16.4886 62.5921 16.2451 62.3164C16.0016 62.0371 15.6722 61.8975 15.2568 61.8975ZM22.1855 65.4585C22.1855 65.1899 22.0835 64.9823 21.8794 64.8354C21.6789 64.6851 21.3262 64.5562 20.8213 64.4487C20.32 64.3413 19.9207 64.2124 19.6235 64.062C19.3299 63.9116 19.1115 63.7326 18.9683 63.5249C18.8286 63.3172 18.7588 63.0701 18.7588 62.7837C18.7588 62.3075 18.9593 61.9046 19.3604 61.5752C19.765 61.2458 20.2806 61.0811 20.9072 61.0811C21.5661 61.0811 22.0996 61.2511 22.5078 61.5913C22.9196 61.9315 23.1255 62.3665 23.1255 62.8965H22.1265C22.1265 62.6243 22.0101 62.3898 21.7773 62.1929C21.5482 61.9959 21.2581 61.8975 20.9072 61.8975C20.5456 61.8975 20.2627 61.9762 20.0586 62.1338C19.8545 62.2913 19.7524 62.4972 19.7524 62.7515C19.7524 62.9914 19.8473 63.1722 20.0371 63.2939C20.2269 63.4157 20.5688 63.5321 21.063 63.6431C21.5607 63.7541 21.9635 63.8866 22.2715 64.0405C22.5794 64.1945 22.8068 64.3807 22.9536 64.5991C23.104 64.814 23.1792 65.0771 23.1792 65.3887C23.1792 65.9079 22.9715 66.325 22.5562 66.6401C22.1408 66.9517 21.6019 67.1074 20.9395 67.1074C20.474 67.1074 20.0622 67.0251 19.7041 66.8604C19.346 66.6956 19.0649 66.4665 18.8608 66.1729C18.6603 65.8757 18.5601 65.5552 18.5601 65.2114H19.5537C19.5716 65.5444 19.7041 65.8094 19.9512 66.0063C20.2018 66.1997 20.5312 66.2964 20.9395 66.2964C21.3154 66.2964 21.6162 66.2212 21.8418 66.0708C22.071 65.9168 22.1855 65.7127 22.1855 65.4585ZM27.8574 65.4585C27.8574 65.1899 27.7554 64.9823 27.5513 64.8354C27.3507 64.6851 26.998 64.5562 26.4932 64.4487C25.9919 64.3413 25.5926 64.2124 25.2954 64.062C25.0018 63.9116 24.7834 63.7326 24.6401 63.5249C24.5005 63.3172 24.4307 63.0701 24.4307 62.7837C24.4307 62.3075 24.6312 61.9046 25.0322 61.5752C25.4368 61.2458 25.9525 61.0811 26.5791 61.0811C27.238 61.0811 27.7715 61.2511 28.1797 61.5913C28.5915 61.9315 28.7974 62.3665 28.7974 62.8965H27.7983C27.7983 62.6243 27.682 62.3898 27.4492 62.1929C27.2201 61.9959 26.93 61.8975 26.5791 61.8975C26.2174 61.8975 25.9346 61.9762 25.7305 62.1338C25.5264 62.2913 25.4243 62.4972 25.4243 62.7515C25.4243 62.9914 25.5192 63.1722 25.709 63.2939C25.8988 63.4157 26.2407 63.5321 26.7349 63.6431C27.2326 63.7541 27.6354 63.8866 27.9434 64.0405C28.2513 64.1945 28.4787 64.3807 28.6255 64.5991C28.7759 64.814 28.8511 65.0771 28.8511 65.3887C28.8511 65.9079 28.6434 66.325 28.228 66.6401C27.8127 66.9517 27.2738 67.1074 26.6113 67.1074C26.1458 67.1074 25.734 67.0251 25.376 66.8604C25.0179 66.6956 24.7368 66.4665 24.5327 66.1729C24.3322 65.8757 24.2319 65.5552 24.2319 65.2114H25.2256C25.2435 65.5444 25.376 65.8094 25.623 66.0063C25.8737 66.1997 26.2031 66.2964 26.6113 66.2964C26.9873 66.2964 27.2881 66.2212 27.5137 66.0708C27.7428 65.9168 27.8574 65.7127 27.8574 65.4585ZM33.7334 67C33.6761 66.8854 33.6296 66.6813 33.5938 66.3877C33.1318 66.8675 32.5804 67.1074 31.9395 67.1074C31.3665 67.1074 30.8957 66.9463 30.5269 66.624C30.1616 66.2982 29.979 65.8864 29.979 65.3887C29.979 64.7835 30.2082 64.3145 30.6665 63.9814C31.1284 63.6449 31.7765 63.4766 32.6108 63.4766H33.5776V63.02C33.5776 62.6727 33.4738 62.397 33.2661 62.1929C33.0584 61.9852 32.7523 61.8813 32.3477 61.8813C31.9932 61.8813 31.696 61.9709 31.4561 62.1499C31.2161 62.3289 31.0962 62.5456 31.0962 62.7998H30.0972C30.0972 62.5098 30.1992 62.2305 30.4033 61.9619C30.611 61.6898 30.8903 61.4749 31.2412 61.3174C31.5957 61.1598 31.9842 61.0811 32.4067 61.0811C33.0763 61.0811 33.6009 61.2493 33.9805 61.5859C34.36 61.9189 34.557 62.3791 34.5713 62.9663V65.6411C34.5713 66.1746 34.6393 66.599 34.7754 66.9141V67H33.7334ZM32.0845 66.2427C32.396 66.2427 32.6914 66.1621 32.9707 66.001C33.25 65.8398 33.4523 65.6304 33.5776 65.3726V64.1802H32.7988C31.5814 64.1802 30.9727 64.5365 30.9727 65.249C30.9727 65.5605 31.0765 65.804 31.2842 65.9795C31.4919 66.1549 31.7586 66.2427 32.0845 66.2427ZM35.8926 64.0459C35.8926 63.14 36.1021 62.4202 36.521 61.8867C36.9399 61.3496 37.495 61.0811 38.186 61.0811C38.895 61.0811 39.4482 61.3317 39.8457 61.833L39.894 61.1885H40.8018V66.8604C40.8018 67.6123 40.578 68.2049 40.1304 68.6382C39.6864 69.0715 39.0884 69.2881 38.3364 69.2881C37.9175 69.2881 37.5075 69.1986 37.1064 69.0195C36.7054 68.8405 36.3993 68.5952 36.188 68.2837L36.7036 67.6875C37.1297 68.2139 37.6507 68.4771 38.2666 68.4771C38.75 68.4771 39.126 68.341 39.3945 68.0688C39.6667 67.7967 39.8027 67.4136 39.8027 66.9194V66.4199C39.4053 66.8783 38.8628 67.1074 38.1753 67.1074C37.495 67.1074 36.9435 66.8335 36.521 66.2856C36.1021 65.7378 35.8926 64.9912 35.8926 64.0459ZM36.8916 64.1587C36.8916 64.814 37.0259 65.3296 37.2944 65.7056C37.563 66.078 37.939 66.2642 38.4224 66.2642C39.049 66.2642 39.5091 65.9795 39.8027 65.4102V62.7568C39.4984 62.2018 39.0418 61.9243 38.4331 61.9243C37.9497 61.9243 37.5719 62.1123 37.2998 62.4883C37.0277 62.8643 36.8916 63.4211 36.8916 64.1587ZM44.7173 67.1074C43.9295 67.1074 43.2886 66.8496 42.7944 66.334C42.3003 65.8148 42.0532 65.1219 42.0532 64.2554V64.0728C42.0532 63.4963 42.1624 62.9824 42.3809 62.5312C42.6029 62.0765 42.9108 61.722 43.3047 61.4678C43.7021 61.21 44.1318 61.0811 44.5938 61.0811C45.3493 61.0811 45.9365 61.3299 46.3555 61.8276C46.7744 62.3254 46.9839 63.0379 46.9839 63.9653V64.3789H43.0469C43.0612 64.9518 43.2277 65.4155 43.5464 65.77C43.8687 66.1209 44.2769 66.2964 44.771 66.2964C45.1219 66.2964 45.4191 66.2248 45.6626 66.0815C45.9061 65.9383 46.1191 65.7485 46.3018 65.5122L46.9087 65.9849C46.4217 66.7332 45.6912 67.1074 44.7173 67.1074ZM44.5938 61.8975C44.1927 61.8975 43.8561 62.0443 43.584 62.3379C43.3118 62.6279 43.1436 63.0361 43.0791 63.5625H45.9902V63.4873C45.9616 62.9824 45.8255 62.5921 45.582 62.3164C45.3385 62.0371 45.0091 61.8975 44.5938 61.8975Z"/>
</svg>