<svg width="55" height="55" viewBox="0 0 55 55" fill="none" xmlns="http://www.w3.org/2000/svg">
<path d="M20.625 20.6319C20.6238 20.2252 20.7308 19.8255 20.9351 19.4738C21.1394 19.1221 21.4336 18.8312 21.7875 18.6308C22.1414 18.4304 22.5422 18.3278 22.9489 18.3335C23.3555 18.3392 23.7533 18.4531 24.1015 18.6633L35.5529 25.5314C35.8938 25.7346 36.1761 26.0229 36.3722 26.368C36.5682 26.713 36.6713 27.1031 36.6713 27.5C36.6713 27.8969 36.5682 28.2869 36.3722 28.632C36.1761 28.9771 35.8938 29.2653 35.5529 29.4685L24.1015 36.3367C23.7532 36.547 23.3552 36.6609 22.9483 36.6665C22.5414 36.6721 22.1404 36.5693 21.7865 36.3686C21.4325 36.168 21.1383 35.8767 20.9342 35.5247C20.7301 35.1727 20.6234 34.7727 20.625 34.3658V20.6319Z" stroke="#F2F2F2" stroke-width="2" stroke-linecap="round" stroke-linejoin="round"/>
<path d="M27.5 50.4167C40.1565 50.4167 50.4167 40.1565 50.4167 27.5C50.4167 14.8435 40.1565 4.58334 27.5 4.58334C14.8435 4.58334 4.58333 14.8435 4.58333 27.5C4.58333 40.1565 14.8435 50.4167 27.5 50.4167Z" stroke="#F2F2F2" stroke-width="2" stroke-linecap="round" stroke-linejoin="round"/>
</svg>
