<svg width="25" height="24" viewBox="0 0 25 24" fill="none" xmlns="http://www.w3.org/2000/svg">
<path d="M7.21666 3H4.19635C3.64032 3 3.18958 3.44772 3.18958 4V7C3.18958 7.55228 3.64032 8 4.19635 8H7.21666C7.77269 8 8.22344 7.55228 8.22344 7V4C8.22344 3.44772 7.77269 3 7.21666 3Z" stroke="black" stroke-width="2" stroke-linecap="round" stroke-linejoin="round"/>
<path d="M20.3048 3H17.2845C16.7285 3 16.2777 3.44772 16.2777 4V7C16.2777 7.55228 16.7285 8 17.2845 8H20.3048C20.8608 8 21.3116 7.55228 21.3116 7V4C21.3116 3.44772 20.8608 3 20.3048 3Z" stroke="black" stroke-width="2" stroke-linecap="round" stroke-linejoin="round"/>
<path d="M7.21666 16H4.19635C3.64032 16 3.18958 16.4477 3.18958 17V20C3.18958 20.5523 3.64032 21 4.19635 21H7.21666C7.77269 21 8.22344 20.5523 8.22344 20V17C8.22344 16.4477 7.77269 16 7.21666 16Z" stroke="black" stroke-width="2" stroke-linecap="round" stroke-linejoin="round"/>
<path d="M21.3116 16H18.2913C17.7572 16 17.2451 16.2107 16.8675 16.5858C16.4899 16.9609 16.2777 17.4696 16.2777 18V21" stroke="black" stroke-width="2" stroke-linecap="round" stroke-linejoin="round"/>
<path d="M21.3115 21V21.01" stroke="black" stroke-width="2" stroke-linecap="round" stroke-linejoin="round"/>
<path d="M12.2505 7V10C12.2505 10.5304 12.0384 11.0391 11.6608 11.4142C11.2832 11.7893 10.771 12 10.237 12H7.21667" stroke="black" stroke-width="2" stroke-linecap="round" stroke-linejoin="round"/>
<path d="M3.18958 12H3.19958" stroke="black" stroke-width="2" stroke-linecap="round" stroke-linejoin="round"/>
<path d="M12.2506 3H12.2606" stroke="black" stroke-width="2" stroke-linecap="round" stroke-linejoin="round"/>
<path d="M12.2506 16V16.01" stroke="black" stroke-width="2" stroke-linecap="round" stroke-linejoin="round"/>
<path d="M16.2777 12H17.2845" stroke="black" stroke-width="2" stroke-linecap="round" stroke-linejoin="round"/>
<path d="M21.3115 12V12.01" stroke="black" stroke-width="2" stroke-linecap="round" stroke-linejoin="round"/>
<path d="M12.2506 21V20" stroke="black" stroke-width="2" stroke-linecap="round" stroke-linejoin="round"/>
</svg>
