<svg width="24" height="24" viewBox="0 0 24 24" fill="none" xmlns="http://www.w3.org/2000/svg">
<path d="M14.5358 21.6885C14.5738 21.7832 14.6398 21.864 14.7251 21.92C14.8103 21.9761 14.9107 22.0048 15.0126 22.0021C15.1146 21.9995 15.2134 21.9658 15.2956 21.9054C15.3779 21.8451 15.4397 21.761 15.4728 21.6645L21.9728 2.6645C22.0048 2.57589 22.0109 2.48 21.9904 2.38805C21.9699 2.2961 21.9236 2.21189 21.857 2.14528C21.7904 2.07866 21.7062 2.03239 21.6143 2.01189C21.5223 1.99139 21.4264 1.99749 21.3378 2.0295L2.33781 8.5295C2.2413 8.56259 2.15723 8.62442 2.09688 8.70667C2.03652 8.78892 2.00278 8.88767 2.00016 8.98966C1.99755 9.09164 2.0262 9.19199 2.08226 9.27722C2.13833 9.36246 2.21912 9.42851 2.31381 9.4665L10.2438 12.6465C10.4945 12.7469 10.7223 12.897 10.9134 13.0877C11.1045 13.2785 11.255 13.506 11.3558 13.7565L14.5358 21.6885Z" stroke="white" stroke-width="2" stroke-linecap="round" stroke-linejoin="round"/>
<path d="M21.8539 2.147L10.9139 13.0871" stroke="white" stroke-width="2" stroke-linecap="round" stroke-linejoin="round"/>
</svg>
