<svg width="16" height="18" viewBox="0 0 16 18" fill="none" xmlns="http://www.w3.org/2000/svg">
<path fill-rule="evenodd" clip-rule="evenodd" d="M10.3505 1.24137C9.84346 0.806787 9.08441 0.84746 8.62674 1.33373L1.08975 9.34178C0.871519 9.57365 0.75 9.88007 0.75 10.1985V12.5002C0.75 13.1906 1.30964 13.7502 2 13.7502H4.29289C4.62441 13.7502 4.94236 13.6185 5.17678 13.3841L13.1485 5.41232C13.6634 4.89745 13.631 4.05323 13.0781 3.57937L10.3505 1.24137ZM2.25 10.2976L9.55548 2.53556L11.897 4.54256L4.18934 12.2502H2.25V10.2976Z" fill="#86878B"/>
<path d="M1.5 16.2502C1.08579 16.2502 0.75 16.586 0.75 17.0002C0.75 17.4144 1.08579 17.7502 1.5 17.7502H15C15.4142 17.7502 15.75 17.4144 15.75 17.0002C15.75 16.586 15.4142 16.2502 15 16.2502H1.5Z" fill="#86878B"/>
</svg>
