<svg width="25" height="24" viewBox="0 0 25 24" fill="none" xmlns="http://www.w3.org/2000/svg">
<path d="M9.90576 4.13615C9.96123 3.55649 10.2323 3.0182 10.666 2.62643C11.0997 2.23467 11.6648 2.01758 12.251 2.01758C12.8373 2.01758 13.4024 2.23467 13.8361 2.62643C14.2698 3.0182 14.5408 3.55649 14.5963 4.13615C14.6297 4.51061 14.7533 4.87157 14.9569 5.18849C15.1604 5.50541 15.4378 5.76896 15.7656 5.95683C16.0935 6.1447 16.462 6.25135 16.8401 6.26777C17.2182 6.28419 17.5947 6.20989 17.9378 6.05115C18.4705 5.81093 19.0741 5.77617 19.6312 5.95364C20.1883 6.1311 20.6589 6.5081 20.9516 7.01126C21.2442 7.51441 21.338 8.10772 21.2145 8.67572C21.091 9.24372 20.7592 9.74577 20.2836 10.0842C19.9739 10.3 19.7211 10.5868 19.5465 10.9202C19.372 11.2536 19.2809 11.6239 19.2809 11.9997C19.2809 12.3754 19.372 12.7457 19.5465 13.0791C19.7211 13.4125 19.9739 13.6993 20.2836 13.9152C20.7592 14.2535 21.091 14.7556 21.2145 15.3236C21.338 15.8916 21.2442 16.4849 20.9516 16.988C20.6589 17.4912 20.1883 17.8682 19.6312 18.0457C19.0741 18.2231 18.4705 18.1884 17.9378 17.9482C17.5947 17.7894 17.2182 17.7151 16.8401 17.7315C16.462 17.7479 16.0935 17.8546 15.7656 18.0425C15.4378 18.2303 15.1604 18.4939 14.9569 18.8108C14.7533 19.1277 14.6297 19.4887 14.5963 19.8632C14.5408 20.4428 14.2698 20.9811 13.8361 21.3729C13.4024 21.7646 12.8373 21.9817 12.251 21.9817C11.6648 21.9817 11.0997 21.7646 10.666 21.3729C10.2323 20.9811 9.96123 20.4428 9.90576 19.8632C9.87248 19.4886 9.7488 19.1275 9.5452 18.8104C9.3416 18.4934 9.06407 18.2298 8.73613 18.0419C8.40818 17.854 8.03948 17.7474 7.66124 17.7311C7.28301 17.7147 6.90639 17.7892 6.56328 17.9482C6.03058 18.1884 5.42696 18.2231 4.86989 18.0457C4.31281 17.8682 3.84215 17.4912 3.54949 16.988C3.25683 16.4849 3.16312 15.8916 3.2866 15.3236C3.41007 14.7556 3.7419 14.2535 4.2175 13.9152C4.5272 13.6993 4.78001 13.4125 4.95455 13.0791C5.12908 12.7457 5.2202 12.3754 5.2202 11.9997C5.2202 11.6239 5.12908 11.2536 4.95455 10.9202C4.78001 10.5868 4.5272 10.3 4.2175 10.0842C3.74257 9.7456 3.41133 9.24375 3.28815 8.67613C3.16497 8.10852 3.25866 7.51569 3.551 7.01286C3.84334 6.51004 4.31346 6.13313 4.86998 5.95539C5.4265 5.77766 6.02967 5.81179 6.56227 6.05115C6.90534 6.20989 7.28186 6.28419 7.65996 6.26777C8.03806 6.25135 8.40661 6.1447 8.73442 5.95683C9.06223 5.76896 9.33965 5.50541 9.54319 5.18849C9.74673 4.87157 9.87041 4.51061 9.90375 4.13615" stroke="black" stroke-width="2" stroke-linecap="round" stroke-linejoin="round"/>
<path d="M12.2505 15C13.9186 15 15.2709 13.6569 15.2709 12C15.2709 10.3431 13.9186 9 12.2505 9C10.5825 9 9.23022 10.3431 9.23022 12C9.23022 13.6569 10.5825 15 12.2505 15Z" stroke="black" stroke-width="2" stroke-linecap="round" stroke-linejoin="round"/>
</svg>
