<?xml version="1.0" encoding="UTF-8"?>
<svg version="1.1" xmlns="http://www.w3.org/2000/svg" width="740" height="740">
<path d="M0 0 C244.2 0 488.4 0 740 0 C740 244.2 740 488.4 740 740 C495.8 740 251.6 740 0 740 C0 495.8 0 251.6 0 0 Z " fill="#F6F3F4" transform="translate(0,0)"/>
<path d="M0 0 C4.80549747 -0.02468447 9.61095818 -0.04285255 14.41650391 -0.05493164 C16.05192711 -0.05996621 17.6873458 -0.06679427 19.32275391 -0.07543945 C21.67090975 -0.08754335 24.01900619 -0.093237 26.3671875 -0.09765625 C27.10057343 -0.10281754 27.83395935 -0.10797882 28.58956909 -0.11329651 C33.77225659 -0.11387171 33.77225659 -0.11387171 36 1 C38.37123246 1.23029956 40.74741943 1.41119942 43.125 1.5625 C44.40632812 1.64628906 45.68765625 1.73007813 47.0078125 1.81640625 C48.48894531 1.90728516 48.48894531 1.90728516 50 2 C50 2.66 50 3.32 50 4 C53.96 4 57.92 4 62 4 C62 4.66 62 5.32 62 6 C63.98 6 65.96 6 68 6 C68 6.66 68 7.32 68 8 C69.98 8 71.96 8 74 8 C74 8.66 74 9.32 74 10 C76.64 10 79.28 10 82 10 C82 10.66 82 11.32 82 12 C83.32 12 84.64 12 86 12 C86 12.66 86 13.32 86 14 C87.98 14 89.96 14 92 14 C92 14.66 92 15.32 92 16 C93.32 16 94.64 16 96 16 C96 16.66 96 17.32 96 18 C97.32 18 98.64 18 100 18 C100 18.66 100 19.32 100 20 C101.32 20 102.64 20 104 20 C104 20.66 104 21.32 104 22 C105.32 22 106.64 22 108 22 C108 22.66 108 23.32 108 24 C109.32 24 110.64 24 112 24 C112 24.66 112 25.32 112 26 C113.32 26 114.64 26 116 26 C116 26.66 116 27.32 116 28 C116.66 28 117.32 28 118 28 C118 28.66 118 29.32 118 30 C119.32 30 120.64 30 122 30 C122 30.66 122 31.32 122 32 C122.66 32 123.32 32 124 32 C124 32.66 124 33.32 124 34 C125.32 34 126.64 34 128 34 C128 34.66 128 35.32 128 36 C128.66 36 129.32 36 130 36 C130 36.66 130 37.32 130 38 C130.66 38 131.32 38 132 38 C132 38.66 132 39.32 132 40 C133.32 40 134.64 40 136 40 C136 40.66 136 41.32 136 42 C136.66 42 137.32 42 138 42 C138 42.66 138 43.32 138 44 C138.66 44 139.32 44 140 44 C140 44.66 140 45.32 140 46 C140.66 46 141.32 46 142 46 C142 46.66 142 47.32 142 48 C142.66 48 143.32 48 144 48 C144 48.66 144 49.32 144 50 C144.66 50 145.32 50 146 50 C146 50.66 146 51.32 146 52 C146.66 52 147.32 52 148 52 C148 52.66 148 53.32 148 54 C148.66 54 149.32 54 150 54 C150 54.66 150 55.32 150 56 C150.66 56 151.32 56 152 56 C152 56.66 152 57.32 152 58 C152.66 58 153.32 58 154 58 C154 58.66 154 59.32 154 60 C154.66 60 155.32 60 156 60 C156 60.66 156 61.32 156 62 C156.66 62 157.32 62 158 62 C158 62.66 158 63.32 158 64 C158.66 64 159.32 64 160 64 C160 64.66 160 65.32 160 66 C160.66 66 161.32 66 162 66 C162 66.66 162 67.32 162 68 C162.66 68 163.32 68 164 68 C164 68.66 164 69.32 164 70 C164.66 70 165.32 70 166 70 C166 71.32 166 72.64 166 74 C166.66 74 167.32 74 168 74 C168 74.66 168 75.32 168 76 C168.66 76 169.32 76 170 76 C170 76.66 170 77.32 170 78 C170.66 78 171.32 78 172 78 C172 79.32 172 80.64 172 82 C172.66 82 173.32 82 174 82 C174 82.66 174 83.32 174 84 C174.66 84 175.32 84 176 84 C176 85.32 176 86.64 176 88 C176.66 88 177.32 88 178 88 C178 89.32 178 90.64 178 92 C178.66 92 179.32 92 180 92 C180 92.66 180 93.32 180 94 C180.66 94 181.32 94 182 94 C182 95.32 182 96.64 182 98 C182.66 98 183.32 98 184 98 C184 99.32 184 100.64 184 102 C184.66 102 185.32 102 186 102 C186 103.32 186 104.64 186 106 C186.66 106 187.32 106 188 106 C188 107.32 188 108.64 188 110 C188.66 110 189.32 110 190 110 C190 111.32 190 112.64 190 114 C190.66 114 191.32 114 192 114 C192 115.98 192 117.96 192 120 C192.66 120 193.32 120 194 120 C194 121.98 194 123.96 194 126 C194.66 126 195.32 126 196 126 C196 127.98 196 129.96 196 132 C196.66 132 197.32 132 198 132 C198 133.98 198 135.96 198 138 C198.66 138 199.32 138 200 138 C200 140.64 200 143.28 200 146 C200.66 146 201.32 146 202 146 C202.06058594 146.84304688 202.12117188 147.68609375 202.18359375 148.5546875 C202.30927734 150.19824219 202.30927734 150.19824219 202.4375 151.875 C202.51871094 152.96554687 202.59992188 154.05609375 202.68359375 155.1796875 C202.83001703 157.94728971 202.83001703 157.94728971 204 160 C204.09061856 161.72606453 204.11754501 163.45564507 204.11352539 165.18408203 C204.11344986 166.26505157 204.11337433 167.34602112 204.11329651 168.45974731 C204.10813522 169.63060883 204.10297394 170.80147034 204.09765625 172.0078125 C204.09553383 173.8014473 204.09553383 173.8014473 204.09336853 175.63131714 C204.08775663 179.46256987 204.07520208 183.29376484 204.0625 187.125 C204.05748653 189.71744707 204.05292336 192.30989506 204.04882812 194.90234375 C204.03778333 201.26824898 204.02103359 207.63412037 204 214 C203.34 214 202.68 214 202 214 C202 216.64 202 219.28 202 222 C201.34 222 200.68 222 200 222 C200 225.3 200 228.6 200 232 C199.34 232 198.68 232 198 232 C198 233.98 198 235.96 198 238 C197.34 238 196.68 238 196 238 C196 240.64 196 243.28 196 246 C195.34 246 194.68 246 194 246 C194 247.32 194 248.64 194 250 C193.34 250 192.68 250 192 250 C192 251.98 192 253.96 192 256 C191.34 256 190.68 256 190 256 C190 257.98 190 259.96 190 262 C189.34 262 188.68 262 188 262 C188 262.66 188 263.32 188 264 C187.34 264 186.68 264 186 264 C186 265.98 186 267.96 186 270 C185.34 270 184.68 270 184 270 C184 271.32 184 272.64 184 274 C183.34 274 182.68 274 182 274 C182 274.66 182 275.32 182 276 C181.34 276 180.68 276 180 276 C180 277.32 180 278.64 180 280 C179.34 280 178.68 280 178 280 C178 281.32 178 282.64 178 284 C177.34 284 176.68 284 176 284 C176 284.66 176 285.32 176 286 C175.34 286 174.68 286 174 286 C174 287.32 174 288.64 174 290 C173.34 290 172.68 290 172 290 C172 290.66 172 291.32 172 292 C171.34 292 170.68 292 170 292 C170 293.32 170 294.64 170 296 C169.34 296 168.68 296 168 296 C168 296.66 168 297.32 168 298 C167.34 298 166.68 298 166 298 C166 298.66 166 299.32 166 300 C165.34 300 164.68 300 164 300 C164 300.66 164 301.32 164 302 C163.34 302 162.68 302 162 302 C162 303.32 162 304.64 162 306 C161.34 306 160.68 306 160 306 C160 306.66 160 307.32 160 308 C159.34 308 158.68 308 158 308 C158 308.66 158 309.32 158 310 C157.34 310 156.68 310 156 310 C156 310.66 156 311.32 156 312 C155.34 312 154.68 312 154 312 C154 312.66 154 313.32 154 314 C153.34 314 152.68 314 152 314 C152 314.66 152 315.32 152 316 C151.34 316 150.68 316 150 316 C150 316.66 150 317.32 150 318 C149.34 318 148.68 318 148 318 C148 318.66 148 319.32 148 320 C147.34 320 146.68 320 146 320 C146 320.66 146 321.32 146 322 C145.34 322 144.68 322 144 322 C144 322.66 144 323.32 144 324 C143.34 324 142.68 324 142 324 C142 324.66 142 325.32 142 326 C140.68 326 139.36 326 138 326 C138 326.66 138 327.32 138 328 C137.34 328 136.68 328 136 328 C136 328.66 136 329.32 136 330 C135.34 330 134.68 330 134 330 C134 330.66 134 331.32 134 332 C133.34 332 132.68 332 132 332 C132 332.66 132 333.32 132 334 C130.68 334 129.36 334 128 334 C128 334.66 128 335.32 128 336 C127.34 336 126.68 336 126 336 C126 336.66 126 337.32 126 338 C125.34 338 124.68 338 124 338 C124 338.66 124 339.32 124 340 C122.68 340 121.36 340 120 340 C120 340.66 120 341.32 120 342 C119.34 342 118.68 342 118 342 C118 342.66 118 343.32 118 344 C116.68 344 115.36 344 114 344 C114 344.66 114 345.32 114 346 C112.68 346 111.36 346 110 346 C110 346.66 110 347.32 110 348 C108.68 348 107.36 348 106 348 C106 348.66 106 349.32 106 350 C104.68 350 103.36 350 102 350 C102 350.66 102 351.32 102 352 C100.68 352 99.36 352 98 352 C98 352.66 98 353.32 98 354 C96.68 354 95.36 354 94 354 C94 354.66 94 355.32 94 356 C92.02 356 90.04 356 88 356 C88 356.66 88 357.32 88 358 C86.68 358 85.36 358 84 358 C84 358.66 84 359.32 84 360 C82.02 360 80.04 360 78 360 C78 360.66 78 361.32 78 362 C76.02 362 74.04 362 72 362 C72 362.66 72 363.32 72 364 C69.36 364 66.72 364 64 364 C64 364.66 64 365.32 64 366 C60.7 366 57.4 366 54 366 C54 366.66 54 367.32 54 368 C49.38 368 44.76 368 40 368 C40 368.66 40 369.32 40 370 C26.14 370 12.28 370 -2 370 C-2 369.34 -2 368.68 -2 368 C-5.96 368 -9.92 368 -14 368 C-14 367.34 -14 366.68 -14 366 C-17.96 366 -21.92 366 -26 366 C-26 365.34 -26 364.68 -26 364 C-27.98 364 -29.96 364 -32 364 C-32 363.34 -32 362.68 -32 362 C-33.98 362 -35.96 362 -38 362 C-38 361.34 -38 360.68 -38 360 C-39.98 360 -41.96 360 -44 360 C-44 359.34 -44 358.68 -44 358 C-45.98 358 -47.96 358 -50 358 C-50 357.34 -50 356.68 -50 356 C-51.32 356 -52.64 356 -54 356 C-54 355.34 -54 354.68 -54 354 C-55.32 354 -56.64 354 -58 354 C-58 353.34 -58 352.68 -58 352 C-59.32 352 -60.64 352 -62 352 C-62 351.34 -62 350.68 -62 350 C-63.32 350 -64.64 350 -66 350 C-66 349.34 -66 348.68 -66 348 C-67.32 348 -68.64 348 -70 348 C-70 347.34 -70 346.68 -70 346 C-71.32 346 -72.64 346 -74 346 C-74 345.34 -74 344.68 -74 344 C-74.66 344 -75.32 344 -76 344 C-76 343.34 -76 342.68 -76 342 C-77.32 342 -78.64 342 -80 342 C-80 341.34 -80 340.68 -80 340 C-81.32 340 -82.64 340 -84 340 C-84 339.34 -84 338.68 -84 338 C-84.66 338 -85.32 338 -86 338 C-86 337.34 -86 336.68 -86 336 C-86.66 336 -87.32 336 -88 336 C-88 335.34 -88 334.68 -88 334 C-89.32 334 -90.64 334 -92 334 C-92 333.34 -92 332.68 -92 332 C-92.66 332 -93.32 332 -94 332 C-94 331.34 -94 330.68 -94 330 C-94.66 330 -95.32 330 -96 330 C-96 329.34 -96 328.68 -96 328 C-96.66 328 -97.32 328 -98 328 C-98 327.34 -98 326.68 -98 326 C-99.32 326 -100.64 326 -102 326 C-102 325.34 -102 324.68 -102 324 C-102.66 324 -103.32 324 -104 324 C-104 323.34 -104 322.68 -104 322 C-104.66 322 -105.32 322 -106 322 C-106 321.34 -106 320.68 -106 320 C-106.66 320 -107.32 320 -108 320 C-108 319.34 -108 318.68 -108 318 C-108.66 318 -109.32 318 -110 318 C-110 317.34 -110 316.68 -110 316 C-110.66 316 -111.32 316 -112 316 C-112 315.34 -112 314.68 -112 314 C-112.66 314 -113.32 314 -114 314 C-114 313.34 -114 312.68 -114 312 C-114.66 312 -115.32 312 -116 312 C-116 311.34 -116 310.68 -116 310 C-116.66 310 -117.32 310 -118 310 C-118 309.34 -118 308.68 -118 308 C-118.66 308 -119.32 308 -120 308 C-120 306.68 -120 305.36 -120 304 C-120.66 304 -121.32 304 -122 304 C-122 303.34 -122 302.68 -122 302 C-122.66 302 -123.32 302 -124 302 C-124 301.34 -124 300.68 -124 300 C-124.66 300 -125.32 300 -126 300 C-126 299.34 -126 298.68 -126 298 C-126.66 298 -127.32 298 -128 298 C-128 296.68 -128 295.36 -128 294 C-128.66 294 -129.32 294 -130 294 C-130 293.34 -130 292.68 -130 292 C-130.66 292 -131.32 292 -132 292 C-132 291.34 -132 290.68 -132 290 C-132.66 290 -133.32 290 -134 290 C-134 288.68 -134 287.36 -134 286 C-134.66 286 -135.32 286 -136 286 C-136 285.34 -136 284.68 -136 284 C-136.66 284 -137.32 284 -138 284 C-138 282.68 -138 281.36 -138 280 C-138.66 280 -139.32 280 -140 280 C-140 278.68 -140 277.36 -140 276 C-140.66 276 -141.32 276 -142 276 C-142 274.68 -142 273.36 -142 272 C-142.66 272 -143.32 272 -144 272 C-144 270.68 -144 269.36 -144 268 C-144.66 268 -145.32 268 -146 268 C-146 266.68 -146 265.36 -146 264 C-146.66 264 -147.32 264 -148 264 C-148 263.34 -148 262.68 -148 262 C-148.66 262 -149.32 262 -150 262 C-150 260.02 -150 258.04 -150 256 C-150.66 256 -151.32 256 -152 256 C-152 254.02 -152 252.04 -152 250 C-152.66 250 -153.32 250 -154 250 C-154 248.02 -154 246.04 -154 244 C-154.66 244 -155.32 244 -156 244 C-156 242.02 -156 240.04 -156 238 C-156.66 238 -157.32 238 -158 238 C-158 235.36 -158 232.72 -158 230 C-158.66 230 -159.32 230 -160 230 C-160 227.36 -160 224.72 -160 222 C-160.66 222 -161.32 222 -162 222 C-162 218.7 -162 215.4 -162 212 C-162.66 212 -163.32 212 -164 212 C-164 194.84 -164 177.68 -164 160 C-163.34 160 -162.68 160 -162 160 C-162 156.7 -162 153.4 -162 150 C-161.34 150 -160.68 150 -160 150 C-160 146.04 -160 142.08 -160 138 C-159.34 138 -158.68 138 -158 138 C-158 136.02 -158 134.04 -158 132 C-157.34 132 -156.68 132 -156 132 C-156 130.02 -156 128.04 -156 126 C-155.34 126 -154.68 126 -154 126 C-154 124.02 -154 122.04 -154 120 C-153.34 120 -152.68 120 -152 120 C-152 118.68 -152 117.36 -152 116 C-151.34 116 -150.68 116 -150 116 C-150 114.02 -150 112.04 -150 110 C-149.34 110 -148.68 110 -148 110 C-148 108.68 -148 107.36 -148 106 C-147.34 106 -146.68 106 -146 106 C-146 104.68 -146 103.36 -146 102 C-145.34 102 -144.68 102 -144 102 C-144 100.68 -144 99.36 -144 98 C-143.34 98 -142.68 98 -142 98 C-142 96.68 -142 95.36 -142 94 C-141.34 94 -140.68 94 -140 94 C-140 93.34 -140 92.68 -140 92 C-139.34 92 -138.68 92 -138 92 C-138 90.68 -138 89.36 -138 88 C-137.34 88 -136.68 88 -136 88 C-136 86.68 -136 85.36 -136 84 C-135.34 84 -134.68 84 -134 84 C-134 83.34 -134 82.68 -134 82 C-133.34 82 -132.68 82 -132 82 C-132 80.68 -132 79.36 -132 78 C-131.34 78 -130.68 78 -130 78 C-130 77.34 -130 76.68 -130 76 C-129.34 76 -128.68 76 -128 76 C-128 75.34 -128 74.68 -128 74 C-127.34 74 -126.68 74 -126 74 C-126 72.68 -126 71.36 -126 70 C-125.34 70 -124.68 70 -124 70 C-124 69.34 -124 68.68 -124 68 C-123.34 68 -122.68 68 -122 68 C-122 67.34 -122 66.68 -122 66 C-121.34 66 -120.68 66 -120 66 C-120 65.34 -120 64.68 -120 64 C-119.34 64 -118.68 64 -118 64 C-118 63.34 -118 62.68 -118 62 C-117.34 62 -116.68 62 -116 62 C-116 61.34 -116 60.68 -116 60 C-115.34 60 -114.68 60 -114 60 C-114 59.34 -114 58.68 -114 58 C-113.34 58 -112.68 58 -112 58 C-112 57.34 -112 56.68 -112 56 C-111.34 56 -110.68 56 -110 56 C-110 55.34 -110 54.68 -110 54 C-109.34 54 -108.68 54 -108 54 C-108 53.34 -108 52.68 -108 52 C-107.34 52 -106.68 52 -106 52 C-106 51.34 -106 50.68 -106 50 C-105.34 50 -104.68 50 -104 50 C-104 49.34 -104 48.68 -104 48 C-103.34 48 -102.68 48 -102 48 C-102 47.34 -102 46.68 -102 46 C-101.34 46 -100.68 46 -100 46 C-100 45.34 -100 44.68 -100 44 C-99.34 44 -98.68 44 -98 44 C-98 43.34 -98 42.68 -98 42 C-97.34 42 -96.68 42 -96 42 C-96 41.34 -96 40.68 -96 40 C-94.68 40 -93.36 40 -92 40 C-92 39.34 -92 38.68 -92 38 C-91.34 38 -90.68 38 -90 38 C-90 37.34 -90 36.68 -90 36 C-89.34 36 -88.68 36 -88 36 C-88 35.34 -88 34.68 -88 34 C-86.68 34 -85.36 34 -84 34 C-84 33.34 -84 32.68 -84 32 C-83.34 32 -82.68 32 -82 32 C-82 31.34 -82 30.68 -82 30 C-80.68 30 -79.36 30 -78 30 C-78 29.34 -78 28.68 -78 28 C-77.34 28 -76.68 28 -76 28 C-76 27.34 -76 26.68 -76 26 C-74.68 26 -73.36 26 -72 26 C-72 25.34 -72 24.68 -72 24 C-70.68 24 -69.36 24 -68 24 C-68 23.34 -68 22.68 -68 22 C-66.68 22 -65.36 22 -64 22 C-64 21.34 -64 20.68 -64 20 C-62.68 20 -61.36 20 -60 20 C-60 19.34 -60 18.68 -60 18 C-58.68 18 -57.36 18 -56 18 C-56 17.34 -56 16.68 -56 16 C-54.68 16 -53.36 16 -52 16 C-52 15.34 -52 14.68 -52 14 C-50.02 14 -48.04 14 -46 14 C-46 13.34 -46 12.68 -46 12 C-44.02 12 -42.04 12 -40 12 C-40 11.34 -40 10.68 -40 10 C-38.68 10 -37.36 10 -36 10 C-36 9.34 -36 8.68 -36 8 C-34.02 8 -32.04 8 -30 8 C-30 7.34 -30 6.68 -30 6 C-26.04 6 -22.08 6 -18 6 C-18 5.34 -18 4.68 -18 4 C-15.36 4 -12.72 4 -10 4 C-10 3.34 -10 2.68 -10 2 C-6.7 2 -3.4 2 0 2 C0 1.34 0 0.68 0 0 Z " fill="#F7EA23" transform="translate(350,184)"/>
<path d="M0 0 C8.91245726 7.70939829 15.40757579 17.29878767 18.7734375 28.640625 C19.04269043 29.54506348 19.04269043 29.54506348 19.31738281 30.46777344 C21.61810714 39.70719017 20.9887239 49.31792018 20.8984375 58.765625 C20.8883892 60.59895345 20.87926662 62.43228723 20.87109375 64.265625 C20.84922314 68.72409134 20.81479489 73.18229858 20.7734375 77.640625 C25.24089954 77.05040952 29.04642017 76.30457423 33.2109375 74.578125 C38.10253629 72.74629171 41.57558798 71.92368024 46.7734375 72.640625 C50.49349851 74.61938086 51.51194541 75.96074557 53.0234375 79.890625 C52.70698139 84.63746671 51.30201495 86.3213771 48.05859375 89.66796875 C43.14753226 93.90743209 37.48919655 97.11979993 31.84375 100.28125 C26.91774743 103.15927111 26.91774743 103.15927111 23.94140625 107.8125 C23.05979581 120.36007189 32.0642834 132.62526871 39.7734375 141.640625 C46.40545777 149.0871039 53.74366427 154.86482313 62.44921875 159.7109375 C63.39825073 160.23965454 63.39825073 160.23965454 64.36645508 160.77905273 C65.61361795 161.465144 66.86722657 162.13967858 68.12768555 162.80102539 C71.48423663 164.62463371 73.52737707 165.94343253 74.7734375 169.640625 C67.52483578 176.38932315 57.75742562 179.13855935 48.42578125 181.74609375 C45.65663329 182.46139381 45.65663329 182.46139381 43.7734375 184.640625 C43.23358355 186.89858558 42.88645559 189.15549755 42.53125 191.44921875 C41.52754974 194.35167156 40.38402495 195.05041527 37.7734375 196.640625 C34.99951172 197.20898438 34.99951172 197.20898438 31.828125 197.484375 C30.08789062 197.65259766 30.08789062 197.65259766 28.3125 197.82421875 C27.10335937 197.92863281 25.89421875 198.03304687 24.6484375 198.140625 C11.89618297 199.26337784 2.24978258 201.30580524 -8.6640625 208.078125 C-23.99737055 217.27810983 -39.51444627 221.42646191 -57.3515625 217.640625 C-64.82983128 215.47478759 -71.48116249 211.43469305 -78.2265625 207.640625 C-91.7750876 200.03852022 -104.49397745 197.41172494 -119.86328125 197.046875 C-123.4046762 196.61911069 -124.8456415 196.26367356 -127.2265625 193.640625 C-127.921875 191.30078125 -127.921875 191.30078125 -128.3515625 188.703125 C-129.38446517 184.86134353 -129.38446517 184.86134353 -132.21484375 182.23828125 C-134.85765499 181.18874377 -137.48260257 180.3869524 -140.2265625 179.640625 C-147.597872 177.36015569 -153.85654785 175.05063514 -160.2265625 170.640625 C-159.92578125 168.77734375 -159.92578125 168.77734375 -159.2265625 166.640625 C-156.59824409 164.83687707 -153.97863695 163.2395271 -151.2265625 161.640625 C-132.7904014 150.57892834 -119.40470364 137.73143723 -110.9140625 117.515625 C-109.98134489 113.61516952 -109.83739456 110.662027 -110.2265625 106.640625 C-114.1037924 101.68065803 -120.22998148 98.62930428 -125.49609375 95.32617188 C-131.25194142 91.60546169 -137.36974814 87.53523571 -138.9140625 80.515625 C-137.94231765 76.4519647 -136.66024969 75.02318346 -133.2265625 72.640625 C-125.90150819 71.47791797 -120.18357915 73.81563837 -113.36328125 76.44921875 C-110.95827146 77.36270316 -108.7156853 78.05346286 -106.2265625 78.640625 C-106.24227295 77.46669189 -106.2579834 76.29275879 -106.27416992 75.08325195 C-106.32905828 70.66812177 -106.36312372 66.25302082 -106.39135742 61.83764648 C-106.40631135 59.93785507 -106.42668193 58.03809736 -106.45288086 56.13842773 C-106.71458327 36.654427 -104.8160644 19.83312547 -90.80737305 4.94482422 C-66.45432829 -19.42031042 -27.28373949 -19.95082161 0 0 Z " fill="#FDFDFD" transform="translate(413.2265625,267.359375)"/>
<path d="M0 0 C15.70317844 12.69572977 26.44080931 27.81066893 29.265625 48.12109375 C29.8110139 56.27465784 29.64918393 64.45890121 29.5 72.625 C30.47839844 72.57859375 31.45679688 72.5321875 32.46484375 72.484375 C41.16021613 72.24497438 48.45735666 72.21541578 55.3046875 78.203125 C59.97391951 83.16278771 61.52278684 88.30638902 61.8125 95.0625 C61.58608546 102.48386551 58.95420637 108.02589288 53.94140625 113.4609375 C40.21841155 125.625 40.21841155 125.625 34.5 125.625 C37.51904668 139.51261471 47.35597069 149.52773732 58.5 157.625 C63.84160526 161.00761789 69.43323951 164.01341025 75.02734375 166.953125 C80.16827056 169.82515115 82.75868826 172.94397045 84.5 178.625 C85.34708848 184.55461939 83.79730276 188.78301486 80.5 193.625 C74.48664519 200.97857465 64.37032228 203.8461414 55.74609375 206.99609375 C52.11796903 208.81670507 51.27111903 209.90807885 49.5625 213.5 C46.32735595 219.37118735 42.84003174 222.0008717 36.62109375 224.328125 C32.12148552 225.56089438 27.64007112 225.73287464 23.00537109 225.90698242 C9.73634252 226.42549523 0.84128729 230.34707726 -10.58129883 236.89990234 C-28.30481384 246.87739219 -48.72589594 249.38543482 -68.578125 244.93359375 C-76.72745855 242.4925782 -84.13323001 237.7791936 -91.5 233.625 C-100.71283635 228.55948751 -108.37480091 225.84214853 -118.91015625 225.43359375 C-119.69696777 225.40112549 -120.4837793 225.36865723 -121.29443359 225.33520508 C-122.84756177 225.27990598 -124.40151913 225.24346699 -125.95556641 225.22924805 C-132.0652408 225.04923447 -137.41027306 223.4666614 -141.99609375 219.24902344 C-144.15169357 216.79439011 -145.52729211 214.55317866 -146.6875 211.5 C-149.08028755 207.70454388 -151.34411897 207.20714732 -155.47265625 205.74609375 C-164.8474819 202.27438412 -174.49452998 198.17940548 -179.875 189.375 C-181.2312249 183.40761044 -181.62001781 178.68620924 -178.640625 173.203125 C-175.0219149 168.46756074 -169.96067267 166.04979313 -164.8125 163.25 C-156.80522936 158.70783354 -149.80495895 154.40996611 -143.5 147.625 C-142.85289062 146.96113281 -142.20578125 146.29726563 -141.5390625 145.61328125 C-134.31261432 137.86780079 -134.31261432 137.86780079 -131.53125 128.09375 C-132.89390314 124.62118231 -134.82816503 123.71480001 -138 121.8125 C-155.26216494 110.87979554 -155.26216494 110.87979554 -157.5 102.625 C-158.3922702 94.76362992 -158.61206935 87.05245562 -153.5 80.625 C-148.86742098 75.72895678 -144.62396426 72.78686343 -137.73046875 72.4296875 C-136.38267285 72.44283673 -135.03494305 72.4664751 -133.6875 72.5 C-132.99462891 72.50902344 -132.30175781 72.51804687 -131.58789062 72.52734375 C-129.89177605 72.55073843 -128.19584129 72.58660359 -126.5 72.625 C-126.55800781 71.50867188 -126.61601562 70.39234375 -126.67578125 69.2421875 C-127.00459394 59.89277819 -126.37858395 51.20345132 -124.3125 42.0625 C-124.1163208 41.17224121 -123.9201416 40.28198242 -123.71801758 39.36474609 C-119.26766595 21.04057277 -106.82535038 6.14876481 -90.9296875 -3.62890625 C-63.51697231 -19.58061246 -25.90450524 -18.8276709 0 0 Z M-100.50390625 23.9296875 C-108.86365228 34.94360775 -111.67837212 47.63879259 -111.59765625 61.1796875 C-111.59553383 62.53200974 -111.59553383 62.53200974 -111.59336853 63.91165161 C-111.5877974 66.774469 -111.57525026 69.63720648 -111.5625 72.5 C-111.55748127 74.44791553 -111.55291901 76.3958323 -111.54882812 78.34375 C-111.53783742 83.10419718 -111.52059277 87.86458507 -111.5 92.625 C-113.5633113 92.00268356 -115.6256169 91.37703215 -117.6875 90.75 C-118.83605469 90.40195312 -119.98460937 90.05390625 -121.16796875 89.6953125 C-124.00925251 88.78263753 -126.73359347 87.73613267 -129.5 86.625 C-134.31408172 85.84188739 -137.49774994 85.92956118 -141.5625 88.75 C-143.62223422 91.4689926 -143.62223422 91.4689926 -144.25 94.4375 C-142.43090494 102.16865401 -135.20542568 106.82924061 -128.82421875 110.8515625 C-127.93347656 111.39554687 -127.04273438 111.93953125 -126.125 112.5 C-124.32298356 113.61831768 -122.52336646 114.74051399 -120.7265625 115.8671875 C-119.93846191 116.3504248 -119.15036133 116.83366211 -118.33837891 117.33154297 C-116.5 118.625 -116.5 118.625 -115.5 120.625 C-114.30656167 131.16703858 -119.36117019 140.96388662 -125.55859375 149.22265625 C-136.01307879 162.15929266 -147.48321779 170.54463643 -161.87109375 178.60693359 C-163.6733719 179.64846556 -163.6733719 179.64846556 -165.5 181.625 C-165.56465222 183.64911497 -165.56465222 183.64911497 -164.5 185.625 C-157.78941467 190.36973574 -149.61496928 192.75126542 -141.75756836 194.88842773 C-136.70584104 196.31623845 -136.70584104 196.31623845 -134.5 199.625 C-133.71826194 201.92109974 -133.04872528 204.23543601 -132.37890625 206.56640625 C-131.57444916 208.9707253 -131.57444916 208.9707253 -128.5 210.625 C-126.1512929 210.82822558 -123.7941849 210.93866486 -121.4375 211 C-106.581972 211.70708156 -94.11756106 215.06091066 -81.30566406 222.58154297 C-66.72201272 231.00914246 -52.82540895 235.19375353 -35.93359375 231.9375 C-26.08000709 229.0916988 -17.27158849 224.36595423 -8.625 218.9375 C-0.55677562 214.21108211 7.69947578 212.88864531 16.8828125 212.18359375 C17.82068604 212.10923096 18.75855957 212.03486816 19.72485352 211.95825195 C21.5830971 211.82187737 23.44323471 211.70882951 25.30444336 211.62182617 C29.76566423 211.31961848 31.93764355 211.05210617 35.5859375 208.28125 C37.92092132 205.04086429 37.99318877 202.5346866 38.5 198.625 C41.74441644 195.34781168 45.87224743 194.4563662 50.1875 193.25 C60.89606808 190.49087179 60.89606808 190.49087179 68.7265625 183.47265625 C68.98179687 182.86292969 69.23703125 182.25320313 69.5 181.625 C65.81790074 178.50246929 62.05231197 176.1729496 57.8125 173.875 C51.51010636 170.36137839 45.91422029 166.42289049 40.5 161.625 C39.81550781 161.03460938 39.13101563 160.44421875 38.42578125 159.8359375 C29.99264218 152.04895251 22.44223849 140.75033931 19.5 129.625 C19.273125 128.79355469 19.04625 127.96210938 18.8125 127.10546875 C18.37028186 124.10667701 18.38195695 122.45858279 19.5 119.625 C22.95405846 116.40824327 26.71679608 114.03982948 30.77246094 111.65234375 C37.0400416 107.92509962 43.67269474 103.95985009 47.5 97.625 C47.64716459 93.35722684 47.19982153 91.45206181 44.4375 88.1875 C40.56490454 86.1276088 37.72560301 85.83228998 33.5 86.625 C29.8280514 87.81334619 26.26403464 89.1194842 22.671875 90.53125 C19.5 91.625 19.5 91.625 15.5 91.625 C15.52094727 90.52736328 15.54189453 89.42972656 15.56347656 88.29882812 C15.63699925 84.1464594 15.68219867 79.99414539 15.71972656 75.84130859 C15.7395907 74.05898297 15.7666916 72.27672025 15.80175781 70.49462891 C16.19715115 49.85277084 12.94312118 32.62304801 -1.796875 17.1328125 C-17.13404089 2.90382333 -34.65242962 -0.07691107 -54.75 0.25 C-73.21604721 0.96732703 -88.48314726 10.10464305 -100.50390625 23.9296875 Z " fill="#030303" transform="translate(418.5,253.375)"/>
<path d="M0 0 C-0.99 0.66 -1.98 1.32 -3 2 C-3.99 1.67 -4.98 1.34 -6 1 C-10.46565774 0.7930956 -14.93393107 0.81420226 -19.40380859 0.81469727 C-21.59623141 0.81252846 -23.78813611 0.79441357 -25.98046875 0.77539062 C-33.24357827 0.74564884 -39.96500921 0.99102397 -47 3 C-48.02867187 3.28359375 -49.05734375 3.5671875 -50.1171875 3.859375 C-59.58497185 6.91695975 -68.17227869 10.56983269 -75 18 C-76.2065625 18.680625 -76.2065625 18.680625 -77.4375 19.375 C-81.98014397 22.25570106 -85.04363888 26.56545832 -88 31 C-88.99 30.67 -89.98 30.34 -91 30 C-77.06058774 11.58620849 -60.49747625 1.99055489 -38.15625 -2.58203125 C-25.29888724 -4.28467706 -12.51459215 -3.18553255 0 0 Z " fill="#1B1806" transform="translate(395,242)"/>
<path d="M0 0 C2.35678664 1.35861016 4.74237412 2.66369285 7.12646484 3.97363281 C8.31475066 4.6388978 9.50262232 5.30490857 10.68896484 5.97363281 C10.35896484 6.63363281 10.02896484 7.29363281 9.68896484 7.97363281 C5.09303837 6.64683261 1.64099842 4.77028816 -2.31103516 2.09863281 C-8.92662505 -2.17513832 -15.62930878 -4.2763336 -23.31103516 -6.02636719 C-24.26236328 -6.25066406 -25.21369141 -6.47496094 -26.19384766 -6.70605469 C-28.22730047 -7.17139028 -30.26828113 -7.60372842 -32.31103516 -8.02636719 C-32.31103516 -8.35636719 -32.31103516 -8.68636719 -32.31103516 -9.02636719 C-20.34843382 -11.56819778 -10.05429341 -5.80403201 0 0 Z " fill="#121214" transform="translate(337.31103515625,475.0263671875)"/>
<path d="M0 0 C12.22289634 0.9993563 22.20017504 11.18532792 30 20 C31.80052183 22.28120413 33.41078525 24.56320405 35 27 C34.34 27.66 33.68 28.32 33 29 C32.63648438 28.50371094 32.27296875 28.00742187 31.8984375 27.49609375 C24.13118679 16.22061372 24.13118679 16.22061372 13 9 C13 8.34 13 7.68 13 7 C12.34 6.7525 11.68 6.505 11 6.25 C7.23639093 4.68182955 3.6288576 2.85494954 0 1 C0 0.67 0 0.34 0 0 Z " fill="#121306" transform="translate(403,247)"/>
<path d="M0 0 C3.09562599 1.547813 3.54389714 4.19478212 4.9375 7.3125 C8.13064497 14.10175732 12.22005903 19.04619881 17.44921875 24.37890625 C19.81569193 26.81061146 21.92785702 29.316405 24 32 C19.79877458 32 18.83141388 30.29772255 15.875 27.375 C11.70003843 23.1566513 8.12997619 18.71206604 4.875 13.75 C4.30821533 12.90187744 4.30821533 12.90187744 3.72998047 12.03662109 C1.24658309 8.0708052 0.3882886 4.63593051 0 0 Z " fill="#171617" transform="translate(440,386)"/>
<path d="M0 0 C2 2 2 2 2.04345703 5.16455078 C1.95910062 6.50886344 1.86309566 7.8524767 1.7578125 9.1953125 C1.71059052 9.90275604 1.66336853 10.61019958 1.61471558 11.33908081 C1.46138214 13.60186516 1.29336911 15.86328953 1.125 18.125 C1.01856394 19.65748521 0.91308307 21.19003708 0.80859375 22.72265625 C0.5501462 26.48263446 0.27852747 30.24145807 0 34 C-2.475 34.495 -2.475 34.495 -5 35 C-4.01 34.505 -4.01 34.505 -3 34 C-3.03480469 32.80246094 -3.06960938 31.60492188 -3.10546875 30.37109375 C-3.31477846 19.79768279 -2.58032415 10.27521937 0 0 Z " fill="#262712" transform="translate(295,292)"/>
<path d="M0 0 C0.46728516 0.36569092 0.93457031 0.73138184 1.41601562 1.1081543 C5.07538429 3.91866794 8.75816698 6.52356444 12.71875 8.89453125 C13.50507813 9.37599609 14.29140625 9.85746094 15.1015625 10.35351562 C16.71828282 11.3369766 18.34909029 12.29759939 19.9921875 13.23632812 C22.31683752 14.69019977 24.18683476 15.93973987 26 18 C26.68915748 21.12609491 26.53597152 23.85904925 26 27 C25.67 27 25.34 27 25 27 C24.896875 25.824375 24.79375 24.64875 24.6875 23.4375 C23.62336389 19.1507673 21.69601751 17.73122032 18 15.4375 C16.00293456 14.28655966 14.0028697 13.1408098 12 12 C10.15027294 10.79564474 8.31574618 9.56750104 6.5 8.3125 C5.7059375 7.77238281 4.911875 7.23226563 4.09375 6.67578125 C1.9620626 4.96963593 0.52932454 3.24987168 -1 1 C-0.67 0.67 -0.34 0.34 0 0 Z " fill="#1B191E" transform="translate(277,354)"/>
<path d="M0 0 C0.53625 0.680625 1.0725 1.36125 1.625 2.0625 C2.40875 3.031875 3.1925 4.00125 4 5 C4.40089844 5.51949219 4.80179687 6.03898437 5.21484375 6.57421875 C9.76118803 12.22749903 15.32345151 16.52982135 21 21 C22.66733771 22.3324941 24.33421534 23.66556491 26 25 C25.34 25.33 24.68 25.66 24 26 C17.81223619 22.92633955 12.49542302 19.08917849 8.26953125 13.62109375 C6.86678006 11.74955766 6.86678006 11.74955766 4.3125 9.4375 C1.82012891 6.81040614 0.45674113 4.29683518 -1 1 C-0.67 0.67 -0.34 0.34 0 0 Z " fill="#131407" transform="translate(456,390)"/>
<path d="M0 0 C1.9296875 0.80859375 1.9296875 0.80859375 4.8046875 2.30859375 C4.4746875 2.96859375 4.1446875 3.62859375 3.8046875 4.30859375 C2.8353125 3.97859375 1.8659375 3.64859375 0.8671875 3.30859375 C-3.48196503 2.08870951 -7.709658 1.61582858 -12.1953125 2.30859375 C-14.88669793 3.74874301 -14.88669793 3.74874301 -16.1953125 6.30859375 C-16.56574502 9.86474592 -16.24448215 12.89879239 -15.1953125 16.30859375 C-16.1853125 15.97859375 -17.1753125 15.64859375 -18.1953125 15.30859375 C-19.83955129 12.02011618 -19.96607022 8.83579009 -19.1953125 5.30859375 C-14.69143857 -1.60703203 -7.44564707 -2.34498137 0 0 Z " fill="#0D0B10" transform="translate(292.1953125,338.69140625)"/>
<path d="M0 0 C5.75 1.875 5.75 1.875 8 3 C8 3.66 8 4.32 8 5 C8.57621094 5.26039063 9.15242188 5.52078125 9.74609375 5.7890625 C12.16230095 7.08719808 14.00794479 8.5619243 16.0625 10.375 C16.73410156 10.96023438 17.40570313 11.54546875 18.09765625 12.1484375 C20.02631467 14.02561223 21.63198375 15.67661502 23 18 C22.6875 20.25 22.6875 20.25 22 22 C21.61070312 21.443125 21.22140625 20.88625 20.8203125 20.3125 C15.05914366 12.45394711 8.07612385 5.82152583 -1 2 C-0.67 1.34 -0.34 0.68 0 0 Z " fill="#121212" transform="translate(402,259)"/>
<path d="M0 0 C0 0.99 0 1.98 0 3 C-6.76500026 6.07500012 -13.64816235 6.14370085 -20.9375 6.0625 C-21.71673828 6.05798828 -22.49597656 6.05347656 -23.29882812 6.04882812 C-25.19925268 6.03716908 -27.09963706 6.01923877 -29 6 C-29 5.67 -29 5.34 -29 5 C-28.35973877 4.91959473 -27.71947754 4.83918945 -27.05981445 4.75634766 C-24.14312138 4.38611645 -21.22784945 4.00566082 -18.3125 3.625 C-16.80139648 3.43550781 -16.80139648 3.43550781 -15.25976562 3.2421875 C-14.28330078 3.11328125 -13.30683594 2.984375 -12.30078125 2.8515625 C-11.40528564 2.73635254 -10.50979004 2.62114258 -9.5871582 2.50244141 C-6.2734795 1.85890543 -3.35467125 0 0 0 Z " fill="#0F0F11" transform="translate(391,482)"/>
<path d="M0 0 C4.09253234 2.02218579 8.07553938 4.2161421 12.0625 6.4375 C13.14241211 7.03014648 13.14241211 7.03014648 14.24414062 7.63476562 C14.93830078 8.02212891 15.63246094 8.40949219 16.34765625 8.80859375 C16.97679932 9.15720459 17.60594238 9.50581543 18.25415039 9.86499023 C20.09588362 11.06233575 21.50493448 12.39759056 23 14 C19.04950513 14 18.18136697 13.81279207 14.99609375 11.91796875 C14.25552734 11.48033203 13.51496094 11.04269531 12.75195312 10.59179688 C11.98818359 10.12837891 11.22441406 9.66496094 10.4375 9.1875 C9.28604492 8.50977539 9.28604492 8.50977539 8.11132812 7.81835938 C4.69929504 5.78065871 1.73027044 3.91889382 -1 1 C-0.67 0.67 -0.34 0.34 0 0 Z " fill="#131114" transform="translate(467,420)"/>
<path d="M0 0 C0.33 0 0.66 0 1 0 C1.83211276 5.03854106 2.1078534 9.8125662 2.0625 14.9375 C2.05798828 15.62134766 2.05347656 16.30519531 2.04882812 17.00976562 C2.0371956 18.67321604 2.01926694 20.3366205 2 22 C-2.29 22 -6.58 22 -11 22 C-11 21.67 -11 21.34 -11 21 C-7.535 20.505 -7.535 20.505 -4 20 C-4 19.34 -4 18.68 -4 18 C-2.68 18 -1.36 18 0 18 C0 12.06 0 6.12 0 0 Z " fill="#E8DB10" transform="translate(290,304)"/>
<path d="M0 0 C0.81726563 0.73605469 1.63453125 1.47210938 2.4765625 2.23046875 C6.13251559 5.27709633 10.09782137 7.27445919 14.375 9.3125 C15.47908203 9.85100586 15.47908203 9.85100586 16.60546875 10.40039062 C18.40004002 11.27437014 20.19952337 12.13825168 22 13 C21.01 13.66 20.02 14.32 19 15 C4.03416856 8.25512528 4.03416856 8.25512528 -1 1 C-0.67 0.67 -0.34 0.34 0 0 Z " fill="#1A1704" transform="translate(241,443)"/>
<path d="M0 0 C0.99 0.33 1.98 0.66 3 1 C-2.22806926 7.92166917 -8.47718112 12.7077695 -16 17 C-16.66 17 -17.32 17 -18 17 C-16.50776183 13.00324513 -14.31659445 11.71700844 -10.6875 9.625 C-6.11643894 6.84757051 -3.07619211 4.3490992 0 0 Z " fill="#181A06" transform="translate(474,360)"/>
<path d="M0 0 C0.91120605 0.05236816 1.82241211 0.10473633 2.76123047 0.15869141 C3.74736328 0.21025391 4.73349609 0.26181641 5.74951172 0.31494141 C7.29832031 0.41162109 7.29832031 0.41162109 8.87841797 0.51025391 C10.43882812 0.59533203 10.43882812 0.59533203 12.03076172 0.68212891 C14.60565215 0.82386599 17.17960537 0.97529945 19.75341797 1.13525391 C20.08341797 1.79525391 20.41341797 2.45525391 20.75341797 3.13525391 C17.89918605 3.16243707 15.04521782 3.18218095 12.19091797 3.19775391 C10.99112305 3.21032227 10.99112305 3.21032227 9.76708984 3.22314453 C4.98178693 3.24267638 0.47196746 2.93962409 -4.24658203 2.13525391 C-2.24658203 0.13525391 -2.24658203 0.13525391 0 0 Z " fill="#111209" transform="translate(358.24658203125,496.86474609375)"/>
<path d="M0 0 C0.33 0.99 0.66 1.98 1 3 C-0.7015625 3.680625 -0.7015625 3.680625 -2.4375 4.375 C-6.04721692 5.57095806 -6.04721692 5.57095806 -7 8 C-7.99 8 -8.98 8 -10 8 C-10.103125 8.5775 -10.20625 9.155 -10.3125 9.75 C-11.09792798 12.32049158 -12.30504197 13.93657284 -14 16 C-14.33 15.01 -14.66 14.02 -15 13 C-11.57347327 6.69519081 -6.90781981 2.23488288 0 0 Z " fill="#0F1008" transform="translate(277,326)"/>
<path d="M0 0 C3.51748059 0.75253792 6.68946351 2.0429365 10 3.4375 C11.03125 3.86933594 12.0625 4.30117188 13.125 4.74609375 C15.4606059 5.76474795 17.73735517 6.83060423 20 8 C13.19763891 9.89494345 7.85688677 6.48558112 1.875 3.375 C1.25625 2.92125 0.6375 2.4675 0 2 C0 1.34 0 0.68 0 0 Z " fill="#0F1012" transform="translate(253,439)"/>
<path d="M0 0 C6.90352555 -0.51137226 11.74827614 1.13035626 18 4 C18 4.99 18 5.98 18 7 C17.21496094 6.72285156 16.42992187 6.44570313 15.62109375 6.16015625 C10.06932333 4.24598755 4.85830965 2.5325736 -1 2 C-0.67 1.34 -0.34 0.68 0 0 Z " fill="#0F1207" transform="translate(305,477)"/>
<path d="M0 0 C-5.49121491 3.927744 -10.57273858 6.89653263 -17 9 C-17.66 8.34 -18.32 7.68 -19 7 C-16.40163864 5.63354299 -13.79734444 4.28169331 -11.1875 2.9375 C-10.44951172 2.54755859 -9.71152344 2.15761719 -8.95117188 1.75585938 C-8.23896484 1.39169922 -7.52675781 1.02753906 -6.79296875 0.65234375 C-6.1383667 0.31195068 -5.48376465 -0.02844238 -4.80932617 -0.37915039 C-3 -1 -3 -1 0 0 Z " fill="#191807" transform="translate(497,449)"/>
<path d="M0 0 C0.92232422 0.05671875 1.84464844 0.1134375 2.79492188 0.171875 C5.05169779 0.31219267 7.30715997 0.46347105 9.5625 0.625 C9.5625 0.955 9.5625 1.285 9.5625 1.625 C7.59216797 1.71587891 7.59216797 1.71587891 5.58203125 1.80859375 C3.84634459 1.89303256 2.11066802 1.97767888 0.375 2.0625 C-0.92147461 2.12147461 -0.92147461 2.12147461 -2.24414062 2.18164062 C-5.71338697 2.35443834 -8.96792402 2.51904761 -12.36328125 3.28515625 C-14.4375 3.625 -14.4375 3.625 -17.4375 1.625 C-11.42995922 -0.53408873 -6.32142856 -0.45510645 0 0 Z " fill="#242424" transform="translate(366.4375,252.375)"/>
<path d="M0 0 C0.64428711 1.81152344 0.64428711 1.81152344 1 4 C-0.74748644 6.28267265 -2.43162684 8.22229751 -4.4375 10.25 C-4.96666016 10.80429687 -5.49582031 11.35859375 -6.04101562 11.9296875 C-7.34956405 13.29717954 -8.6733804 14.65003189 -10 16 C-10.66 15.34 -11.32 14.68 -12 14 C-11.20335937 13.23816406 -11.20335937 13.23816406 -10.390625 12.4609375 C-6.36535478 8.53850265 -2.89400247 4.82333745 0 0 Z " fill="#1F1F0C" transform="translate(283,391)"/>
<path d="M0 0 C-0.58007812 0.25394531 -1.16015625 0.50789063 -1.7578125 0.76953125 C-9.95335403 3.99779433 -9.95335403 3.99779433 -17 9 C-19.125 8.625 -19.125 8.625 -21 8 C-18.73103368 6.68417937 -16.45996813 5.37224764 -14.1875 4.0625 C-13.54490234 3.68931641 -12.90230469 3.31613281 -12.24023438 2.93164062 C-4.63941119 -1.43981727 -4.63941119 -1.43981727 0 0 Z " fill="#D7CF35" transform="translate(430,481)"/>
<path d="M0 0 C-0.66 0 -1.32 0 -2 0 C-2 0.66 -2 1.32 -2 2 C-3.93625098 2.98163422 -5.87404539 3.96022454 -7.8125 4.9375 C-9.43091797 5.75541016 -9.43091797 5.75541016 -11.08203125 6.58984375 C-14 8 -14 8 -17 9 C-15.50834962 4.74740668 -13.00281542 3.61228438 -9.0625 1.6875 C-7.47115234 0.88892578 -7.47115234 0.88892578 -5.84765625 0.07421875 C-3 -1 -3 -1 0 0 Z " fill="#161617" transform="translate(348,256)"/>
<path d="M0 0 C0.33 0.99 0.66 1.98 1 3 C-0.36328125 4.9375 -0.36328125 4.9375 -2.3125 7 C-4.45825516 9.29809072 -6.24671907 11.3700786 -8 14 C-8.99 13.67 -9.98 13.34 -11 13 C-9.54300902 11.20724155 -8.08436345 9.41582771 -6.625 7.625 C-5.40683594 6.12839844 -5.40683594 6.12839844 -4.1640625 4.6015625 C-2 2 -2 2 0 0 Z " fill="#171807" transform="translate(315,259)"/>
<path d="M0 0 C0.66 0 1.32 0 2 0 C2 0.66 2 1.32 2 2 C3.32 2 4.64 2 6 2 C6 1.34 6 0.68 6 0 C6.66 0 7.32 0 8 0 C8 1.32 8 2.64 8 4 C7.34 4 6.68 4 6 4 C6 4.66 6 5.32 6 6 C5.34 6 4.68 6 4 6 C4 5.34 4 4.68 4 4 C1.36 4 -1.28 4 -4 4 C-4 3.34 -4 2.68 -4 2 C-2.68 2 -1.36 2 0 2 C0 1.34 0 0.68 0 0 Z " fill="#F7EB33" transform="translate(278,208)"/>
<path d="M0 0 C-1.98 0.33 -3.96 0.66 -6 1 C-6 1.99 -6 2.98 -6 4 C-7.175625 3.9690625 -7.175625 3.9690625 -8.375 3.9375 C-10.98114961 3.81315937 -10.98114961 3.81315937 -13 5 C-15.69565202 4.83219837 -18.32405554 4.38844355 -21 4 C-21 3.67 -21 3.34 -21 3 C-20.02417969 2.79503906 -19.04835938 2.59007812 -18.04296875 2.37890625 C-16.77066406 2.10949219 -15.49835938 1.84007812 -14.1875 1.5625 C-12.92292969 1.29566406 -11.65835937 1.02882813 -10.35546875 0.75390625 C-2.93960084 -0.91228992 -2.93960084 -0.91228992 0 0 Z " fill="#CAC42D" transform="translate(400,496)"/>
<path d="M0 0 C0.99 0.33 1.98 0.66 3 1 C3.45375 1.928125 3.9075 2.85625 4.375 3.8125 C6.13241997 7.25974687 7.86937456 8.80010104 11 11 C10.67 11.99 10.34 12.98 10 14 C4.48943824 10.11755876 2.32498677 6.27746427 0 0 Z " fill="#171508" transform="translate(271,462)"/>
<path d="M0 0 C0.33 0 0.66 0 1 0 C1.50610724 6.07328688 0.04157942 9.77228537 -3 15 C-3.99 14.67 -4.98 14.34 -6 14 C-5.73445313 13.49210937 -5.46890625 12.98421875 -5.1953125 12.4609375 C-3.10022511 8.37781098 -1.32380814 4.4126938 0 0 Z " fill="#141407" transform="translate(502,432)"/>
<path d="M0 0 C0.33 0 0.66 0 1 0 C1.94450945 7.51248284 1.94450945 14.48751716 1 22 C0.67 22 0.34 22 0 22 C-0.1964031 18.70880065 -0.38060745 15.41703066 -0.5625 12.125 C-0.61857422 11.18785156 -0.67464844 10.25070312 -0.73242188 9.28515625 C-0.78076172 8.38925781 -0.82910156 7.49335938 -0.87890625 6.5703125 C-0.9260376 5.74289551 -0.97316895 4.91547852 -1.02172852 4.06298828 C-1 2 -1 2 0 0 Z " fill="#18170A" transform="translate(446,298)"/>
<path d="M0 0 C0.66 0 1.32 0 2 0 C2 1.32 2 2.64 2 4 C2.66 4 3.32 4 4 4 C4 4.66 4 5.32 4 6 C3.34 6 2.68 6 2 6 C2 7.32 2 8.64 2 10 C1.34 10 0.68 10 0 10 C0 9.34 0 8.68 0 8 C-0.66 8 -1.32 8 -2 8 C-2 6.68 -2 5.36 -2 4 C-1.34 4 -0.68 4 0 4 C0 2.68 0 1.36 0 0 Z " fill="#F6F3D8" transform="translate(204,452)"/>
<path d="M0 0 C3.3 0 6.6 0 10 0 C10 0.66 10 1.32 10 2 C8.68 2 7.36 2 6 2 C6 2.66 6 3.32 6 4 C4.02 4 2.04 4 0 4 C0 2.68 0 1.36 0 0 Z " fill="#F5F0E0" transform="translate(326,186)"/>
<path d="M0 0 C0.66 0.33 1.32 0.66 2 1 C1.67 1.66 1.34 2.32 1 3 C0.92966231 4.87379605 0.9156978 6.75001102 0.9375 8.625 C0.94652344 9.62789063 0.95554687 10.63078125 0.96484375 11.6640625 C0.97644531 12.43492187 0.98804688 13.20578125 1 14 C0.01 14.495 0.01 14.495 -1 15 C-1.9807664 12.05770079 -2.16488128 10.0091216 -2.1875 6.9375 C-2.20167969 6.05964844 -2.21585937 5.18179687 -2.23046875 4.27734375 C-2 2 -2 2 0 0 Z " fill="#181818" transform="translate(439,371)"/>
<path d="M0 0 C5.75 1.875 5.75 1.875 8 3 C8 3.66 8 4.32 8 5 C9.32 5.66 10.64 6.32 12 7 C11.34 7.66 10.68 8.32 10 9 C8.53977837 8.04454634 7.08188532 7.08553322 5.625 6.125 C4.81289063 5.59132813 4.00078125 5.05765625 3.1640625 4.5078125 C1 3 1 3 -1 1 C-0.67 0.67 -0.34 0.34 0 0 Z " fill="#1C1C1C" transform="translate(402,259)"/>
<path d="M0 0 C0.66 0.33 1.32 0.66 2 1 C-2.30769231 6.84615385 -2.30769231 6.84615385 -6 8 C-8.25 7.625 -8.25 7.625 -10 7 C-6.76478258 4.51137122 -3.40739705 2.24578442 0 0 Z " fill="#222023" transform="translate(487,437)"/>
<path d="M0 0 C0.66 0.66 1.32 1.32 2 2 C0.42825925 3.20280161 -1.15787558 4.38681275 -2.75 5.5625 C-3.63171875 6.22378906 -4.5134375 6.88507813 -5.421875 7.56640625 C-8 9 -8 9 -12 8 C-8.04 5.36 -4.08 2.72 0 0 Z " fill="#1B1B1B" transform="translate(454,361)"/>
<path d="M0 0 C0.66 0.66 1.32 1.32 2 2 C-1.3 4.97 -4.6 7.94 -8 11 C-8.66 10.67 -9.32 10.34 -10 10 C-8.90033225 8.70450101 -7.79508199 7.41373929 -6.6875 6.125 C-6.07261719 5.40570313 -5.45773437 4.68640625 -4.82421875 3.9453125 C-3 2 -3 2 0 0 Z " fill="#111312" transform="translate(328,265)"/>
<path d="M0 0 C-0.5625 2.3125 -0.5625 2.3125 -2 5 C-4.27962623 6.34776978 -6.48087772 7.11364216 -9 8 C-7.47364599 4.11473526 -4.49771687 0 0 0 Z " fill="#0F1205" transform="translate(325,253)"/>
<path d="M0 0 C0.66 0.33 1.32 0.66 2 1 C2 5.29 2 9.58 2 14 C1.34 14 0.68 14 0 14 C-1.24377393 11.51245214 -1.13306235 9.77344699 -1.125 7 C-1.12757813 6.113125 -1.13015625 5.22625 -1.1328125 4.3125 C-1 2 -1 2 0 0 Z " fill="#1E190D" transform="translate(239,428)"/>
<path d="M0 0 C0.66 0 1.32 0 2 0 C2 1.32 2 2.64 2 4 C2.66 4 3.32 4 4 4 C4 6.64 4 9.28 4 12 C3.34 12 2.68 12 2 12 C2 10.02 2 8.04 2 6 C1.34 6 0.68 6 0 6 C0 4.02 0 2.04 0 0 Z " fill="#F5EC4A" transform="translate(550,386)"/>
<path d="M0 0 C6.51791392 -0.3540919 11.17521449 -0.03901852 17 3 C16.67 3.66 16.34 4.32 16 5 C9.125 3.125 9.125 3.125 8 2 C6.65252916 1.76924918 5.29622435 1.58846937 3.9375 1.4375 C2.638125 1.293125 1.33875 1.14875 0 1 C0 0.67 0 0.34 0 0 Z " fill="#171518" transform="translate(280,338)"/>
<path d="M0 0 C0 0.66 0 1.32 0 2 C-3.63 3.98 -7.26 5.96 -11 8 C-11.66 7.34 -12.32 6.68 -13 6 C-11.21118264 4.99491199 -9.41885304 3.99607264 -7.625 3 C-6.62726563 2.443125 -5.62953125 1.88625 -4.6015625 1.3125 C-2 0 -2 0 0 0 Z " fill="#171717" transform="translate(272,422)"/>
<path d="M0 0 C3.77727089 1.81309003 7.37269822 3.9073259 11 6 C10.01 6.66 9.02 7.32 8 8 C5.03 6.02 2.06 4.04 -1 2 C-0.67 1.34 -0.34 0.68 0 0 Z " fill="#1D1C1E" transform="translate(467,420)"/>
<path d="M0 0 C0.33 0 0.66 0 1 0 C1 1.98 1 3.96 1 6 C3.97 5.34 6.94 4.68 10 4 C10 4.66 10 5.32 10 6 C6.21812119 7.83691257 4.05431692 8.15837626 0 7 C0 4.69 0 2.38 0 0 Z " fill="#1E1E1E" transform="translate(433,338)"/>
<path d="M0 0 C9.41002278 0.96355353 9.41002278 0.96355353 14 2 C13.67 2.66 13.34 3.32 13 4 C8.28596212 3.52060632 4.33420699 3.03165952 0 1 C0 0.67 0 0.34 0 0 Z " fill="#0F0F11" transform="translate(348,483)"/>
<path d="M0 0 C1.70884005 1.62339805 3.37446717 3.29319053 5 5 C5 5.66 5 6.32 5 7 C7.64 7 10.28 7 13 7 C13 7.33 13 7.66 13 8 C11.20906809 8.08086147 9.41710372 8.13912702 7.625 8.1875 C6.12839844 8.23970703 6.12839844 8.23970703 4.6015625 8.29296875 C3.74304688 8.19628906 2.88453125 8.09960938 2 8 C-0.1519437 4.77208445 -0.20086443 3.71599191 0 0 Z " fill="#1C1C1E" transform="translate(285,458)"/>
<path d="M0 0 C0 0.99 0 1.98 0 3 C-3.82989106 4.80230168 -6.78121808 5.19622241 -11 5 C-7.72709962 2.33319229 -4.35126896 0 0 0 Z " fill="#1F1F21" transform="translate(391,482)"/>
<path d="M0 0 C3.91211733 1.15585285 6.8745041 2.35534962 10 5 C7 6 7 6 4.95703125 5.22265625 C4.24933594 4.83980469 3.54164063 4.45695312 2.8125 4.0625 C2.09707031 3.68222656 1.38164062 3.30195313 0.64453125 2.91015625 C0.10183594 2.60980469 -0.44085938 2.30945313 -1 2 C-0.67 1.34 -0.34 0.68 0 0 Z " fill="#0F0F06" transform="translate(335,489)"/>
<path d="M0 0 C0.33 0.66 0.66 1.32 1 2 C-4.76926889 3.40333568 -10.18143105 2.67296616 -16 2 C-16 1.67 -16 1.34 -16 1 C-14.27111445 0.83044205 -12.54187557 0.66448486 -10.8125 0.5 C-9.84957031 0.4071875 -8.88664062 0.314375 -7.89453125 0.21875 C-5.24812333 0.01875156 -2.65239135 -0.03879183 0 0 Z " fill="#151708" transform="translate(456,475)"/>
<path d="M0 0 C1.32 0 2.64 0 4 0 C4 2.64 4 5.28 4 8 C3.34 8 2.68 8 2 8 C2 6.68 2 5.36 2 4 C1.34 4 0.68 4 0 4 C0 2.68 0 1.36 0 0 Z " fill="#F9EB11" transform="translate(196,430)"/>
<path d="M0 0 C0.66 0 1.32 0 2 0 C2 1.32 2 2.64 2 4 C1.34 4 0.68 4 0 4 C0 5.32 0 6.64 0 8 C-1.32 8 -2.64 8 -4 8 C-4 7.34 -4 6.68 -4 6 C-3.34 6 -2.68 6 -2 6 C-2 4.68 -2 3.36 -2 2 C-1.34 2 -0.68 2 0 2 C0 1.34 0 0.68 0 0 Z " fill="#F5F02D" transform="translate(210,276)"/>
<path d="M0 0 C0.66 0.66 1.32 1.32 2 2 C-0.8125 4.0625 -0.8125 4.0625 -4 6 C-4.99 5.67 -5.98 5.34 -7 5 C-2.25 1.125 -2.25 1.125 0 0 Z M-10 5 C-9.01 5 -8.02 5 -7 5 C-7.33 5.66 -7.66 6.32 -8 7 C-8.66 6.34 -9.32 5.68 -10 5 Z " fill="#191919" transform="translate(402,476)"/>
<path d="M0 0 C0.33 0.99 0.66 1.98 1 3 C-0.65 3.66 -2.3 4.32 -4 5 C-4.33 4.34 -4.66 3.68 -5 3 C-3.35 2.01 -1.7 1.02 0 0 Z M-5 4 C-5.33 4.99 -5.66 5.98 -6 7 C-6.99 7 -7.98 7 -9 7 C-9 6.34 -9 5.68 -9 5 C-7 4 -7 4 -5 4 Z " fill="#1E1E1E" transform="translate(414,469)"/>
<path d="M0 0 C1.875 0.1875 1.875 0.1875 4 1 C5.68644932 3.89105597 6.06919665 5.48102512 5.625 8.8125 C5.41875 9.534375 5.2125 10.25625 5 11 C4.67 11 4.34 11 4 11 C3.87882812 10.43410156 3.75765625 9.86820312 3.6328125 9.28515625 C3.38144531 8.18494141 3.38144531 8.18494141 3.125 7.0625 C2.96257812 6.33160156 2.80015625 5.60070312 2.6328125 4.84765625 C2.17038477 2.79299706 2.17038477 2.79299706 0 2 C0 1.34 0 0.68 0 0 Z " fill="#1C1B1D" transform="translate(279,449)"/>
<path d="M0 0 C0.66 0 1.32 0 2 0 C2 2.64 2 5.28 2 8 C0.02 8.99 0.02 8.99 -2 10 C-2 8.68 -2 7.36 -2 6 C-1.34 6 -0.68 6 0 6 C0 4.02 0 2.04 0 0 Z " fill="#F4F1DD" transform="translate(542,434)"/>
<path d="M0 0 C2.6486859 3.19668988 4.93992341 6.39486597 7 10 C6.01 10.495 6.01 10.495 5 11 C3.02 8.03 1.04 5.06 -1 2 C-0.67 1.34 -0.34 0.68 0 0 Z " fill="#151206" transform="translate(456,390)"/>
<path d="M0 0 C2.9425963 0.30652045 5.34542308 0.67271154 8 2 C7.67 2.99 7.34 3.98 7 5 C4.03 4.01 1.06 3.02 -2 2 C-1.34 1.34 -0.68 0.68 0 0 Z " fill="#1C1E08" transform="translate(264,457)"/>
<path d="M0 0 C1.12894876 0.93274109 2.25300876 1.87140122 3.375 2.8125 C4.00148438 3.33457031 4.62796875 3.85664063 5.2734375 4.39453125 C7 6 7 6 9 9 C6 9 6 9 4.39453125 7.5390625 C3.61142578 6.59160156 3.61142578 6.59160156 2.8125 5.625 C2.28269531 4.99851562 1.75289063 4.37203125 1.20703125 3.7265625 C0 2 0 2 0 0 Z " fill="#2E2A0C" transform="translate(462,398)"/>
<path d="M0 0 C0.99 0.33 1.98 0.66 3 1 C0.69 3.64 -1.62 6.28 -4 9 C-4.33 8.01 -4.66 7.02 -5 6 C-3.59554165 3.7363436 -1.8032087 1.9791315 0 0 Z " fill="#272806" transform="translate(474,360)"/>
<path d="M0 0 C0.33 0 0.66 0 1 0 C1.93402724 5.41735797 2.20808081 8.80451575 0 14 C-0.66 13.67 -1.32 13.34 -2 13 C-1.34 8.71 -0.68 4.42 0 0 Z " fill="#131508" transform="translate(478,345)"/>
<path d="M0 0 C3.91211733 1.15585285 6.8745041 2.35534962 10 5 C5.66905042 5 3.72965139 4.03435531 0 2 C0 1.34 0 0.68 0 0 Z " fill="#0F0F11" transform="translate(338,477)"/>
<path d="M0 0 C3.465 1.98 3.465 1.98 7 4 C7 4.99 7 5.98 7 7 C4.36 5.35 1.72 3.7 -1 2 C-0.67 1.34 -0.34 0.68 0 0 Z " fill="#201D0C" transform="translate(275,369)"/>
<path d="M0 0 C1.65 0 3.3 0 5 0 C4.67 1.32 4.34 2.64 4 4 C4.66 4 5.32 4 6 4 C6 4.66 6 5.32 6 6 C4.68 6 3.36 6 2 6 C2 4.68 2 3.36 2 2 C1.34 2 0.68 2 0 2 C0 1.34 0 0.68 0 0 Z " fill="#F7E936" transform="translate(200,294)"/>
<path d="M0 0 C4.67692308 1.47692308 4.67692308 1.47692308 6.3125 4.125 C6.539375 4.74375 6.76625 5.3625 7 6 C3.62496331 4.8141763 1.35277269 3.72426311 -1 1 C-0.67 0.67 -0.34 0.34 0 0 Z " fill="#1A1E09" transform="translate(325,483)"/>
<path d="M0 0 C0.66 0.66 1.32 1.32 2 2 C1.34 2 0.68 2 0 2 C0 2.66 0 3.32 0 4 C-1.8125 5.6875 -1.8125 5.6875 -4 7 C-4.99 6.67 -5.98 6.34 -7 6 C-4.74259377 3.66475218 -2.7194239 1.81294927 0 0 Z " fill="#121409" transform="translate(269,407)"/>
<path d="M0 0 C3.71888239 0.50712033 6.73454239 1.11608215 10 3 C5.70700357 4.26264601 3.12168689 3.62950412 -1 2 C-0.67 1.34 -0.34 0.68 0 0 Z " fill="#121212" transform="translate(389,254)"/>
<path d="M0 0 C1.98 0 3.96 0 6 0 C6 0.66 6 1.32 6 2 C4.68 2 3.36 2 2 2 C2 2.66 2 3.32 2 4 C0.68 4 -0.64 4 -2 4 C-2 3.34 -2 2.68 -2 2 C-1.34 2 -0.68 2 0 2 C0 1.34 0 0.68 0 0 Z " fill="#FAED18" transform="translate(282,206)"/>
<path d="M0 0 C0.33 0.99 0.66 1.98 1 3 C-1.31 3.66 -3.62 4.32 -6 5 C-6.33 4.34 -6.66 3.68 -7 3 C-4.69 2.01 -2.38 1.02 0 0 Z " fill="#191809" transform="translate(277,326)"/>
<path d="M0 0 C-0.33 0.66 -0.66 1.32 -1 2 C-3.97 2 -6.94 2 -10 2 C-3.75 -1.125 -3.75 -1.125 0 0 Z " fill="#D6CD31" transform="translate(463,476)"/>
<path d="M0 0 C-2.31 1.65 -4.62 3.3 -7 5 C-7 2 -7 2 -6 0 C-3 -1 -3 -1 0 0 Z " fill="#222123" transform="translate(281,417)"/>
<path d="M0 0 C0.99 0.33 1.98 0.66 3 1 C1.68 3.31 0.36 5.62 -1 8 C-1.66 7.67 -2.32 7.34 -3 7 C-1.125 2.25 -1.125 2.25 0 0 Z " fill="#231F20" transform="translate(297,392)"/>
<path d="M0 0 C0.33 0 0.66 0 1 0 C1.17942163 3.94727588 1.09350689 6.5980513 -1 10 C-1.66 10 -2.32 10 -3 10 C-2.01 6.7 -1.02 3.4 0 0 Z " fill="#110D11" transform="translate(301,382)"/>
<path d="M0 0 C0.33 0.99 0.66 1.98 1 3 C-0.25 5.1875 -0.25 5.1875 -2 7 C-2.99 7 -3.98 7 -5 7 C-3.70700306 4.11562221 -2.34058637 2.12780579 0 0 Z " fill="#2B290C" transform="translate(315,259)"/>
<path d="M0 0 C0 0.99 0 1.98 0 3 C-2.31 3.33 -4.62 3.66 -7 4 C-7.33 3.34 -7.66 2.68 -8 2 C-2.25 0 -2.25 0 0 0 Z " fill="#141215" transform="translate(476,444)"/>
<path d="M0 0 C2.31 1.65 4.62 3.3 7 5 C5.68 5.33 4.36 5.66 3 6 C1.68 4.35 0.36 2.7 -1 1 C-0.67 0.67 -0.34 0.34 0 0 Z " fill="#29272C" transform="translate(277,354)"/>
<path d="M0 0 C6.75 0.75 6.75 0.75 9 3 C6 4 6 4 2.8125 2.5625 C1.884375 2.046875 0.95625 1.53125 0 1 C0 0.67 0 0.34 0 0 Z " fill="#1C1D0B" transform="translate(403,247)"/>
<path d="M0 0 C5.75 0.75 5.75 0.75 8 3 C4.89953913 4.03348696 3.94389782 4.17755913 1 3 C0.67 2.01 0.34 1.02 0 0 Z " fill="#141405" transform="translate(395,243)"/>
</svg>
