<svg width="28" height="26" viewBox="0 0 28 26" fill="none" xmlns="http://www.w3.org/2000/svg">
<path fill-rule="evenodd" clip-rule="evenodd" d="M27.8886 11.5C27.8886 11.9265 27.8614 12.3476 27.8083 12.7621C27.4037 17.0905 23.5986 22.8553 15.5455 25.7717C15.2246 25.8879 14.8886 25.6476 14.8886 25.3063V22.9922C14.7227 22.9974 14.556 23 14.3886 23C6.93277 23 0.888611 17.8513 0.888611 11.5C0.888611 5.14874 6.93277 0 14.3886 0C21.8445 0 27.8886 5.14874 27.8886 11.5ZM8.88861 14C9.99319 14 10.8886 13.1046 10.8886 12C10.8886 10.8954 9.99319 10 8.88861 10C7.78403 10 6.88861 10.8954 6.88861 12C6.88861 13.1046 7.78403 14 8.88861 14ZM14.8886 14C15.9932 14 16.8886 13.1046 16.8886 12C16.8886 10.8954 15.9932 10 14.8886 10C13.784 10 12.8886 10.8954 12.8886 12C12.8886 13.1046 13.784 14 14.8886 14ZM22.8886 12C22.8886 13.1046 21.9932 14 20.8886 14C19.784 14 18.8886 13.1046 18.8886 12C18.8886 10.8954 19.784 10 20.8886 10C21.9932 10 22.8886 10.8954 22.8886 12Z" fill="white"/>
</svg>
