<?xml version="1.0" encoding="UTF-8"?>
<svg version="1.1" xmlns="http://www.w3.org/2000/svg" width="2048" height="2048">
<path d="M0 0 C3.02332869 0.0056433 6.04665176 0.00846185 9.06998444 0.0110817 C37.02103864 0.04629403 64.86380347 0.25987013 92.69937897 3.06482315 C95.36471581 3.33178794 98.03109594 3.58571618 100.69785309 3.83807755 C192.3901758 12.61126777 282.71769727 33.28652798 459.02060699 105.73797989 C462.04341981 107.22729509 465.07230581 108.70349581 468.10263824 110.17743301 C480.56248032 116.27747308 492.64336093 122.94057892 504.66806793 129.85467911 C507.54777676 131.50109028 510.446428 133.11047754 513.34970856 134.71478653 C540.27712075 149.63828603 566.11349367 166.5445151 591.22763824 184.31805801 C591.90761871 184.797267 592.58759918 185.27647598 593.28818512 185.77020645 C613.58602358 200.07834125 633.20111735 215.1421831 652.42783356 230.85028458 C654.00074118 232.13301934 655.57862108 233.40965215 657.15732574 234.68524551 C668.0084626 243.47563234 678.5106458 252.67360495 688.80185699 262.11102676 C690.99966385 264.1106417 693.2275591 266.0652412 695.47763824 268.00555801 C698.58245048 270.70018164 701.47735948 273.54284615 704.35436249 276.47722244 C706.155929 278.24759059 708.01425184 279.89310066 709.93442535 281.5331459 C714.27545393 285.30943418 718.35767547 289.30357724 722.41904449 293.37665176 C723.16798477 294.12463531 723.91692505 294.87261887 724.68856049 295.64326859 C726.26035049 297.21438266 727.83089673 298.78674194 729.40024567 300.36029434 C731.78365128 302.74905647 734.17234892 305.13243247 736.56162262 307.51532364 C738.09775061 309.05211252 739.63356833 310.58921161 741.16904449 312.12665176 C741.87340134 312.82898438 742.57775818 313.53131699 743.30345917 314.2549324 C747.23819814 318.20806309 751.00428563 322.2546231 754.63790131 326.48677444 C757.41061992 329.68078341 760.3271635 332.74047036 763.22763824 335.81805801 C767.99427842 340.90417642 772.70018995 346.01668694 777.22763824 351.31805801 C778.14918114 352.386053 779.07109237 353.45373021 779.99326324 354.52118301 C786.183307 361.69863206 792.25824403 368.95548265 798.22763824 376.31805801 C799.27010488 377.59060492 800.31311047 378.86271045 801.35654449 380.13446426 C807.37945162 387.48806486 813.27030187 394.90067626 818.9136734 402.55194473 C820.44568367 404.61113505 821.99806869 406.65415759 823.55185699 408.69696426 C836.33450763 425.54024656 848.46660375 442.84961257 860.05771637 460.53436661 C860.84815126 461.7394829 861.64118975 462.94289491 862.43662262 464.14471817 C877.05704507 486.24175382 890.54417044 509.06151051 903.22763824 532.31805801 C904.15189606 534.01212784 904.15189606 534.01212784 905.09482574 535.7404213 C946.23611564 611.30600206 977.28069013 691.64342983 1023.54013824 917.63055801 C1023.61567932 918.34324844 1023.6912204 919.05593887 1023.7690506 919.79022598 C1024.30845799 924.96175941 1024.77571772 930.13822987 1025.22763824 935.31805801 C1025.30963439 936.25109819 1025.39163054 937.18413837 1025.47611141 938.1454525 C1026.9742375 955.57123824 1027.55315181 972.87169516 1027.56357574 990.35712051 C1027.57004022 992.9812565 1027.5767709 995.60539184 1027.58374786 998.22952652 C1027.59640183 1003.70029233 1027.59952813 1009.17101001 1027.59824371 1014.64178848 C1027.59718596 1020.1367003 1027.61114502 1025.63132473 1027.63925934 1031.12616348 C1028.09428486 1122.16571654 1016.21490128 1212.10692741 979.22763824 1341.31805801 C978.95822418 1342.14928177 978.68881012 1342.98050552 978.41123199 1343.83691788 C956.83326704 1410.23741651 928.62319258 1475.18229303 893.00986481 1535.29315567 C891.22871456 1538.31623123 889.47065054 1541.35155061 887.71982574 1544.39227676 C868.09671045 1578.44116706 846.01569987 1611.04285117 822.22763824 1642.31805801 C821.80273102 1642.87944473 821.37782379 1643.44083145 820.94004059 1644.01922989 C814.88038649 1652.02191219 808.60636088 1659.83165128 802.25498199 1667.60321426 C799.86473942 1670.52903597 797.50685852 1673.47817725 795.16513824 1676.44305801 C787.85380812 1685.60535779 780.10717547 1694.42061628 772.23154449 1703.09930801 C770.41451843 1705.11114194 768.62819432 1707.14466235 766.85263824 1709.19305801 C762.56900973 1714.10403715 758.15698289 1718.89623457 753.73447418 1723.68182755 C752.27985979 1725.26135211 750.83522323 1726.84949368 749.39170074 1728.43915176 C741.12710814 1737.47658606 732.50216638 1746.15164036 723.85263824 1754.81805801 C723.24090759 1755.43237686 722.62917694 1756.04669571 721.998909 1756.67963028 C710.24733895 1768.47037419 710.24733895 1768.47037419 704.02988434 1773.76532364 C700.65894661 1776.66957235 697.45729741 1779.7587129 694.22763824 1782.81805801 C688.9950346 1787.77472358 683.68372162 1792.60818853 678.22763824 1797.31805801 C677.35437897 1798.07457657 677.35437897 1798.07457657 676.46347809 1798.84637833 C668.81572626 1805.45957705 661.08121989 1811.95000835 653.22763824 1818.31805801 C652.01365758 1819.31361669 650.80014601 1820.30974756 649.58701324 1821.30633926 C639.9632323 1829.19613801 630.17862565 1836.84547123 620.22763824 1844.31805801 C619.49206696 1844.87074356 618.75649567 1845.42342911 617.99863434 1845.9928627 C574.74323179 1878.39468358 528.95322758 1906.9962867 481.22763824 1932.31805801 C480.18591461 1932.87316055 479.14419098 1933.42826309 478.07089996 1934.00018692 C403.53832008 1973.6100911 323.23571454 2003.29790065 115.16513824 2044.13055801 C113.80764969 2044.27974686 113.80764969 2044.27974686 112.42273712 2044.43194962 C87.40401364 2047.14651646 62.47598809 2048.63882272 37.30966949 2048.65399551 C34.70938299 2048.6604615 32.10909714 2048.66719226 29.50881195 2048.67416763 C24.09110083 2048.68681267 18.6734383 2048.68994877 13.25571442 2048.68866348 C7.81613998 2048.6876054 2.37685572 2048.70157566 -3.06264496 2048.72967911 C-67.10601624 2049.05289667 -129.87269453 2043.43187764 -192.77236176 2031.31805801 C-193.5546817 2031.16743912 -194.33700165 2031.01682022 -195.14302826 2030.86163712 C-260.62573548 2018.18166053 -325.17820536 1998.94971872 -386.77236176 1973.31805801 C-387.39507965 1973.05913773 -388.01779755 1972.80021744 -388.65938568 1972.53345108 C-429.82248152 1955.37536459 -470.31600783 1935.92618796 -508.77236176 1913.31805801 C-509.60743256 1912.82849625 -509.60743256 1912.82849625 -510.45937347 1912.32904434 C-535.54352405 1897.61894723 -559.89347736 1881.92130296 -583.77236176 1865.31805801 C-584.49181976 1864.81999649 -585.21127777 1864.32193497 -585.95253754 1863.80878067 C-596.13109296 1856.75326928 -606.04252557 1849.40162449 -615.83242035 1841.81708145 C-617.60476039 1840.44756624 -619.38365736 1839.08740076 -621.16689301 1837.73212051 C-629.23296403 1831.58559537 -637.11056922 1825.22591323 -644.95644379 1818.80194473 C-646.53535896 1817.51172607 -648.12014803 1816.22870213 -649.70595551 1814.94696426 C-660.76300565 1805.99288948 -671.46883017 1796.63196362 -681.89345551 1786.95087051 C-684.13357241 1784.90224258 -686.3936572 1782.89314274 -688.68251801 1780.90008926 C-701.80129076 1769.45333206 -714.08167128 1757.11277159 -726.39736176 1744.81805801 C-727.10344574 1744.11456223 -727.80952972 1743.41106644 -728.53701019 1742.68625259 C-730.58979704 1740.63939504 -732.63873473 1738.58876375 -734.68642426 1736.53680801 C-735.2963623 1735.92884888 -735.90630035 1735.32088974 -736.53472137 1734.6945076 C-740.23310114 1730.97651411 -743.73771849 1727.13997012 -747.14842987 1723.15607071 C-748.78951571 1721.29864268 -750.50300796 1719.55300889 -752.27236176 1717.81805801 C-755.98418641 1714.1553966 -759.38303403 1710.27869287 -762.77236176 1706.31805801 C-763.66807577 1705.27498679 -764.56391906 1704.23202657 -765.45986176 1703.18915176 C-767.50934679 1700.80205249 -769.55571886 1698.41232373 -771.60048676 1696.02118301 C-773.64607108 1693.63007772 -775.69793124 1691.24466197 -777.75673676 1688.86493301 C-789.9526897 1674.74999409 -801.53265579 1660.2034501 -812.77236176 1645.31805801 C-813.27622406 1644.6530629 -813.78008636 1643.98806778 -814.29921722 1643.3029213 C-817.81588743 1638.66018423 -821.30560454 1633.99818026 -824.77236176 1629.31805801 C-825.52936371 1628.29687881 -825.52936371 1628.29687881 -826.30165863 1627.25506973 C-835.91112648 1614.24351096 -844.89369652 1600.83585539 -853.77236176 1587.31805801 C-854.56586029 1586.11222061 -854.56586029 1586.11222061 -855.3753891 1584.88202286 C-872.08168672 1559.44830656 -887.44490525 1533.15912468 -901.77236176 1506.31805801 C-902.24319183 1505.43956192 -902.71402191 1504.56106583 -903.19911957 1503.65594864 C-943.8821986 1427.5320242 -973.99777267 1346.36827325 -1017.51522064 1119.01037979 C-1017.75962523 1116.45141213 -1018.01511869 1113.89377877 -1018.27285004 1111.33612442 C-1023.93773114 1053.90464638 -1023.81116045 993.26064744 -1018.02559662 935.84631729 C-1017.75863183 933.18098044 -1017.50470359 930.51460031 -1017.25234222 927.84784317 C-1008.51445345 836.5244708 -988.02137346 746.46465376 -932.77236176 606.31805801 C-932.30185394 605.26134903 -931.83134613 604.20464005 -931.34658051 603.11590958 C-919.01846852 575.53392945 -905.66848361 548.18960554 -890.39980316 522.11102676 C-888.60140162 519.02466108 -886.83194882 515.92272023 -885.06533051 512.81805801 C-867.67731761 482.31770057 -848.44182349 452.707862 -827.77236176 424.31805801 C-826.94647552 423.17989639 -826.94647552 423.17989639 -826.10390472 422.01874161 C-814.94258928 406.66463237 -803.24766262 391.81507628 -791.24013519 377.1178627 C-789.95740043 375.54495508 -788.68076762 373.96707518 -787.40517426 372.38837051 C-778.68192956 361.62011608 -769.57042824 351.17461435 -760.18642426 340.97821426 C-758.2773867 338.87456608 -756.40406301 336.75106216 -754.54164886 334.60663223 C-743.19928467 321.63545435 -731.03927404 309.42353675 -718.84487152 297.26019669 C-716.30975499 294.73050498 -713.78011538 292.19542268 -711.25087738 289.65985489 C-709.61382858 288.02346599 -707.97647009 286.38738684 -706.33876801 284.75165176 C-705.59591049 284.00677002 -704.85305298 283.26188828 -704.08768463 282.49443436 C-700.03598045 278.46067367 -695.89825555 274.58966645 -691.55879974 270.8663826 C-688.61165677 268.3120628 -685.79624382 265.61885923 -682.95986176 262.94305801 C-677.91670357 258.21932692 -672.745452 253.74971511 -667.35048676 249.42743301 C-664.74809886 247.29820655 -662.25660674 245.08356444 -659.77236176 242.81805801 C-654.59721359 238.11337786 -649.21033336 233.71369458 -643.77236176 229.31805801 C-642.54116088 228.30723034 -641.31073557 227.29545752 -640.08095551 226.28290176 C-631.52539874 219.25455483 -622.8222083 212.47669444 -613.9144516 205.90106583 C-611.64009724 204.22031433 -609.37210331 202.53119861 -607.10439301 200.84149551 C-597.14270316 193.43603197 -587.07113811 186.2459731 -576.77236176 179.31805801 C-575.68987152 178.58780411 -574.60738129 177.8575502 -573.49208832 177.10516739 C-535.90333327 151.76440486 -497.09629618 129.0440194 -456.77236176 108.31805801 C-455.78348969 107.80662247 -454.79461761 107.29518692 -453.77577972 106.76825333 C-380.61715973 69.030961 -301.18589884 41.85858632 -99.77236176 4.56805801 C-98.81618958 4.46691696 -97.8600174 4.36577591 -96.8748703 4.26156998 C-64.59015064 0.88384822 -32.43967253 -0.06150964 0 0 Z " fill="#26A4E3" transform="translate(1020.7723617553711,-0.3180580139160156)"/>
<path d="M0 0 C11.56018683 10.65012957 14.47989378 26.38780149 15.16357422 41.47045898 C15.79138002 62.7736902 13.92202929 83.53043014 11.3527832 104.65197754 C11.00975008 107.49223587 10.67472606 110.33334494 10.34179688 113.17480469 C7.56037231 136.9021454 4.51361216 160.57823119 1.06738281 184.21826172 C-0.3772965 194.13038346 -1.73027448 204.04422308 -2.93212891 213.98925781 C-3.87573649 221.73662555 -4.9404172 229.46457031 -6.0390625 237.19140625 C-6.20164551 238.34302246 -6.36422852 239.49463867 -6.53173828 240.68115234 C-7.26955194 245.81882733 -8.05663428 250.93311301 -9.01171875 256.03515625 C-10.00400768 261.35804659 -10.69809225 266.69295407 -11.3515625 272.06640625 C-12.49544667 281.14270139 -13.88274893 290.15438843 -15.4230957 299.17114258 C-16.89366345 307.79423918 -18.23139001 316.43419288 -19.54443359 325.08251953 C-20.48509554 331.25485905 -21.47773434 337.41378943 -22.5390625 343.56640625 C-23.71148932 350.37813519 -24.61835188 357.20850296 -25.4765625 364.06640625 C-26.42645171 371.64687031 -27.56532976 379.07886351 -29.23046875 386.5390625 C-29.86105909 389.78445675 -30.35755679 392.99237114 -30.80859375 396.265625 C-32.18135945 406.09354112 -33.86727898 415.86851747 -35.51617432 425.65319824 C-38.79680273 445.13173707 -42.00156954 464.62082527 -45.1015625 484.12890625 C-50.12199842 515.69418642 -55.40440579 547.21298228 -60.83119202 578.71073914 C-61.75837073 584.09753986 -62.67581506 589.4859538 -63.58984375 594.875 C-69.65970634 630.64236628 -75.93695989 666.37303413 -82.46704102 702.05932617 C-84.79280741 714.77082258 -87.05680144 727.49191151 -89.28173828 740.22143555 C-110.17847796 859.73657716 -110.17847796 859.73657716 -134.9765625 888.37890625 C-135.7396875 889.41015625 -136.5028125 890.44140625 -137.2890625 891.50390625 C-145.9769998 900.79797871 -157.84252198 907.60098769 -170.67358398 908.5859375 C-197.95838351 909.46189796 -220.21464188 904.072198 -244.26611328 891.28710938 C-245.77538474 890.4857263 -247.29515899 889.70419113 -248.81640625 888.92578125 C-269.61869215 878.03977299 -288.61312376 863.37577755 -307.6953125 849.79907227 C-319.81792472 841.1964032 -332.14033198 832.88037349 -344.51367188 824.64404297 C-346.60923167 823.24880004 -348.70312009 821.85107454 -350.796875 820.453125 C-357.04774976 816.28506622 -363.3130654 812.14802204 -369.6484375 808.109375 C-379.42509856 801.86865255 -388.99619711 795.31603683 -398.6015625 788.81640625 C-402.36418854 786.2728531 -406.12738196 783.73014016 -409.890625 781.1875 C-410.78697662 780.58162552 -411.68332825 779.97575104 -412.60684204 779.35151672 C-418.19464978 775.57627153 -423.79691129 771.82422446 -429.41259766 768.09057617 C-433.7468795 765.19706541 -438.04934162 762.25728668 -442.3515625 759.31640625 C-444.28385075 757.99739082 -446.21614251 756.67838055 -448.1484375 755.359375 C-449.11974609 754.69599121 -450.09105469 754.03260742 -451.09179688 753.34912109 C-475.92146744 736.39114534 -500.8018478 719.50931354 -525.7265625 702.69140625 C-527.12486801 701.74758591 -527.12486801 701.74758591 -528.55142212 700.78469849 C-538.2981371 694.20692057 -548.05485469 687.64677309 -557.86572266 681.16503906 C-570.68077662 672.69431983 -582.76452305 663.93608322 -593.9765625 653.37890625 C-594.92982422 652.50492188 -594.92982422 652.50492188 -595.90234375 651.61328125 C-605.58343453 642.42590464 -614.08265511 629.41522437 -615.1796875 615.87109375 C-615.5888918 593.02385347 -600.89781622 576.06037664 -585.9765625 560.37890625 C-581.48076455 555.74160297 -576.9156684 551.17340342 -572.34155273 546.61352539 C-570.27796189 544.55533468 -568.21982575 542.49179645 -566.16210938 540.42773438 C-564.8258416 539.09212691 -563.48926393 537.75682941 -562.15234375 536.421875 C-561.55005447 535.81756149 -560.9477652 535.21324799 -560.32722473 534.59062195 C-556.61848737 530.90188433 -552.77841287 527.4243184 -548.82267761 524.00263977 C-546.40859486 521.87935555 -544.13906053 519.63716592 -541.8828125 517.34765625 C-540.99722656 516.45433594 -540.11164062 515.56101562 -539.19921875 514.640625 C-538.30074219 513.72925781 -537.40226563 512.81789063 -536.4765625 511.87890625 C-531.03416551 506.35842609 -525.61761255 500.89648368 -519.69921875 495.8828125 C-517.87225743 494.28784627 -516.17596963 492.60872783 -514.4765625 490.87890625 C-512.15596879 488.51917393 -509.77950752 486.2976912 -507.26953125 484.140625 C-503.0040767 480.43174711 -498.88884258 476.58160073 -494.7890625 472.69140625 C-489.68953764 467.87152022 -484.57999977 463.0650916 -479.4140625 458.31640625 C-474.57424833 453.86602864 -469.76880299 449.38046706 -464.9765625 444.87890625 C-460.16275818 440.35736658 -455.33628652 435.85106349 -450.4765625 431.37890625 C-439.35161374 421.13678045 -428.36129052 410.74936291 -417.35498047 400.38012695 C-413.7739615 397.00730677 -410.18841402 393.6395284 -406.59375 390.28125 C-405.88154297 389.61544922 -405.16933594 388.94964844 -404.43554688 388.26367188 C-403.09667248 387.01263366 -401.75690373 385.76255152 -400.41601562 384.51367188 C-396.73396075 381.07217274 -393.13453131 377.56706255 -389.60253906 373.97143555 C-387.9132094 372.31685636 -386.15663782 370.78067159 -384.3515625 369.25390625 C-379.96815302 365.48451522 -375.93358828 361.39361938 -371.89599609 357.26123047 C-369.07084286 354.3905526 -366.18811433 351.66090079 -363.1328125 349.03515625 C-358.51367743 345.04369313 -354.25454889 340.72989583 -349.9765625 336.37890625 C-348.45828644 334.83472104 -346.93747515 333.29302419 -345.4140625 331.75390625 C-344.75277344 331.08101562 -344.09148438 330.408125 -343.41015625 329.71484375 C-341.46795319 327.85057821 -339.50091811 326.10305498 -337.45727539 324.35522461 C-331.65296687 319.30892482 -326.27737 313.82377166 -320.84765625 308.3828125 C-319.68773195 307.22356352 -318.52765938 306.06446288 -317.3674469 304.90550232 C-314.9478464 302.48736803 -312.53004279 300.06745545 -310.11352539 297.64624023 C-307.03512328 294.56214153 -303.95225227 291.48255531 -300.86801052 288.40429783 C-298.47511381 286.01503592 -296.08463012 283.62337111 -293.69484138 281.2310009 C-292.55981633 280.09531464 -291.42406431 278.96035439 -290.28753471 277.82617378 C-284.30297158 271.85127107 -278.45775882 265.8259017 -272.9765625 259.37890625 C-271.43855611 257.68806957 -269.89746106 256.00003032 -268.3515625 254.31640625 C-262.29189619 247.59493338 -257.56143621 242.18139687 -257.69921875 232.796875 C-258.30215157 227.54031982 -260.35950938 223.67254875 -264.4765625 220.37890625 C-274.86494207 217.4107978 -283.36355841 219.78624104 -292.61132812 224.81030273 C-295.3864337 226.43664249 -298.12277519 228.1135283 -300.8515625 229.81640625 C-302.34876831 230.73957642 -302.34876831 230.73957642 -303.8762207 231.68139648 C-311.92683853 236.66845406 -319.88783068 241.78879761 -327.8034668 246.98681641 C-331.79945286 249.60994158 -335.80430731 252.21889786 -339.81489563 254.81962585 C-350.7292045 261.89734908 -361.60161912 269.03759266 -372.46020508 276.20043945 C-375.30432862 278.07647607 -378.14918739 279.95139376 -380.99414062 281.82617188 C-388.82958066 286.99141219 -396.66265718 292.15963031 -404.46484375 297.375 C-410.44626207 301.37286061 -416.45454287 305.32900686 -422.46875 309.27734375 C-424.34765901 310.51171455 -426.22656523 311.74608959 -428.10546875 312.98046875 C-430.9758 314.8660022 -433.84666445 316.75069704 -436.71923828 318.6328125 C-446.07187926 324.76233537 -455.40286805 330.89917263 -464.50390625 337.3984375 C-473.44321452 343.78220663 -482.61089069 349.80295398 -491.80130005 355.81738281 C-496.70051596 359.02451075 -501.5925798 362.24250613 -506.484375 365.4609375 C-507.42751053 366.08134918 -508.37064606 366.70176086 -509.34236145 367.3409729 C-516.4100464 371.99491468 -523.42933144 376.71054917 -530.40332031 381.50390625 C-540.03581075 388.12227502 -549.7251456 394.65601822 -559.4140625 401.19140625 C-560.33705139 401.81419464 -561.26004028 402.43698303 -562.21099854 403.0786438 C-576.57307985 412.76716591 -590.98113769 422.38481628 -605.40911865 431.974823 C-614.9534025 438.32183694 -624.44350816 444.72296006 -633.79443359 451.35302734 C-641.23067288 456.60673598 -648.81128009 461.63997894 -656.396698 466.67428589 C-664.87413134 472.30074331 -673.33077064 477.95639919 -681.76171875 483.65234375 C-683.16518303 484.60037117 -683.16518303 484.60037117 -684.59700012 485.56755066 C-688.33362747 488.09232808 -692.06986661 490.61766809 -695.80374146 493.14651489 C-705.41963443 499.65904103 -715.05991144 506.12832691 -724.79296875 512.46484375 C-726.00480331 513.25464882 -726.00480331 513.25464882 -727.24111938 514.06040955 C-755.69529085 532.50636301 -787.74813981 546.48858534 -822.0390625 546.62890625 C-823.24111328 546.64953125 -824.44316406 546.67015625 -825.68164062 546.69140625 C-846.07057945 546.7759638 -865.78593096 542.6274857 -885.53881836 537.92797852 C-889.16804232 537.06546041 -892.80129277 536.22190238 -896.43554688 535.38085938 C-908.41347682 532.58409958 -920.24378548 529.54413432 -931.99047852 525.89794922 C-936.40943209 524.53222965 -940.85640502 523.29415262 -945.31785583 522.07550049 C-962.0723908 517.492829 -978.62172966 512.27579275 -995.1796875 507.03637695 C-998.54996175 505.97011654 -1001.9216961 504.90869221 -1005.29492188 503.85180664 C-1067.63177076 484.31897961 -1067.63177076 484.31897961 -1084.9765625 470.37890625 C-1085.63140625 469.86070312 -1086.28625 469.3425 -1086.9609375 468.80859375 C-1093.06988704 463.404523 -1096.13161239 456.32698532 -1097.4921875 448.359375 C-1098.04529131 438.76805216 -1094.46136112 431.58635896 -1088.43359375 424.30859375 C-1081.31032449 416.55774545 -1072.96584666 410.75910176 -1063.9765625 405.37890625 C-1062.95199951 404.76450684 -1062.95199951 404.76450684 -1061.90673828 404.13769531 C-1043.23583731 393.08783431 -1023.11813871 384.96762773 -1003.203125 376.4765625 C-991.446688 371.46041347 -979.73667114 366.34308527 -968.0390625 361.19140625 C-956.80921201 356.24732204 -945.57554433 351.31766288 -934.2890625 346.50390625 C-922.34915578 341.41104658 -910.44137697 336.24640031 -898.5390625 331.06640625 C-897.56781433 330.64374481 -896.59656616 330.22108337 -895.59588623 329.78561401 C-891.54688856 328.02358326 -887.4978925 326.26154883 -883.44894409 324.49940491 C-871.60761732 319.34669971 -859.7609714 314.20626116 -847.9140625 309.06640625 C-846.81611359 308.59003723 -845.71816467 308.11366821 -844.58694458 307.62286377 C-840.11326121 305.68185907 -835.63957294 303.74086567 -831.16584778 301.79995728 C-823.15569339 298.32469351 -815.14609116 294.84815929 -807.13671875 291.37109375 C-781.04346102 280.04378269 -754.9430216 268.73338702 -728.83007812 257.45153809 C-723.71204054 255.24028786 -718.59421309 253.02855199 -713.4765625 250.81640625 C-712.73843323 250.49738342 -712.00030396 250.1783606 -711.23980713 249.84967041 C-701.18700623 245.50429414 -691.13879531 241.14843138 -681.09375 236.78515625 C-658.5122775 226.97663239 -635.92697883 217.17937897 -613.28794861 207.50437927 C-601.70195788 202.55296481 -590.12057988 197.59077271 -578.5390625 192.62890625 C-577.33076782 192.11131744 -576.12247314 191.59372864 -574.87756348 191.06045532 C-559.93447719 184.65871548 -544.99998248 178.23775605 -530.08001709 171.78231812 C-492.15976932 155.37631335 -454.11180078 139.27820233 -415.9765625 123.37890625 C-413.98958141 122.55029759 -412.00260228 121.7216842 -410.015625 120.89306641 C-398.82194526 116.22551843 -387.62665846 111.56183972 -376.43045044 106.90036011 C-370.38968646 104.38494729 -364.35044328 101.8659253 -358.3125 99.34375 C-339.29847609 91.40283701 -320.25683885 83.53165319 -301.1831665 75.73504639 C-296.41762132 73.78705824 -291.65309152 71.83663857 -286.89013672 69.88232422 C-133.66311639 7.0185784 -133.66311639 7.0185784 -85.9765625 -5.62109375 C-85.17863281 -5.83459473 -84.38070312 -6.0480957 -83.55859375 -6.26806641 C-56.26936869 -13.50838085 -23.75779634 -19.48514917 0 0 Z " fill="#FEFEFE" transform="translate(1483.9765625,628.62109375)"/>
</svg>
