<svg width="27" height="27" viewBox="0 0 27 27" fill="none" xmlns="http://www.w3.org/2000/svg">
<path fill-rule="evenodd" clip-rule="evenodd" d="M19.3602 16.2034C19.0298 16.0381 17.4056 15.2391 17.1027 15.129C16.7999 15.0188 16.5798 14.9636 16.3595 15.2943C16.1393 15.6249 15.5062 16.3687 15.3134 16.5892C15.1208 16.8095 14.9281 16.8372 14.5977 16.6718C14.2673 16.5065 13.2029 16.1578 11.9411 15.0326C10.959 14.157 10.296 13.0754 10.1032 12.7448C9.91057 12.4142 10.0827 12.2354 10.2482 12.0708C10.3967 11.9229 10.5785 11.6851 10.7437 11.4922C10.9088 11.2993 10.9639 11.1616 11.074 10.9412C11.1841 10.7208 11.1291 10.5279 11.0465 10.3626C10.9639 10.1973 10.3032 8.57178 10.0279 7.91054C9.7598 7.26658 9.48742 7.35371 9.28464 7.34362C9.09215 7.33403 8.87172 7.332 8.65147 7.332C8.43123 7.332 8.07337 7.41468 7.7705 7.74524C7.4677 8.07585 6.61429 8.8749 6.61429 10.5004C6.61429 12.1259 7.79806 13.6963 7.96325 13.9167C8.12843 14.1372 10.2928 17.4729 13.6067 18.9034C14.3949 19.2437 15.0103 19.4469 15.49 19.5992C16.2814 19.8505 17.0016 19.815 17.5708 19.73C18.2055 19.6352 19.5254 18.931 19.8007 18.1596C20.0759 17.3882 20.0759 16.7269 19.9933 16.5892C19.9108 16.4514 19.6905 16.3687 19.3602 16.2034ZM13.3324 24.4311H13.328C11.3561 24.4303 9.42201 23.9008 7.73482 22.8999L7.33352 22.6617L3.17437 23.7524L4.28454 19.6986L4.02321 19.283C2.9232 17.5339 2.34224 15.5123 2.34307 13.4365C2.34548 7.37948 7.27522 2.45165 13.3368 2.45165C16.272 2.4528 19.0311 3.597 21.1059 5.67343C23.1806 7.74992 24.3226 10.5101 24.3215 13.4454C24.319 19.5029 19.3893 24.4311 13.3324 24.4311ZM22.6851 4.09562C20.1888 1.59732 16.8692 0.2208 13.3324 0.219404C6.04492 0.219404 0.113805 6.14824 0.110883 13.4357C0.109931 15.7652 0.71871 18.0392 1.87568 20.0435L0 26.8926L7.0089 25.0547C8.94002 26.1076 11.1143 26.6625 13.3271 26.6634H13.3325H13.3326C20.6193 26.6634 26.5509 20.7339 26.5539 13.4463C26.5552 9.91465 25.1813 6.59387 22.6851 4.09562Z" fill="white"/>
</svg>
