<?xml version="1.0" encoding="UTF-8"?>
<svg version="1.1" xmlns="http://www.w3.org/2000/svg" width="730" height="770">
<path d="M0 0 C1.98 0.99 1.98 0.99 4 2 C4.33 24.44 4.66 46.88 5 70 C7.97 70.66 10.94 71.32 14 72 C15.96086223 72.55954851 17.91407646 73.14721342 19.85522461 73.77172852 C21.43617165 74.27718956 21.43617165 74.27718956 23.04905701 74.79286194 C24.15564163 75.15125656 25.26222626 75.50965118 26.40234375 75.87890625 C27.56125626 76.25103745 28.72016876 76.62316864 29.91419983 77.00657654 C32.34778857 77.78886489 34.78075792 78.57308245 37.21313477 79.35913086 C40.94862796 80.56609552 44.68604843 81.76693406 48.42382812 82.96679688 C50.79178094 83.72881166 53.15962346 84.49116926 55.52734375 85.25390625 C57.20847511 85.79453453 57.20847511 85.79453453 58.92356873 86.34608459 C59.95546829 86.67990646 60.98736786 87.01372833 62.05053711 87.35766602 C62.96048935 87.65141617 63.87044159 87.94516632 64.80796814 88.24781799 C67 89 67 89 69 90 C69 91.65 69 93.3 69 95 C68.21295181 95.25642776 67.42590363 95.51285553 66.61500549 95.77705383 C59.20912897 98.19231208 51.80712504 100.61901411 44.40927219 103.05874348 C40.6055488 104.31271743 36.80046152 105.56217087 32.99194336 106.80151367 C29.31857363 107.99705804 25.6492031 109.20418674 21.98234367 110.41954613 C20.58064623 110.88184025 19.17754437 111.33989778 17.7730732 111.79369545 C15.81043694 112.42863187 13.85327435 113.0782679 11.89672852 113.73168945 C10.77976089 114.09809036 9.66279327 114.46449127 8.51197815 114.84199524 C7.68302536 115.22413681 6.85407257 115.60627838 6 116 C4.89023959 119.32928124 4.87969105 121.80027357 4.88647461 125.30737305 C4.88658791 127.25905647 4.88658791 127.25905647 4.88670349 129.25016785 C4.89181015 130.6706852 4.89702615 132.09120217 4.90234375 133.51171875 C4.90420909 134.96474662 4.90563244 136.41777511 4.90663147 137.87080383 C4.91044754 141.69306172 4.92027007 145.51528155 4.93133545 149.33752441 C4.94156913 153.23868291 4.94613329 157.13984757 4.95117188 161.04101562 C4.96189314 168.69402776 4.97895865 176.34700854 5 184 C3.35 184.33 1.7 184.66 0 185 C-13.19746173 167.47589789 -26.19159588 149.81044379 -39 132 C-45.95584868 133.41363394 -52.56005635 135.39182467 -59.28125 137.66015625 C-61.44392822 138.37850272 -63.60669123 139.09659395 -65.76953125 139.81445312 C-69.14098593 140.93900844 -72.51145442 142.0663493 -75.88037109 143.19848633 C-79.1572769 144.29771366 -82.43771687 145.38582108 -85.71875 146.47265625 C-87.21444519 146.98047386 -87.21444519 146.98047386 -88.74035645 147.49855042 C-94.54829955 149.41441536 -99.89621413 150.55038376 -106 151 C-106.40818212 148.45372103 -106.35845168 146.63048419 -105.06835938 144.36132812 C-103.67880271 142.44668553 -102.23054004 140.59522855 -100.75 138.75 C-99.64360119 137.32595019 -98.5395054 135.90010863 -97.4375 134.47265625 C-96.86773437 133.73805176 -96.29796875 133.00344727 -95.7109375 132.24658203 C-92.95702239 128.63049658 -90.35250584 124.91332039 -87.75 121.1875 C-86.76074211 119.77581355 -85.77116674 118.36434952 -84.78125 116.953125 C-84.31332031 116.28603516 -83.84539062 115.61894531 -83.36328125 114.93164062 C-80.29442427 110.58336046 -77.15008408 106.28967332 -74 102 C-92.3345549 94.1634233 -119.27704287 92.47535867 -138.00488281 99.78222656 C-152.79180569 106.0014121 -162.45027097 115.25119774 -169 130 C-171.62784084 136.82261258 -173.60649152 143.82515881 -175 151 C-173.90010742 151.01458252 -172.80021484 151.02916504 -171.66699219 151.04418945 C-167.58153977 151.1022147 -163.49663609 151.17944706 -159.41162109 151.26245117 C-157.64445917 151.29568069 -155.87719161 151.32371882 -154.10986328 151.34643555 C-151.56757649 151.38001831 -149.02625592 151.43233451 -146.484375 151.48828125 C-145.69569031 151.49467117 -144.90700562 151.5010611 -144.09442139 151.50764465 C-140.84333263 151.59455289 -138.41464609 151.77409418 -135.53222656 153.34448242 C-133.08545239 155.98813692 -132.87078772 158.56575612 -132.79467773 162.01245117 C-132.77473251 162.81305466 -132.75478729 163.61365814 -132.73423767 164.43852234 C-132.70916893 165.72772331 -132.70916893 165.72772331 -132.68359375 167.04296875 C-132.66281265 167.9265657 -132.64203156 168.81016266 -132.62062073 169.72053528 C-132.55524246 172.54277785 -132.49629472 175.36511335 -132.4375 178.1875 C-132.39430363 180.10092106 -132.35068898 182.01433273 -132.30664062 183.92773438 C-132.19957305 188.61839437 -132.09827248 193.30914783 -132 198 C-130.71258911 198.39771606 -130.71258911 198.39771606 -129.39916992 198.8034668 C-97.08228657 208.89617549 -66.88824767 221.85436259 -40.60009766 243.67626953 C-39.05319008 244.95599686 -37.48586737 246.2109223 -35.91796875 247.46484375 C-20.98273366 259.55077941 -7.24922484 273.41690294 4 289 C4.73863281 289.99386719 5.47726562 290.98773438 6.23828125 292.01171875 C17.36146717 307.44192871 26.33847841 324.19785482 33 342 C33.27537598 342.73250977 33.55075195 343.46501953 33.83447266 344.21972656 C55.4629894 402.80836684 53.61566811 471.9252304 27.53686523 528.69213867 C17.48077237 549.97764018 4.73765812 569.46973881 -11 587 C-11.44408203 587.49902832 -11.88816406 587.99805664 -12.34570312 588.51220703 C-31.68680155 610.21180631 -53.3582813 628.12255594 -79 642 C-79.69689941 642.37721191 -80.39379883 642.75442383 -81.11181641 643.14306641 C-136.63099472 672.55357028 -204.50190203 677.68694048 -264.26879883 659.91674805 C-311.27079341 645.36955524 -355.59463289 617.0769339 -386 578 C-386.77601563 577.0409375 -387.55203125 576.081875 -388.3515625 575.09375 C-399.40840625 561.19371786 -408.5355711 546.10078946 -416 530 C-416.29712891 529.37625488 -416.59425781 528.75250977 -416.90039062 528.10986328 C-427.88946783 504.97653899 -434.46335156 479.45497209 -437 454 C-437.11085938 452.93910156 -437.22171875 451.87820313 -437.3359375 450.78515625 C-441.0320464 408.77937802 -433.65759501 367.1979058 -416 329 C-415.66210449 328.26765137 -415.32420898 327.53530273 -414.97607422 326.78076172 C-405.35775295 306.19745835 -392.47263848 287.61209635 -377 271 C-375.80759878 269.62924817 -374.61986117 268.25442137 -373.4375 266.875 C-366.60057255 259.06807369 -359.11278582 252.45668742 -351 246 C-349.94964668 245.13647886 -348.90019037 244.27186565 -347.8515625 243.40625 C-324.53509304 224.35865275 -297.93341868 211.69204208 -269.80078125 201.47265625 C-268.64964844 201.04855469 -267.49851562 200.62445313 -266.3125 200.1875 C-265.35988281 199.85105469 -264.40726563 199.51460937 -263.42578125 199.16796875 C-260.63243309 197.82302334 -258.97546339 196.38045588 -257 194 C-255.63852364 188.1002691 -255.97773481 182.10662783 -256.01196289 176.08178711 C-256.07499546 158.67869849 -256.07499546 158.67869849 -252 154 C-249.12968559 152.26963445 -247.02375351 151.75286895 -243.69042969 151.77294922 C-242.84986023 151.77310028 -242.00929077 151.77325134 -241.14324951 151.77340698 C-240.24519592 151.78372955 -239.34714233 151.79405212 -238.421875 151.8046875 C-237.4953009 151.8075174 -236.56872681 151.81034729 -235.61407471 151.81326294 C-232.65925091 151.82444389 -229.70473195 151.84954473 -226.75 151.875 C-224.74479605 151.88503249 -222.73958734 151.89415787 -220.734375 151.90234375 C-215.82279949 151.92437642 -210.91145141 151.95889205 -206 152 C-205.9387796 151.33114777 -205.8775592 150.66229553 -205.81448364 149.97317505 C-205.73020111 149.08628998 -205.64591858 148.19940491 -205.55908203 147.28564453 C-205.47723663 146.4105423 -205.39539124 145.53544006 -205.31106567 144.63381958 C-202.73721502 122.84080666 -192.31188747 99.01998357 -175 85 C-159.02537353 73.2366819 -140.13877586 65.88672538 -120.10546875 65.8671875 C-118.81962891 65.86589844 -117.53378906 65.86460937 -116.20898438 65.86328125 C-115.21644653 65.86642334 -115.21644653 65.86642334 -114.20385742 65.86962891 C-112.20296822 65.8749588 -110.20205953 65.86916333 -108.20117188 65.86328125 C-101.07136113 65.8704075 -94.07432416 66.08293864 -87 67 C-89.20774591 63.99956731 -91.41630623 60.999735 -93.625 58 C-94.24246094 57.16082031 -94.85992187 56.32164062 -95.49609375 55.45703125 C-96.41455078 54.20986328 -96.41455078 54.20986328 -97.3515625 52.9375 C-98.26252686 51.69613281 -98.26252686 51.69613281 -99.19189453 50.4296875 C-100.3769637 48.83722081 -101.58058639 47.25835784 -102.80419922 45.6953125 C-103.62815186 44.63957031 -103.62815186 44.63957031 -104.46875 43.5625 C-104.96052734 42.94503906 -105.45230469 42.32757813 -105.95898438 41.69140625 C-107 40 -107 40 -106.875 37 C-106.441875 36.01 -106.441875 36.01 -106 35 C-99.08088658 35.62929465 -92.77230013 37.88401616 -86.20703125 40.0703125 C-84.33777332 40.68212894 -82.46851143 41.29393356 -80.59901714 41.90502739 C-76.01046018 43.40689663 -71.42605888 44.92133556 -66.84301758 46.43994141 C-64.26171403 47.2947633 -61.67870425 48.14403476 -59.09367371 48.98751831 C-56.66344492 49.78100389 -54.23600666 50.5830975 -51.8117218 51.39456177 C-50.71345566 51.75178314 -49.61518951 52.10900452 -48.48364258 52.47705078 C-47.51880447 52.79602325 -46.55396637 53.11499573 -45.55989075 53.44363403 C-42.88983843 54.02394249 -41.51997467 53.99178038 -39 53 C-37.48320557 51.52294982 -37.48320557 51.52294982 -36.22265625 49.59765625 C-35.71589355 48.88134033 -35.20913086 48.16502441 -34.68701172 47.42700195 C-34.15092285 46.64671631 -33.61483398 45.86643066 -33.0625 45.0625 C-31.90001275 43.41126598 -30.73724444 41.76022981 -29.57421875 40.109375 C-28.9817334 39.26052734 -28.38924805 38.41167969 -27.77880859 37.53710938 C-25.01809509 33.59951197 -22.19668824 29.70651451 -19.375 25.8125 C-18.84229492 25.07523682 -18.30958984 24.33797363 -17.76074219 23.57836914 C-14.12286777 18.54383062 -10.4756251 13.5161988 -6.8125 8.5 C-6.12583252 7.5560437 -6.12583252 7.5560437 -5.42529297 6.59301758 C-3.71397826 4.25569964 -2.05181371 2.05181371 0 0 Z M-266.94921875 302.09765625 C-274.63179851 309.22416357 -275.01394289 319.31002555 -275.49989319 329.1524353 C-275.54158314 329.94523695 -275.58327309 330.73803859 -275.62622637 331.55486453 C-275.76436402 334.19707243 -275.89794059 336.83949031 -276.03149414 339.48193359 C-276.12990612 341.38327847 -276.22858136 343.28460973 -276.32749939 345.18592834 C-276.59503333 350.34596083 -276.85840661 355.5061976 -277.12068486 360.66649961 C-277.34078205 364.99150978 -277.56264508 369.31642874 -277.78441805 373.64135325 C-278.30868953 383.86816698 -278.8293105 394.09516236 -279.34790039 404.32226562 C-279.88001455 414.81443502 -280.41918105 425.30622545 -280.96175677 435.7978586 C-281.42919703 444.84267023 -281.89164011 453.88772877 -282.35034078 462.93298781 C-282.62349493 468.3178511 -282.89852827 473.70260061 -283.17860603 479.08710861 C-284.62350812 505.94616377 -284.62350812 505.94616377 -285.38452148 532.83056641 C-285.40993798 533.78314016 -285.43535448 534.73571392 -285.46154118 535.71715355 C-285.47391486 542.55223916 -283.73222596 547.68880235 -279.359375 552.98828125 C-274.16069547 557.26583553 -269.32368901 559.56915142 -262.625 560.4375 C-252.0665421 559.16320336 -241.95709646 552.61530347 -232.5625 547.875 C-231.025461 547.10304997 -229.48835109 546.33124109 -227.95117188 545.55957031 C-219.53958116 541.32948143 -211.16478825 537.03929215 -202.85766602 532.60693359 C-195.18379158 528.5269774 -187.39328116 524.68397983 -179.61132812 520.81542969 C-173.19818162 517.62014056 -166.82479096 514.36659903 -160.5 511 C-151.94840349 506.44810308 -143.28773877 502.12862216 -134.61328125 497.81640625 C-128.1994854 494.62078698 -121.82543405 491.36694134 -115.5 488 C-108.06132637 484.04049659 -100.5454447 480.25175522 -93 476.5 C-66.35409062 465.51125062 -66.35409062 465.51125062 -47 446 C-45.06873609 440.20620827 -44.96743959 433.47118385 -47.4375 427.8125 C-52.65899774 418.96645744 -61.96748761 413.95002635 -70.4921875 408.765625 C-75.37105144 405.7947569 -80.15570979 402.68651107 -84.9375 399.5625 C-86.64062171 398.45181787 -88.34374669 397.34114076 -90.046875 396.23046875 C-90.87767578 395.68825684 -91.70847656 395.14604492 -92.56445312 394.58740234 C-96.26649748 392.17454224 -99.97649859 389.77405301 -103.6875 387.375 C-104.72185181 386.70609741 -104.72185181 386.70609741 -105.77709961 386.02368164 C-107.15913539 385.12997707 -108.54121525 384.23634065 -109.92333984 383.34277344 C-113.44948316 381.06276071 -116.97468809 378.78129794 -120.5 376.5 C-121.9166623 375.58332659 -123.33332897 374.66665992 -124.75 373.75 C-138.91666667 364.58333333 -153.08333333 355.41666667 -167.25 346.25 C-167.9510083 345.79641113 -168.6520166 345.34282227 -169.37426758 344.87548828 C-170.79339311 343.957221 -172.21250114 343.03892665 -173.6315918 342.12060547 C-177.13549597 339.85320799 -180.63968595 337.58625499 -184.14453125 335.3203125 C-191.76938272 330.38995742 -199.38802999 325.45022281 -207 320.5 C-213.41416081 316.32946551 -219.8292228 312.16034316 -226.25 308 C-226.91644531 307.56751953 -227.58289063 307.13503906 -228.26953125 306.68945312 C-229.5405569 305.86649611 -230.81329878 305.04618259 -232.08789062 304.22875977 C-233.42481398 303.36962605 -234.75644751 302.50222989 -236.08398438 301.62866211 C-246.87476644 294.64468424 -256.39980267 294.64565076 -266.94921875 302.09765625 Z " fill="#40ED7A" transform="translate(547,85)"/>
</svg>
