<?xml version="1.0" encoding="UTF-8"?>
<svg version="1.1" xmlns="http://www.w3.org/2000/svg" width="1160" height="1294">
<path d="M0 0 C1.98 0.99 1.98 0.99 4 2 C4.33 24.44 4.66 46.88 5 70 C7.97 70.66 10.94 71.32 14 72 C15.96086223 72.55954851 17.91407646 73.14721342 19.85522461 73.77172852 C21.43617165 74.27718956 21.43617165 74.27718956 23.04905701 74.79286194 C24.15564163 75.15125656 25.26222626 75.50965118 26.40234375 75.87890625 C27.56125626 76.25103745 28.72016876 76.62316864 29.91419983 77.00657654 C32.34778857 77.78886489 34.78075792 78.57308245 37.21313477 79.35913086 C40.94862796 80.56609552 44.68604843 81.76693406 48.42382812 82.96679688 C50.79178094 83.72881166 53.15962346 84.49116926 55.52734375 85.25390625 C57.20847511 85.79453453 57.20847511 85.79453453 58.92356873 86.34608459 C59.95546829 86.67990646 60.98736786 87.01372833 62.05053711 87.35766602 C62.96048935 87.65141617 63.87044159 87.94516632 64.80796814 88.24781799 C67 89 67 89 69 90 C69 91.65 69 93.3 69 95 C68.21295181 95.25642776 67.42590363 95.51285553 66.61500549 95.77705383 C59.20912897 98.19231208 51.80712504 100.61901411 44.40927219 103.05874348 C40.6055488 104.31271743 36.80046152 105.56217087 32.99194336 106.80151367 C29.31857363 107.99705804 25.6492031 109.20418674 21.98234367 110.41954613 C20.58064623 110.88184025 19.17754437 111.33989778 17.7730732 111.79369545 C15.81043694 112.42863187 13.85327435 113.0782679 11.89672852 113.73168945 C10.77976089 114.09809036 9.66279327 114.46449127 8.51197815 114.84199524 C7.68302536 115.22413681 6.85407257 115.60627838 6 116 C4.89023959 119.32928124 4.87969105 121.80027357 4.88647461 125.30737305 C4.88658791 127.25905647 4.88658791 127.25905647 4.88670349 129.25016785 C4.89181015 130.6706852 4.89702615 132.09120217 4.90234375 133.51171875 C4.90420909 134.96474662 4.90563244 136.41777511 4.90663147 137.87080383 C4.91044754 141.69306172 4.92027007 145.51528155 4.93133545 149.33752441 C4.94156913 153.23868291 4.94613329 157.13984757 4.95117188 161.04101562 C4.96189314 168.69402776 4.97895865 176.34700854 5 184 C3.35 184.33 1.7 184.66 0 185 C-13.19746173 167.47589789 -26.19159588 149.81044379 -39 132 C-45.95584868 133.41363394 -52.56005635 135.39182467 -59.28125 137.66015625 C-61.44392822 138.37850272 -63.60669123 139.09659395 -65.76953125 139.81445312 C-69.14098593 140.93900844 -72.51145442 142.0663493 -75.88037109 143.19848633 C-79.1572769 144.29771366 -82.43771687 145.38582108 -85.71875 146.47265625 C-87.21444519 146.98047386 -87.21444519 146.98047386 -88.74035645 147.49855042 C-94.54829955 149.41441536 -99.89621413 150.55038376 -106 151 C-106.40818212 148.45372103 -106.35845168 146.63048419 -105.06835938 144.36132812 C-103.67880271 142.44668553 -102.23054004 140.59522855 -100.75 138.75 C-99.64360119 137.32595019 -98.5395054 135.90010863 -97.4375 134.47265625 C-96.86773438 133.73805176 -96.29796875 133.00344727 -95.7109375 132.24658203 C-92.95702239 128.63049658 -90.35250584 124.91332039 -87.75 121.1875 C-86.76074211 119.77581355 -85.77116674 118.36434952 -84.78125 116.953125 C-84.31332031 116.28603516 -83.84539062 115.61894531 -83.36328125 114.93164062 C-80.29442427 110.58336046 -77.15008408 106.28967332 -74 102 C-92.3345549 94.1634233 -119.27704287 92.47535867 -138.00488281 99.78222656 C-152.79180569 106.0014121 -162.45027097 115.25119774 -169 130 C-171.62784084 136.82261258 -173.60649152 143.82515881 -175 151 C-173.90010742 151.01458252 -172.80021484 151.02916504 -171.66699219 151.04418945 C-167.58153977 151.1022147 -163.49663609 151.17944706 -159.41162109 151.26245117 C-157.64445917 151.29568069 -155.87719161 151.32371882 -154.10986328 151.34643555 C-151.56757649 151.38001831 -149.02625592 151.43233451 -146.484375 151.48828125 C-145.69569031 151.49467117 -144.90700562 151.5010611 -144.09442139 151.50764465 C-140.84333263 151.59455289 -138.41464609 151.77409418 -135.53222656 153.34448242 C-133.08545239 155.98813692 -132.87078772 158.56575612 -132.79467773 162.01245117 C-132.77473251 162.81305466 -132.75478729 163.61365814 -132.73423767 164.43852234 C-132.70916893 165.72772331 -132.70916893 165.72772331 -132.68359375 167.04296875 C-132.66281265 167.9265657 -132.64203156 168.81016266 -132.62062073 169.72053528 C-132.55524246 172.54277785 -132.49629472 175.36511335 -132.4375 178.1875 C-132.39430363 180.10092106 -132.35068898 182.01433273 -132.30664062 183.92773438 C-132.19957305 188.61839437 -132.09827248 193.30914783 -132 198 C-130.71258911 198.39771606 -130.71258911 198.39771606 -129.39916992 198.8034668 C-97.08228657 208.89617549 -66.88824767 221.85436259 -40.60009766 243.67626953 C-39.05319008 244.95599686 -37.48586737 246.2109223 -35.91796875 247.46484375 C-20.98273366 259.55077941 -7.24922484 273.41690294 4 289 C4.73863281 289.99386719 5.47726562 290.98773438 6.23828125 292.01171875 C17.36146717 307.44192871 26.33847841 324.19785482 33 342 C33.27537598 342.73250977 33.55075195 343.46501953 33.83447266 344.21972656 C55.4629894 402.80836684 53.61566811 471.9252304 27.53686523 528.69213867 C17.48077237 549.97764018 4.73765812 569.46973881 -11 587 C-11.44408203 587.49902832 -11.88816406 587.99805664 -12.34570312 588.51220703 C-31.68680155 610.21180631 -53.3582813 628.12255594 -79 642 C-79.69689941 642.37721191 -80.39379883 642.75442383 -81.11181641 643.14306641 C-136.63099472 672.55357028 -204.50190203 677.68694048 -264.26879883 659.91674805 C-311.27079341 645.36955524 -355.59463289 617.0769339 -386 578 C-386.77601563 577.0409375 -387.55203125 576.081875 -388.3515625 575.09375 C-399.40840625 561.19371786 -408.5355711 546.10078946 -416 530 C-416.29712891 529.37625488 -416.59425781 528.75250977 -416.90039062 528.10986328 C-427.88946783 504.97653899 -434.46335156 479.45497209 -437 454 C-437.11085938 452.93910156 -437.22171875 451.87820313 -437.3359375 450.78515625 C-441.0320464 408.77937802 -433.65759501 367.1979058 -416 329 C-415.66210449 328.26765137 -415.32420898 327.53530273 -414.97607422 326.78076172 C-405.35775295 306.19745835 -392.47263848 287.61209635 -377 271 C-375.80759878 269.62924817 -374.61986117 268.25442137 -373.4375 266.875 C-366.60057255 259.06807369 -359.11278582 252.45668742 -351 246 C-349.94964668 245.13647886 -348.90019037 244.27186565 -347.8515625 243.40625 C-324.53509304 224.35865275 -297.93341868 211.69204208 -269.80078125 201.47265625 C-268.64964844 201.04855469 -267.49851562 200.62445313 -266.3125 200.1875 C-265.35988281 199.85105469 -264.40726563 199.51460937 -263.42578125 199.16796875 C-260.63243309 197.82302334 -258.97546339 196.38045588 -257 194 C-255.63852364 188.1002691 -255.97773481 182.10662783 -256.01196289 176.08178711 C-256.07499546 158.67869849 -256.07499546 158.67869849 -252 154 C-249.12968559 152.26963445 -247.02375351 151.75286895 -243.69042969 151.77294922 C-242.84986023 151.77310028 -242.00929077 151.77325134 -241.14324951 151.77340698 C-240.24519592 151.78372955 -239.34714233 151.79405212 -238.421875 151.8046875 C-237.4953009 151.8075174 -236.56872681 151.81034729 -235.61407471 151.81326294 C-232.65925091 151.82444389 -229.70473195 151.84954473 -226.75 151.875 C-224.74479605 151.88503249 -222.73958734 151.89415787 -220.734375 151.90234375 C-215.82279949 151.92437642 -210.91145141 151.95889205 -206 152 C-205.9387796 151.33114777 -205.8775592 150.66229553 -205.81448364 149.97317505 C-205.73020111 149.08628998 -205.64591858 148.19940491 -205.55908203 147.28564453 C-205.47723663 146.4105423 -205.39539124 145.53544006 -205.31106567 144.63381958 C-202.73721502 122.84080666 -192.31188747 99.01998357 -175 85 C-159.02537353 73.2366819 -140.13877586 65.88672538 -120.10546875 65.8671875 C-118.81962891 65.86589844 -117.53378906 65.86460937 -116.20898438 65.86328125 C-115.21644653 65.86642334 -115.21644653 65.86642334 -114.20385742 65.86962891 C-112.20296822 65.8749588 -110.20205953 65.86916333 -108.20117188 65.86328125 C-101.07136113 65.8704075 -94.07432416 66.08293864 -87 67 C-89.20774591 63.99956731 -91.41630623 60.999735 -93.625 58 C-94.24246094 57.16082031 -94.85992188 56.32164062 -95.49609375 55.45703125 C-96.41455078 54.20986328 -96.41455078 54.20986328 -97.3515625 52.9375 C-98.26252686 51.69613281 -98.26252686 51.69613281 -99.19189453 50.4296875 C-100.3769637 48.83722081 -101.58058639 47.25835784 -102.80419922 45.6953125 C-103.62815186 44.63957031 -103.62815186 44.63957031 -104.46875 43.5625 C-104.96052734 42.94503906 -105.45230469 42.32757813 -105.95898438 41.69140625 C-107 40 -107 40 -106.875 37 C-106.441875 36.01 -106.441875 36.01 -106 35 C-99.08088658 35.62929465 -92.77230013 37.88401616 -86.20703125 40.0703125 C-84.33777332 40.68212894 -82.46851143 41.29393356 -80.59901714 41.90502739 C-76.01046018 43.40689663 -71.42605888 44.92133556 -66.84301758 46.43994141 C-64.26171403 47.2947633 -61.67870425 48.14403476 -59.09367371 48.98751831 C-56.66344492 49.78100389 -54.23600666 50.5830975 -51.8117218 51.39456177 C-50.71345566 51.75178314 -49.61518951 52.10900452 -48.48364258 52.47705078 C-47.51880447 52.79602325 -46.55396637 53.11499573 -45.55989075 53.44363403 C-42.88983843 54.02394249 -41.51997467 53.99178038 -39 53 C-37.48320557 51.52294982 -37.48320557 51.52294982 -36.22265625 49.59765625 C-35.71589355 48.88134033 -35.20913086 48.16502441 -34.68701172 47.42700195 C-34.15092285 46.64671631 -33.61483398 45.86643066 -33.0625 45.0625 C-31.90001275 43.41126598 -30.73724444 41.76022981 -29.57421875 40.109375 C-28.9817334 39.26052734 -28.38924805 38.41167969 -27.77880859 37.53710938 C-25.01809509 33.59951197 -22.19668824 29.70651451 -19.375 25.8125 C-18.84229492 25.07523682 -18.30958984 24.33797363 -17.76074219 23.57836914 C-14.12286777 18.54383062 -10.4756251 13.5161988 -6.8125 8.5 C-6.12583252 7.5560437 -6.12583252 7.5560437 -5.42529297 6.59301758 C-3.71397826 4.25569964 -2.05181371 2.05181371 0 0 Z M-266.94921875 302.09765625 C-274.63179851 309.22416357 -275.01394289 319.31002555 -275.49989319 329.1524353 C-275.54158314 329.94523695 -275.58327309 330.73803859 -275.62622637 331.55486453 C-275.76436402 334.19707243 -275.89794059 336.83949031 -276.03149414 339.48193359 C-276.12990612 341.38327847 -276.22858136 343.28460973 -276.32749939 345.18592834 C-276.59503333 350.34596083 -276.85840661 355.5061976 -277.12068486 360.66649961 C-277.34078205 364.99150978 -277.56264508 369.31642874 -277.78441805 373.64135325 C-278.30868953 383.86816698 -278.8293105 394.09516236 -279.34790039 404.32226562 C-279.88001455 414.81443502 -280.41918105 425.30622545 -280.96175677 435.7978586 C-281.42919703 444.84267023 -281.89164011 453.88772877 -282.35034078 462.93298781 C-282.62349493 468.3178511 -282.89852827 473.70260061 -283.17860603 479.08710861 C-284.62350812 505.94616377 -284.62350812 505.94616377 -285.38452148 532.83056641 C-285.40993798 533.78314016 -285.43535448 534.73571392 -285.46154118 535.71715355 C-285.47391486 542.55223916 -283.73222596 547.68880235 -279.359375 552.98828125 C-274.16069547 557.26583553 -269.32368901 559.56915142 -262.625 560.4375 C-252.0665421 559.16320336 -241.95709646 552.61530347 -232.5625 547.875 C-231.025461 547.10304997 -229.48835109 546.33124109 -227.95117188 545.55957031 C-219.53958116 541.32948143 -211.16478825 537.03929215 -202.85766602 532.60693359 C-195.18379158 528.5269774 -187.39328116 524.68397983 -179.61132812 520.81542969 C-173.19818162 517.62014056 -166.82479096 514.36659903 -160.5 511 C-151.94840349 506.44810308 -143.28773877 502.12862216 -134.61328125 497.81640625 C-128.1994854 494.62078698 -121.82543405 491.36694134 -115.5 488 C-108.06132637 484.04049659 -100.5454447 480.25175522 -93 476.5 C-66.35409062 465.51125062 -66.35409062 465.51125062 -47 446 C-45.06873609 440.20620827 -44.96743959 433.47118385 -47.4375 427.8125 C-52.65899774 418.96645744 -61.96748761 413.95002635 -70.4921875 408.765625 C-75.37105144 405.7947569 -80.15570979 402.68651107 -84.9375 399.5625 C-86.64062171 398.45181787 -88.34374669 397.34114076 -90.046875 396.23046875 C-90.87767578 395.68825684 -91.70847656 395.14604492 -92.56445312 394.58740234 C-96.26649748 392.17454224 -99.97649859 389.77405301 -103.6875 387.375 C-104.72185181 386.70609741 -104.72185181 386.70609741 -105.77709961 386.02368164 C-107.15913539 385.12997707 -108.54121525 384.23634065 -109.92333984 383.34277344 C-113.44948316 381.06276071 -116.97468809 378.78129794 -120.5 376.5 C-121.9166623 375.58332659 -123.33332897 374.66665992 -124.75 373.75 C-138.91666667 364.58333333 -153.08333333 355.41666667 -167.25 346.25 C-167.9510083 345.79641113 -168.6520166 345.34282227 -169.37426758 344.87548828 C-170.79339311 343.957221 -172.21250114 343.03892665 -173.6315918 342.12060547 C-177.13549597 339.85320799 -180.63968595 337.58625499 -184.14453125 335.3203125 C-191.76938272 330.38995742 -199.38802999 325.45022281 -207 320.5 C-213.41416081 316.32946551 -219.8292228 312.16034316 -226.25 308 C-226.91644531 307.56751953 -227.58289063 307.13503906 -228.26953125 306.68945312 C-229.5405569 305.86649611 -230.81329878 305.04618259 -232.08789062 304.22875977 C-233.42481398 303.36962605 -234.75644751 302.50222989 -236.08398438 301.62866211 C-246.87476644 294.64468424 -256.39980267 294.64565076 -266.94921875 302.09765625 Z " fill="#40ED7A" transform="translate(736,201)"/>
<path d="M0 0 C6.27816656 5.82688186 9.87619694 12.87653048 10.28125 21.46484375 C10.69026113 32.76377634 10.00863294 41.78616145 1.96875 50.515625 C-1.39757271 53.60088851 -4.98630129 56.19303995 -9.02734375 58.33984375 C-8.38667969 58.63117188 -7.74601563 58.9225 -7.0859375 59.22265625 C2.93051364 63.969648 9.95906089 69.40871486 13.98046875 79.9921875 C17.17236997 90.7037479 16.67473019 102.41207867 12.38671875 112.77734375 C6.0279375 124.30043905 -4.43638949 130.76833446 -16.75195312 134.46362305 C-27.44818321 137.32504 -38.21720189 137.70844693 -49.21484375 137.65234375 C-49.93801788 137.65085327 -50.66119202 137.64936279 -51.40628052 137.64782715 C-85.4440117 137.52181546 -85.4440117 137.52181546 -97.08984375 127.77734375 C-99.87699985 124.27092156 -100.15402571 121.6449615 -100.17451477 117.3052063 C-100.18167007 116.264953 -100.18882538 115.22469971 -100.19619751 114.15292358 C-100.19888641 113.01207306 -100.20157532 111.87122253 -100.2043457 110.69580078 C-100.2109169 109.49395142 -100.2174881 108.29210205 -100.22425842 107.05383301 C-100.24400334 103.06843823 -100.25565678 99.08308368 -100.265625 95.09765625 C-100.26967321 93.72488256 -100.27379015 92.35210907 -100.27797508 90.97933578 C-100.29701925 84.53099472 -100.31125318 78.08266507 -100.31958705 71.6343013 C-100.32936385 64.19266067 -100.35569777 56.75131713 -100.39608794 49.30978119 C-100.42624559 43.55597211 -100.44105548 37.80224824 -100.44436806 32.04836166 C-100.44671855 28.61247116 -100.45567835 25.17689835 -100.48082924 21.74109268 C-100.50843485 17.90819015 -100.50427988 14.07567908 -100.49731445 10.24267578 C-100.51012451 9.10587372 -100.52293457 7.96907166 -100.53613281 6.79782104 C-100.48508988 -0.8903775 -100.48508988 -0.8903775 -98.14640808 -4.82327271 C-77.13935295 -23.03296711 -20.44148465 -16.73917337 0 0 Z M-69.02734375 12.33984375 C-69.02734375 24.21984375 -69.02734375 36.09984375 -69.02734375 48.33984375 C-64.07734375 48.40171875 -59.12734375 48.46359375 -54.02734375 48.52734375 C-51.70896484 48.56831177 -51.70896484 48.56831177 -49.34375 48.61010742 C-40.5543797 48.66326894 -34.24780428 48.12694033 -26.71484375 43.15234375 C-22.9218447 39.18292613 -21.15826567 35.55834089 -20.93359375 30.03515625 C-21.28223701 24.85780386 -22.52307487 21.30520064 -26.02734375 17.33984375 C-33.85744923 11.91900149 -41.71419 11.01829078 -51.02734375 11.15234375 C-52.30351563 11.15331055 -52.30351563 11.15331055 -53.60546875 11.15429688 C-58.89814864 11.19082611 -63.69503143 11.67330471 -69.02734375 12.33984375 Z M-69.02734375 72.33984375 C-69.05199224 77.73331363 -69.07017906 83.126751 -69.08227539 88.52026367 C-69.08731606 90.3565325 -69.09414852 92.19279729 -69.1027832 94.02905273 C-69.11486047 96.66260776 -69.12057456 99.29610991 -69.125 101.9296875 C-69.13016129 102.75572983 -69.13532257 103.58177216 -69.14064026 104.43284607 C-69.1408358 106.40220743 -69.08938527 108.37145989 -69.02734375 110.33984375 C-64.91992429 114.44726321 -52.17029924 112.64750152 -46.81494141 112.65893555 C-37.63896384 112.54578706 -29.37028045 111.72733438 -21.90234375 105.90234375 C-16.82516348 98.96353071 -16.06483834 93.91587511 -17.02734375 85.33984375 C-19.29547707 80.45463352 -22.64476286 77.43343026 -27.02734375 74.33984375 C-32.28699961 72.472276 -36.8729716 72.06678202 -42.3671875 72.14453125 C-43.13414444 72.14736115 -43.90110138 72.15019104 -44.69129944 72.15310669 C-47.11597996 72.164209 -49.54027684 72.18929408 -51.96484375 72.21484375 C-53.61913525 72.22488645 -55.2734326 72.23401003 -56.92773438 72.2421875 C-60.96108298 72.26411558 -64.99414855 72.29857532 -69.02734375 72.33984375 Z " fill="#3EEC7D" transform="translate(656.02734375,913.66015625)"/>
<path d="M0 0 C0.99 0.495 0.99 0.495 2 1 C5.27785264 -0.53471713 8.44161788 -2.2025613 11.61914062 -3.93164062 C20.17702811 -8.42432991 28.22625402 -9.37085106 37.8125 -9.3125 C38.78155273 -9.30686035 39.75060547 -9.3012207 40.74902344 -9.29541016 C53.09649972 -9.0862362 63.67730758 -6.66210404 73.03515625 1.8515625 C80.56903069 9.88129704 83.16267294 18.55227987 83.11352539 29.34863281 C83.11367142 30.18802399 83.11381744 31.02741516 83.1139679 31.89224243 C83.11327207 34.66256304 83.10549507 37.43281615 83.09765625 40.203125 C83.0957909 42.12554894 83.09436755 44.04797336 83.09336853 45.97039795 C83.08955257 51.02727575 83.07973012 56.08412477 83.06866455 61.14099121 C83.05843065 66.30232351 83.05386667 71.46366047 83.04882812 76.625 C83.03810705 86.75001263 83.02104165 96.87500392 83 107 C81.40805115 107.32924525 79.81548098 107.65548725 78.22265625 107.98046875 C77.33586182 108.16246826 76.44906738 108.34446777 75.53540039 108.53198242 C69.07698486 109.72416177 62.82333068 109.15385562 57 106 C53.13360347 102.06786276 52.49848974 99.48120211 52.48583984 94.02587891 C52.47871475 93.34388931 52.47158966 92.66189972 52.46424866 91.95924377 C52.44502046 89.71471894 52.45323821 87.47114199 52.4609375 85.2265625 C52.45102481 83.65862663 52.43908138 82.0907024 52.42520142 80.52279663 C52.39286126 76.39907886 52.38245031 72.27562652 52.37835693 68.15179443 C52.36959843 61.55918736 52.33392054 54.96679834 52.2861824 48.37437057 C52.27365798 46.07946265 52.2743503 43.78483365 52.27645874 41.48989868 C52.26987289 40.07090038 52.26286554 38.65190395 52.25537109 37.23291016 C52.25411224 36.00222809 52.25285339 34.77154602 52.2515564 33.50357056 C51.90841107 28.72438838 50.50665903 24.51997709 49 20 C46.80067065 18.83486387 46.80067065 18.83486387 44 18 C42.948125 17.608125 41.89625 17.21625 40.8125 16.8125 C32.5260628 15.04653797 26.32632726 16.8667824 19.03125 20.94140625 C17 22 17 22 15 22 C15 50.05 15 78.1 15 107 C3.62456747 109.27508651 3.62456747 109.27508651 -1.8125 108.8125 C-2.87082031 108.73644531 -3.92914062 108.66039062 -5.01953125 108.58203125 C-8.32388677 107.93675081 -10.32338609 107.03198438 -13 105 C-15.30743054 101.52454415 -15.26202148 98.44295649 -15.28710938 94.33886719 C-15.29394241 93.67813705 -15.30077545 93.01740692 -15.30781555 92.33665466 C-15.32137605 90.90549861 -15.33044699 89.47429448 -15.33552551 88.04308319 C-15.34384085 85.7720625 -15.36437241 83.5014389 -15.38806152 81.23052979 C-15.4362357 76.40374584 -15.4691697 71.57692176 -15.5 66.75 C-15.53576807 61.16781532 -15.5779029 55.58582361 -15.63594055 50.00382233 C-15.65586712 47.77715901 -15.66430138 45.55064703 -15.67224121 43.32391357 C-15.49549638 31.62409742 -15.49549638 31.62409742 -20.0625 21.1875 C-25.28741106 17.29660879 -30.40316052 15.64126113 -36.9375 16.0625 C-42.96832342 17.00817151 -42.96832342 17.00817151 -52 21 C-52.33 49.38 -52.66 77.76 -53 107 C-72.09205308 110.81841062 -72.09205308 110.81841062 -79.6875 106.25 C-83.20392941 102.82860922 -83.92117471 100.11251778 -84.26742554 95.22563171 C-84.28530859 93.73603918 -84.29229403 92.24629062 -84.29052734 90.7565918 C-84.29724457 89.93965851 -84.30396179 89.12272522 -84.31088257 88.28103638 C-84.32984117 85.58703485 -84.3337858 82.89328279 -84.3359375 80.19921875 C-84.34236737 78.31980793 -84.34909587 76.44039811 -84.35610962 74.56098938 C-84.36807736 70.62274862 -84.371791 66.68459555 -84.37060547 62.74633789 C-84.37040241 57.7126127 -84.39769289 52.67945294 -84.43214989 47.64586163 C-84.45444511 43.76381372 -84.45844219 39.88190127 -84.45738602 35.99979591 C-84.45973847 34.14473334 -84.46854188 32.28966683 -84.48405075 30.43466759 C-84.50376224 27.83324585 -84.49785273 25.23303523 -84.48583984 22.6315918 C-84.49707886 21.87339645 -84.50831787 21.11520111 -84.51989746 20.33403015 C-84.44647345 14.04124864 -82.53189919 8.76873609 -78.24609375 4.08203125 C-55.18435629 -12.10601341 -24.23249899 -14.50475746 0 0 Z " fill="#54F162" transform="translate(898,941)"/>
<path d="M0 0 C11.02217672 9.27052645 16.95045389 20.96705458 19.41796875 35.06640625 C20.80345985 56.32843939 19.40719271 75.50278896 5.16796875 92.37890625 C-3.31559201 101.33062337 -15.5776957 107.39823569 -27.99462891 108.22753906 C-30.73221822 108.27349508 -33.46908888 108.30166632 -36.20703125 108.31640625 C-37.14160156 108.33703125 -38.07617188 108.35765625 -39.0390625 108.37890625 C-39.97363281 108.3840625 -40.90820312 108.38921875 -41.87109375 108.39453125 C-42.70334473 108.40387695 -43.5355957 108.41322266 -44.39306641 108.42285156 C-49.2231709 107.8829685 -53.89310209 106.34520511 -58.58203125 105.06640625 C-58.91203125 118.92640625 -59.24203125 132.78640625 -59.58203125 147.06640625 C-67.4027534 149.67331363 -76.82844281 150.8377798 -84.83203125 147.94140625 C-88.37202444 145.52777453 -89.08826723 144.11485561 -90.58203125 140.06640625 C-91.02173559 135.89295707 -90.9917115 131.74021956 -90.97021484 127.546875 C-90.9754718 126.28767242 -90.98072876 125.02846985 -90.98614502 123.73110962 C-90.99978255 120.28893434 -90.9945349 116.84702982 -90.98500776 113.40485001 C-90.97739259 109.79617859 -90.98446192 106.18752978 -90.98916626 102.57885742 C-90.99461842 96.51965184 -90.98744643 90.46055608 -90.97314453 84.40136719 C-90.95681898 77.40418921 -90.96210787 70.40727351 -90.97862375 63.41010189 C-90.99225405 57.39377828 -90.99415075 51.37753345 -90.98630774 45.36119938 C-90.98163968 41.77171087 -90.98098238 38.1823455 -90.99091721 34.59286499 C-91.00122202 30.59039877 -90.98692437 26.58838207 -90.97021484 22.5859375 C-90.97628754 21.40133942 -90.98236023 20.21674133 -90.98861694 18.99624634 C-90.93737792 12.37341919 -90.54071515 7.61200299 -86.14453125 2.34375 C-64.39955934 -16.30256342 -22.77499634 -17.05540573 0 0 Z M-49.70703125 14.44140625 C-50.72023438 14.69664062 -51.7334375 14.951875 -52.77734375 15.21484375 C-55.85829335 16.06447858 -55.85829335 16.06447858 -59.58203125 18.06640625 C-59.58203125 38.19640625 -59.58203125 58.32640625 -59.58203125 79.06640625 C-49.56128019 83.07470667 -39.68632204 85.35704168 -29.08203125 82.00390625 C-22.52757228 78.90068895 -17.20536208 73.8783621 -14.32421875 67.2109375 C-10.10737351 55.02647414 -10.01492129 41.15983973 -14.58203125 29.06640625 C-18.00275202 22.33596155 -21.87708591 17.68395099 -29.1953125 15.16796875 C-36.50554368 13.01150001 -42.25795645 12.51722069 -49.70703125 14.44140625 Z " fill="#34EA88" transform="translate(517.58203125,942.93359375)"/>
<path d="M0 0 C19.32437378 -0.38313504 38.64837746 2.29591351 53.58984375 15.5 C65.0254005 28.48090225 67.74156612 40.80106824 67.08154297 57.76464844 C66.18870511 69.52480706 60.31218347 79.53072979 51.86328125 87.5 C40.93709021 96.55437345 27.33664655 100.27873721 13.31640625 100.22265625 C11.38982178 100.21890991 11.38982178 100.21890991 9.42431641 100.21508789 C7.80831543 100.20598389 6.19231445 100.19687988 4.52734375 100.1875 C-0.62890625 100.166875 -5.78515625 100.14625 -11.09765625 100.125 C-11.09765625 115.965 -11.09765625 131.805 -11.09765625 148.125 C-23.60590847 150.39922768 -23.60590847 150.39922768 -28.97265625 149.9375 C-30.54660156 149.82341797 -30.54660156 149.82341797 -32.15234375 149.70703125 C-35.57555424 149.03056127 -37.42146644 148.38842155 -40.09765625 146.125 C-43.35912987 139.36037792 -43.52606839 133.357271 -43.48583984 125.92919922 C-43.4910968 124.72822601 -43.49635376 123.52725281 -43.50177002 122.28988647 C-43.51266362 119.01720989 -43.51017837 115.74490107 -43.50063276 112.47223043 C-43.49299903 109.03707239 -43.50009171 105.60193764 -43.50479126 102.16677856 C-43.51023659 96.40199417 -43.50308792 90.6373254 -43.48876953 84.87255859 C-43.47242977 78.21729278 -43.4777459 71.56230253 -43.49424875 64.90704334 C-43.5078801 59.17942322 -43.50977571 53.45188584 -43.50193274 47.72425473 C-43.49726724 44.30917477 -43.49660058 40.89422421 -43.50654221 37.47915268 C-43.51415978 33.67324926 -43.50254781 29.86787567 -43.48583984 26.06201172 C-43.49191254 24.93666016 -43.49798523 23.81130859 -43.50424194 22.65185547 C-43.45918087 17.11186431 -43.39071539 12.82516169 -40.09765625 8.125 C-29.13978306 0.60489095 -12.83176874 0.51780151 0 0 Z M-11.09765625 27.125 C-11.09765625 42.965 -11.09765625 58.805 -11.09765625 75.125 C9.63530781 76.25010418 9.63530781 76.25010418 27.90234375 68.125 C33.09674227 62.69449245 34.95374532 58.29688665 35.27734375 50.875 C35.11497033 44.24475211 33.76082227 38.31304427 29.2421875 33.2734375 C17.90374219 23.8208527 2.59353308 25.41360133 -11.09765625 27.125 Z " fill="#20E5A0" transform="translate(223.09765625,899.875)"/>
<path d="M0 0 C12.60621148 9.66852839 19.46862258 23.56493138 21.6015625 39.12890625 C23.50971927 57.66795878 20.61688376 75.48996455 9.1171875 90.46484375 C0.77436481 100.45468125 -11.03855081 107.1755917 -24 109 C-28.10880265 109.28810979 -32.1947612 109.32498556 -36.3125 109.3125 C-37.36373047 109.32861328 -38.41496094 109.34472656 -39.49804688 109.36132812 C-55.42703783 109.37111853 -68.22336497 104.31642566 -79.78125 93.34375 C-92.31887302 80.09978202 -95.69500488 62.97637781 -95.2421875 45.3046875 C-94.56039681 30.23103797 -89.83549523 15.99672908 -79.23046875 4.9609375 C-57.47854201 -14.1624727 -24.11295233 -15.76208516 0 0 Z M-55.3125 22.04296875 C-62.06703561 29.87635379 -63.3483082 39.33633505 -63.3125 49.3125 C-63.32861328 50.19873047 -63.34472656 51.08496094 -63.36132812 51.99804688 C-63.36773288 60.7789722 -61.66760912 69.07292219 -56 76 C-49.18414879 82.62475258 -43.61370291 85.06383601 -34 85 C-26.4652102 83.9710199 -20.95536989 80.73538182 -16 75 C-10.84007305 67.32153727 -9.62455011 58.67974833 -9.6875 49.625 C-9.69241455 48.78864014 -9.6973291 47.95228027 -9.70239258 47.09057617 C-9.89577602 36.90075651 -12.27440286 27.52901011 -19.8203125 20.2421875 C-30.85075898 11.28806035 -45.11931502 12.28135007 -55.3125 22.04296875 Z " fill="#2BE893" transform="translate(390,942)"/>
<path d="M0 0 C12.38689503 9.73256038 17.94265277 25.48113369 19.875 40.5625 C21.10074469 59.54239048 17.46419215 76.87117257 4.875 91.5625 C-3.61695189 100.95706717 -16.42235746 106.8859538 -29.0065918 107.76342773 C-32.17385875 107.86613226 -35.33116215 107.88456775 -38.5 107.875 C-39.55960938 107.89111328 -40.61921875 107.90722656 -41.7109375 107.92382812 C-57.00035512 107.93319664 -70.76762546 102.68304992 -81.87109375 92.04296875 C-94.662018 77.96630168 -98.10602245 60.15504229 -97.28173828 41.67285156 C-96.16273745 26.60642921 -90.61772398 12.96811912 -79.83984375 2.30078125 C-57.33672956 -16.90919427 -23.78970246 -16.09303402 0 0 Z M-57.4375 20.60546875 C-64.19203561 28.43885379 -65.4733082 37.89883505 -65.4375 47.875 C-65.45361328 48.76123047 -65.46972656 49.64746094 -65.48632812 50.56054688 C-65.49339732 60.25240933 -63.34550527 68.88136192 -56.6640625 76.15234375 C-51.50750524 81.1031229 -45.68910025 83.3967838 -38.54296875 83.65625 C-30.73736478 83.176643 -24.85404496 80.65787288 -19.375 75.0625 C-10.79148641 64.27909277 -10.92493182 50.70967555 -12.125 37.5625 C-13.60363479 28.80158887 -17.38326929 22.36115307 -24.125 16.5625 C-35.27948301 9.95243599 -48.19932169 11.75842299 -57.4375 20.60546875 Z " fill="#48EF70" transform="translate(779.125,943.4375)"/>
</svg>
