<?xml version="1.0" encoding="UTF-8"?>
<svg version="1.1" xmlns="http://www.w3.org/2000/svg" width="1160" height="275">
<path d="M0 0 C6.27816656 5.82688186 9.87619694 12.87653048 10.28125 21.46484375 C10.69026113 32.76377634 10.00863294 41.78616145 1.96875 50.515625 C-1.39757271 53.60088851 -4.98630129 56.19303995 -9.02734375 58.33984375 C-8.38667969 58.63117188 -7.74601563 58.9225 -7.0859375 59.22265625 C2.93051364 63.969648 9.95906089 69.40871486 13.98046875 79.9921875 C17.17236997 90.7037479 16.67473019 102.41207867 12.38671875 112.77734375 C6.0279375 124.30043905 -4.43638949 130.76833446 -16.75195312 134.46362305 C-27.44818321 137.32504 -38.21720189 137.70844693 -49.21484375 137.65234375 C-49.93801788 137.65085327 -50.66119202 137.64936279 -51.40628052 137.64782715 C-85.4440117 137.52181546 -85.4440117 137.52181546 -97.08984375 127.77734375 C-99.87699985 124.27092156 -100.15402571 121.6449615 -100.17451477 117.3052063 C-100.18167007 116.264953 -100.18882538 115.22469971 -100.19619751 114.15292358 C-100.19888641 113.01207306 -100.20157532 111.87122253 -100.2043457 110.69580078 C-100.2109169 109.49395142 -100.2174881 108.29210205 -100.22425842 107.05383301 C-100.24400334 103.06843823 -100.25565678 99.08308368 -100.265625 95.09765625 C-100.26967321 93.72488256 -100.27379015 92.35210907 -100.27797508 90.97933578 C-100.29701925 84.53099472 -100.31125318 78.08266507 -100.31958705 71.6343013 C-100.32936385 64.19266067 -100.35569777 56.75131713 -100.39608794 49.30978119 C-100.42624559 43.55597211 -100.44105548 37.80224824 -100.44436806 32.04836166 C-100.44671855 28.61247116 -100.45567835 25.17689835 -100.48082924 21.74109268 C-100.50843485 17.90819015 -100.50427988 14.07567908 -100.49731445 10.24267578 C-100.51012451 9.10587372 -100.52293457 7.96907166 -100.53613281 6.79782104 C-100.48508988 -0.8903775 -100.48508988 -0.8903775 -98.14640808 -4.82327271 C-77.13935295 -23.03296711 -20.44148465 -16.73917337 0 0 Z M-69.02734375 12.33984375 C-69.02734375 24.21984375 -69.02734375 36.09984375 -69.02734375 48.33984375 C-64.07734375 48.40171875 -59.12734375 48.46359375 -54.02734375 48.52734375 C-51.70896484 48.56831177 -51.70896484 48.56831177 -49.34375 48.61010742 C-40.5543797 48.66326894 -34.24780428 48.12694033 -26.71484375 43.15234375 C-22.9218447 39.18292613 -21.15826567 35.55834089 -20.93359375 30.03515625 C-21.28223701 24.85780386 -22.52307487 21.30520064 -26.02734375 17.33984375 C-33.85744923 11.91900149 -41.71419 11.01829078 -51.02734375 11.15234375 C-52.30351563 11.15331055 -52.30351563 11.15331055 -53.60546875 11.15429688 C-58.89814864 11.19082611 -63.69503143 11.67330471 -69.02734375 12.33984375 Z M-69.02734375 72.33984375 C-69.05199224 77.73331363 -69.07017906 83.126751 -69.08227539 88.52026367 C-69.08731606 90.3565325 -69.09414852 92.19279729 -69.1027832 94.02905273 C-69.11486047 96.66260776 -69.12057456 99.29610991 -69.125 101.9296875 C-69.13016129 102.75572983 -69.13532257 103.58177216 -69.14064026 104.43284607 C-69.1408358 106.40220743 -69.08938527 108.37145989 -69.02734375 110.33984375 C-64.91992429 114.44726321 -52.17029924 112.64750152 -46.81494141 112.65893555 C-37.63896384 112.54578706 -29.37028045 111.72733438 -21.90234375 105.90234375 C-16.82516348 98.96353071 -16.06483834 93.91587511 -17.02734375 85.33984375 C-19.29547707 80.45463352 -22.64476286 77.43343026 -27.02734375 74.33984375 C-32.28699961 72.472276 -36.8729716 72.06678202 -42.3671875 72.14453125 C-43.13414444 72.14736115 -43.90110138 72.15019104 -44.69129944 72.15310669 C-47.11597996 72.164209 -49.54027684 72.18929408 -51.96484375 72.21484375 C-53.61913525 72.22488645 -55.2734326 72.23401003 -56.92773438 72.2421875 C-60.96108298 72.26411558 -64.99414855 72.29857532 -69.02734375 72.33984375 Z " fill="#3EEC7D" transform="translate(656.02734375,36.66015625)"/>
<path d="M0 0 C0.99 0.495 0.99 0.495 2 1 C5.27785264 -0.53471713 8.44161788 -2.2025613 11.61914062 -3.93164062 C20.17702811 -8.42432991 28.22625402 -9.37085106 37.8125 -9.3125 C38.78155273 -9.30686035 39.75060547 -9.3012207 40.74902344 -9.29541016 C53.09649972 -9.0862362 63.67730758 -6.66210404 73.03515625 1.8515625 C80.56903069 9.88129704 83.16267294 18.55227987 83.11352539 29.34863281 C83.11367142 30.18802399 83.11381744 31.02741516 83.1139679 31.89224243 C83.11327207 34.66256304 83.10549507 37.43281615 83.09765625 40.203125 C83.0957909 42.12554894 83.09436755 44.04797336 83.09336853 45.97039795 C83.08955257 51.02727575 83.07973012 56.08412477 83.06866455 61.14099121 C83.05843065 66.30232351 83.05386667 71.46366047 83.04882812 76.625 C83.03810705 86.75001263 83.02104165 96.87500392 83 107 C81.40805115 107.32924525 79.81548098 107.65548725 78.22265625 107.98046875 C77.33586182 108.16246826 76.44906738 108.34446777 75.53540039 108.53198242 C69.07698486 109.72416177 62.82333068 109.15385562 57 106 C53.13360347 102.06786276 52.49848974 99.48120211 52.48583984 94.02587891 C52.47871475 93.34388931 52.47158966 92.66189972 52.46424866 91.95924377 C52.44502046 89.71471894 52.45323821 87.47114199 52.4609375 85.2265625 C52.45102481 83.65862663 52.43908138 82.0907024 52.42520142 80.52279663 C52.39286126 76.39907886 52.38245031 72.27562652 52.37835693 68.15179443 C52.36959843 61.55918736 52.33392054 54.96679834 52.2861824 48.37437057 C52.27365798 46.07946265 52.2743503 43.78483365 52.27645874 41.48989868 C52.26987289 40.07090038 52.26286554 38.65190395 52.25537109 37.23291016 C52.25411224 36.00222809 52.25285339 34.77154602 52.2515564 33.50357056 C51.90841107 28.72438838 50.50665903 24.51997709 49 20 C46.80067065 18.83486387 46.80067065 18.83486387 44 18 C42.948125 17.608125 41.89625 17.21625 40.8125 16.8125 C32.5260628 15.04653797 26.32632726 16.8667824 19.03125 20.94140625 C17 22 17 22 15 22 C15 50.05 15 78.1 15 107 C3.62456747 109.27508651 3.62456747 109.27508651 -1.8125 108.8125 C-2.87082031 108.73644531 -3.92914062 108.66039062 -5.01953125 108.58203125 C-8.32388677 107.93675081 -10.32338609 107.03198438 -13 105 C-15.30743054 101.52454415 -15.26202148 98.44295649 -15.28710938 94.33886719 C-15.29394241 93.67813705 -15.30077545 93.01740692 -15.30781555 92.33665466 C-15.32137605 90.90549861 -15.33044699 89.47429448 -15.33552551 88.04308319 C-15.34384085 85.7720625 -15.36437241 83.5014389 -15.38806152 81.23052979 C-15.4362357 76.40374584 -15.4691697 71.57692176 -15.5 66.75 C-15.53576807 61.16781532 -15.5779029 55.58582361 -15.63594055 50.00382233 C-15.65586712 47.77715901 -15.66430138 45.55064703 -15.67224121 43.32391357 C-15.49549638 31.62409742 -15.49549638 31.62409742 -20.0625 21.1875 C-25.28741106 17.29660879 -30.40316052 15.64126113 -36.9375 16.0625 C-42.96832342 17.00817151 -42.96832342 17.00817151 -52 21 C-52.33 49.38 -52.66 77.76 -53 107 C-72.09205308 110.81841062 -72.09205308 110.81841062 -79.6875 106.25 C-83.20392941 102.82860922 -83.92117471 100.11251778 -84.26742554 95.22563171 C-84.28530859 93.73603918 -84.29229403 92.24629062 -84.29052734 90.7565918 C-84.29724457 89.93965851 -84.30396179 89.12272522 -84.31088257 88.28103638 C-84.32984117 85.58703485 -84.3337858 82.89328279 -84.3359375 80.19921875 C-84.34236737 78.31980793 -84.34909587 76.44039811 -84.35610962 74.56098938 C-84.36807736 70.62274862 -84.371791 66.68459555 -84.37060547 62.74633789 C-84.37040241 57.7126127 -84.39769289 52.67945294 -84.43214989 47.64586163 C-84.45444511 43.76381372 -84.45844219 39.88190127 -84.45738602 35.99979591 C-84.45973847 34.14473334 -84.46854188 32.28966683 -84.48405075 30.43466759 C-84.50376224 27.83324585 -84.49785273 25.23303523 -84.48583984 22.6315918 C-84.49707886 21.87339645 -84.50831787 21.11520111 -84.51989746 20.33403015 C-84.44647345 14.04124864 -82.53189919 8.76873609 -78.24609375 4.08203125 C-55.18435629 -12.10601341 -24.23249899 -14.50475746 0 0 Z " fill="#54F162" transform="translate(898,64)"/>
<path d="M0 0 C11.02217672 9.27052645 16.95045389 20.96705458 19.41796875 35.06640625 C20.80345985 56.32843939 19.40719271 75.50278896 5.16796875 92.37890625 C-3.31559201 101.33062337 -15.5776957 107.39823569 -27.99462891 108.22753906 C-30.73221822 108.27349508 -33.46908888 108.30166632 -36.20703125 108.31640625 C-37.14160156 108.33703125 -38.07617188 108.35765625 -39.0390625 108.37890625 C-39.97363281 108.3840625 -40.90820312 108.38921875 -41.87109375 108.39453125 C-42.70334473 108.40387695 -43.5355957 108.41322266 -44.39306641 108.42285156 C-49.2231709 107.8829685 -53.89310209 106.34520511 -58.58203125 105.06640625 C-58.91203125 118.92640625 -59.24203125 132.78640625 -59.58203125 147.06640625 C-67.4027534 149.67331363 -76.82844281 150.8377798 -84.83203125 147.94140625 C-88.37202444 145.52777453 -89.08826723 144.11485561 -90.58203125 140.06640625 C-91.02173559 135.89295707 -90.9917115 131.74021956 -90.97021484 127.546875 C-90.9754718 126.28767242 -90.98072876 125.02846985 -90.98614502 123.73110962 C-90.99978255 120.28893434 -90.9945349 116.84702982 -90.98500776 113.40485001 C-90.97739259 109.79617859 -90.98446192 106.18752978 -90.98916626 102.57885742 C-90.99461842 96.51965184 -90.98744643 90.46055608 -90.97314453 84.40136719 C-90.95681898 77.40418921 -90.96210787 70.40727351 -90.97862375 63.41010189 C-90.99225405 57.39377828 -90.99415075 51.37753345 -90.98630774 45.36119938 C-90.98163968 41.77171087 -90.98098238 38.1823455 -90.99091721 34.59286499 C-91.00122202 30.59039877 -90.98692437 26.58838207 -90.97021484 22.5859375 C-90.97628754 21.40133942 -90.98236023 20.21674133 -90.98861694 18.99624634 C-90.93737792 12.37341919 -90.54071515 7.61200299 -86.14453125 2.34375 C-64.39955934 -16.30256342 -22.77499634 -17.05540573 0 0 Z M-49.70703125 14.44140625 C-50.72023438 14.69664063 -51.7334375 14.951875 -52.77734375 15.21484375 C-55.85829335 16.06447858 -55.85829335 16.06447858 -59.58203125 18.06640625 C-59.58203125 38.19640625 -59.58203125 58.32640625 -59.58203125 79.06640625 C-49.56128019 83.07470667 -39.68632204 85.35704168 -29.08203125 82.00390625 C-22.52757228 78.90068895 -17.20536208 73.8783621 -14.32421875 67.2109375 C-10.10737351 55.02647414 -10.01492129 41.15983973 -14.58203125 29.06640625 C-18.00275202 22.33596155 -21.87708591 17.68395099 -29.1953125 15.16796875 C-36.50554368 13.01150001 -42.25795645 12.51722069 -49.70703125 14.44140625 Z " fill="#34EA88" transform="translate(517.58203125,65.93359375)"/>
<path d="M0 0 C19.32437378 -0.38313504 38.64837746 2.29591351 53.58984375 15.5 C65.0254005 28.48090225 67.74156612 40.80106824 67.08154297 57.76464844 C66.18870511 69.52480706 60.31218347 79.53072979 51.86328125 87.5 C40.93709021 96.55437345 27.33664655 100.27873721 13.31640625 100.22265625 C11.38982178 100.21890991 11.38982178 100.21890991 9.42431641 100.21508789 C7.80831543 100.20598389 6.19231445 100.19687988 4.52734375 100.1875 C-0.62890625 100.166875 -5.78515625 100.14625 -11.09765625 100.125 C-11.09765625 115.965 -11.09765625 131.805 -11.09765625 148.125 C-23.60590847 150.39922768 -23.60590847 150.39922768 -28.97265625 149.9375 C-30.54660156 149.82341797 -30.54660156 149.82341797 -32.15234375 149.70703125 C-35.57555424 149.03056127 -37.42146644 148.38842155 -40.09765625 146.125 C-43.35912987 139.36037792 -43.52606839 133.357271 -43.48583984 125.92919922 C-43.4910968 124.72822601 -43.49635376 123.52725281 -43.50177002 122.28988647 C-43.51266362 119.01720989 -43.51017837 115.74490107 -43.50063276 112.47223043 C-43.49299903 109.03707239 -43.50009171 105.60193764 -43.50479126 102.16677856 C-43.51023659 96.40199417 -43.50308792 90.6373254 -43.48876953 84.87255859 C-43.47242977 78.21729278 -43.4777459 71.56230253 -43.49424875 64.90704334 C-43.5078801 59.17942322 -43.50977571 53.45188584 -43.50193274 47.72425473 C-43.49726724 44.30917477 -43.49660058 40.89422421 -43.50654221 37.47915268 C-43.51415978 33.67324926 -43.50254781 29.86787567 -43.48583984 26.06201172 C-43.49191254 24.93666016 -43.49798523 23.81130859 -43.50424194 22.65185547 C-43.45918087 17.11186431 -43.39071539 12.82516169 -40.09765625 8.125 C-29.13978306 0.60489095 -12.83176874 0.51780151 0 0 Z M-11.09765625 27.125 C-11.09765625 42.965 -11.09765625 58.805 -11.09765625 75.125 C9.63530781 76.25010418 9.63530781 76.25010418 27.90234375 68.125 C33.09674227 62.69449245 34.95374532 58.29688665 35.27734375 50.875 C35.11497033 44.24475211 33.76082227 38.31304427 29.2421875 33.2734375 C17.90374219 23.8208527 2.59353308 25.41360133 -11.09765625 27.125 Z " fill="#20E5A0" transform="translate(223.09765625,22.875)"/>
<path d="M0 0 C12.60621148 9.66852839 19.46862258 23.56493138 21.6015625 39.12890625 C23.50971927 57.66795878 20.61688376 75.48996455 9.1171875 90.46484375 C0.77436481 100.45468125 -11.03855081 107.1755917 -24 109 C-28.10880265 109.28810979 -32.1947612 109.32498556 -36.3125 109.3125 C-37.36373047 109.32861328 -38.41496094 109.34472656 -39.49804688 109.36132812 C-55.42703783 109.37111853 -68.22336497 104.31642566 -79.78125 93.34375 C-92.31887302 80.09978202 -95.69500488 62.97637781 -95.2421875 45.3046875 C-94.56039681 30.23103797 -89.83549523 15.99672908 -79.23046875 4.9609375 C-57.47854201 -14.1624727 -24.11295233 -15.76208516 0 0 Z M-55.3125 22.04296875 C-62.06703561 29.87635379 -63.3483082 39.33633505 -63.3125 49.3125 C-63.32861328 50.19873047 -63.34472656 51.08496094 -63.36132812 51.99804688 C-63.36773288 60.7789722 -61.66760912 69.07292219 -56 76 C-49.18414879 82.62475258 -43.61370291 85.06383601 -34 85 C-26.4652102 83.9710199 -20.95536989 80.73538182 -16 75 C-10.84007305 67.32153727 -9.62455011 58.67974833 -9.6875 49.625 C-9.69241455 48.78864014 -9.6973291 47.95228027 -9.70239258 47.09057617 C-9.89577602 36.90075651 -12.27440286 27.52901011 -19.8203125 20.2421875 C-30.85075898 11.28806035 -45.11931502 12.28135007 -55.3125 22.04296875 Z " fill="#2BE893" transform="translate(390,65)"/>
<path d="M0 0 C12.38689503 9.73256038 17.94265277 25.48113369 19.875 40.5625 C21.10074469 59.54239048 17.46419215 76.87117257 4.875 91.5625 C-3.61695189 100.95706717 -16.42235746 106.8859538 -29.0065918 107.76342773 C-32.17385875 107.86613226 -35.33116215 107.88456775 -38.5 107.875 C-39.55960938 107.89111328 -40.61921875 107.90722656 -41.7109375 107.92382812 C-57.00035512 107.93319664 -70.76762546 102.68304992 -81.87109375 92.04296875 C-94.662018 77.96630168 -98.10602245 60.15504229 -97.28173828 41.67285156 C-96.16273745 26.60642921 -90.61772398 12.96811912 -79.83984375 2.30078125 C-57.33672956 -16.90919427 -23.78970246 -16.09303402 0 0 Z M-57.4375 20.60546875 C-64.19203561 28.43885379 -65.4733082 37.89883505 -65.4375 47.875 C-65.45361328 48.76123047 -65.46972656 49.64746094 -65.48632812 50.56054688 C-65.49339732 60.25240933 -63.34550527 68.88136192 -56.6640625 76.15234375 C-51.50750524 81.1031229 -45.68910025 83.3967838 -38.54296875 83.65625 C-30.73736478 83.176643 -24.85404496 80.65787288 -19.375 75.0625 C-10.79148641 64.27909277 -10.92493182 50.70967555 -12.125 37.5625 C-13.60363479 28.80158887 -17.38326929 22.36115307 -24.125 16.5625 C-35.27948301 9.95243599 -48.19932169 11.75842299 -57.4375 20.60546875 Z " fill="#48EF70" transform="translate(779.125,66.4375)"/>
</svg>
